<svg width="200" height="150" viewBox="0 0 200 150" fill="none" xmlns="http://www.w3.org/2000/svg">
<path d="M200 131.448H0V131.548H200V131.448Z" fill="#E0E0E0"/>
<path d="M151.064 135.684H137.304V135.784H151.064V135.684Z" fill="#E0E0E0"/>
<path d="M44.4161 135.732H36.6721V135.832H44.4161V135.732Z" fill="#E0E0E0"/>
<path d="M100.4 135.5H84.7039V135.6H100.4V135.5Z" fill="#E0E0E0"/>
<path d="M84.3041 134.076H77.2881V134.176H84.3041V134.076Z" fill="#E0E0E0"/>
<path d="M169.824 134.128H148.628V134.228H169.824V134.128Z" fill="#E0E0E0"/>
<path d="M94.8 113.608H17.564C16.9589 113.607 16.379 113.366 15.9515 112.938C15.5241 112.509 15.284 111.929 15.284 111.324V2.75198C15.2892 2.15039 15.5317 1.57517 15.9586 1.15126C16.3855 0.727359 16.9624 0.489007 17.564 0.487976H94.8C95.4057 0.487976 95.9867 0.728611 96.415 1.15694C96.8433 1.58528 97.084 2.16622 97.084 2.77198V111.324C97.084 111.93 96.8433 112.511 96.415 112.939C95.9867 113.367 95.4057 113.608 94.8 113.608ZM17.564 0.567976C16.9854 0.569036 16.431 0.799602 16.0222 1.20907C15.6135 1.61853 15.384 2.17344 15.384 2.75198V111.324C15.384 111.903 15.6135 112.457 16.0222 112.867C16.431 113.276 16.9854 113.507 17.564 113.508H94.8C95.3789 113.507 95.9338 113.276 96.3431 112.867C96.7525 112.458 96.9829 111.903 96.984 111.324V2.75198C96.9829 2.17307 96.7525 1.61817 96.3431 1.20882C95.9338 0.799472 95.3789 0.569034 94.8 0.567976H17.564Z" fill="#E0E0E0"/>
<path d="M181.324 113.608H104.084C103.479 113.607 102.898 113.366 102.47 112.938C102.042 112.51 101.801 111.929 101.8 111.324V2.75198C101.806 2.15002 102.05 1.57481 102.477 1.15101C102.905 0.72722 103.482 0.488995 104.084 0.487976H181.324C181.925 0.490058 182.501 0.728876 182.927 1.15267C183.353 1.57646 183.595 2.15108 183.6 2.75198V111.324C183.6 111.928 183.36 112.508 182.934 112.936C182.507 113.364 181.928 113.606 181.324 113.608ZM104.084 0.567976C103.505 0.569034 102.95 0.799472 102.541 1.20882C102.131 1.61817 101.901 2.17307 101.9 2.75198V111.324C101.901 111.903 102.131 112.458 102.541 112.867C102.95 113.276 103.505 113.507 104.084 113.508H181.324C181.903 113.507 182.458 113.276 182.867 112.867C183.277 112.458 183.507 111.903 183.508 111.324V2.75198C183.507 2.17307 183.277 1.61817 182.867 1.20882C182.458 0.799472 181.903 0.569034 181.324 0.567976H104.084Z" fill="#E0E0E0"/>
<path d="M175.724 81.38C170.804 73.888 175.296 65.836 174.548 57.5C173.8 49.164 165.88 47.348 167.38 40.3C169.116 32.108 164.488 24.248 159.244 24.248C154 24.248 149.376 32.088 151.112 40.288C152.612 47.348 144.712 49.168 143.944 57.488C143.176 65.808 147.688 73.888 142.764 81.368C137.84 88.848 139.136 98.78 141.908 103.704C142.645 105.01 143.534 106.226 144.556 107.324C146.435 109.341 148.708 110.949 151.236 112.049C153.763 113.149 156.49 113.716 159.246 113.716C162.002 113.716 164.729 113.149 167.256 112.049C169.784 110.949 172.057 109.341 173.936 107.324C174.955 106.224 175.843 105.009 176.58 103.704C179.356 98.792 180.648 88.888 175.724 81.38Z" fill="#E0E0E0"/>
<path d="M159.244 87.064C159.571 87.064 159.894 87.1283 160.196 87.2534C160.498 87.3784 160.772 87.5617 161.003 87.7927C161.234 88.0237 161.418 88.298 161.543 88.5999C161.668 88.9017 161.732 89.2253 161.732 89.552V131.448H156.756V89.552C156.756 89.2253 156.82 88.9017 156.945 88.5999C157.07 88.298 157.254 88.0237 157.485 87.7927C157.716 87.5617 157.99 87.3784 158.292 87.2534C158.594 87.1283 158.917 87.064 159.244 87.064Z" fill="#F0F0F0"/>
<path d="M127.964 131.448H121.2V89.556C121.202 88.6581 121.56 87.7976 122.195 87.1626C122.83 86.5277 123.69 86.1701 124.588 86.168C125.486 86.1701 126.346 86.5277 126.981 87.1626C127.616 87.7976 127.974 88.6581 127.976 89.556L127.964 131.448Z" fill="#E0E0E0"/>
<path d="M124.576 120.148C136.101 120.148 145.444 110.805 145.444 99.28C145.444 87.7549 136.101 78.412 124.576 78.412C113.051 78.412 103.708 87.7549 103.708 99.28C103.708 110.805 113.051 120.148 124.576 120.148Z" fill="#F0F0F0"/>
<path d="M149.097 93.0181C150.192 88.61 147.507 84.149 143.099 83.054C138.691 81.9591 134.23 84.6448 133.135 89.0529C132.04 93.4609 134.725 97.922 139.133 99.0169C143.541 100.112 148.002 97.4261 149.097 93.0181Z" fill="#F0F0F0"/>
<path d="M112.5 86.9477C112.933 84.2942 111.132 81.7927 108.478 81.3605C105.825 80.9284 103.323 82.7292 102.891 85.3827C102.459 88.0363 104.26 90.5378 106.913 90.9699C109.567 91.4021 112.068 89.6013 112.5 86.9477Z" fill="#F0F0F0"/>
<path d="M112.992 87.064C114.879 87.064 116.408 85.5346 116.408 83.648C116.408 81.7614 114.879 80.232 112.992 80.232C111.105 80.232 109.576 81.7614 109.576 83.648C109.576 85.5346 111.105 87.064 112.992 87.064Z" fill="#F0F0F0"/>
<path d="M81.6 106.444C78.3551 106.927 75.254 108.111 72.512 109.912C72.488 106.744 71.908 103.74 70.42 101.312C68.156 103.516 66.32 106.372 64.82 109.444C64.272 103.688 62.756 98.088 59.4 94.54C54.372 97.704 51.78 102.976 50.548 108.56C48.5127 104.795 45.5585 101.605 41.96 99.288C38.884 102.528 37.9 107.008 37.984 111.6C34.488 107.528 30.608 104.352 26.824 103.98C25.892 110.416 27.876 116.488 30.4 121.288C32.0387 124.368 34.4868 126.942 37.4804 128.733C40.4739 130.524 43.8996 131.464 47.388 131.452H63.824C70.828 131.452 77.396 127.716 80.68 121.528C82.756 117.608 83.748 112.564 81.6 106.444Z" fill="#E0E0E0"/>
<path d="M76.9041 23.344C78.9321 17.396 77.3041 13.16 72.3561 13.16C69.2441 13.16 65.3841 14.828 61.6241 17.54C61.2001 15.992 60.0041 15.068 58.0801 15.068C54.6921 15.068 50.0241 17.932 46.3641 21.972C45.3336 20.993 43.9694 20.4424 42.5481 20.432C39.3041 20.248 35.3801 21.896 31.9681 24.572C31.7971 24.3327 31.5714 24.1378 31.3098 24.0035C31.0481 23.8692 30.7582 23.7994 30.4641 23.8C28.5961 23.696 26.0641 25.36 24.8121 27.512C24.7361 27.644 24.6681 27.776 24.5961 27.912H77.8881C78.0481 26.032 77.7161 24.464 76.9041 23.344Z" fill="#F0F0F0"/>
<path d="M77.068 59.46C78.06 56.556 77.272 54.488 74.848 54.488C73.324 54.488 71.44 55.288 69.604 56.628C69.5051 56.2547 69.2765 55.9289 68.9591 55.709C68.6416 55.489 68.2562 55.3894 67.872 55.428C66.22 55.428 63.94 56.828 62.148 58.804C61.6457 58.3242 60.9787 58.0551 60.284 58.052C58.684 57.96 56.784 58.764 55.116 60.072C55.0351 59.9563 54.9282 59.8613 54.8038 59.7946C54.6794 59.7279 54.5411 59.6914 54.4 59.688C53.488 59.636 52.252 60.448 51.64 61.5L51.532 61.692H77.564C77.6728 60.9125 77.4967 60.12 77.068 59.46Z" fill="#F0F0F0"/>
<path d="M137.108 37.484C136.903 37.4551 136.696 37.4404 136.488 37.44C136.68 34.54 135.572 32.684 133.2 32.684C131.492 32.684 129.392 33.652 127.256 35.288C127.868 29.656 125.908 25.996 121.468 25.996C117.892 25.996 113.36 28.396 108.884 32.26C108.484 30.052 107.172 28.724 104.956 28.724C101.064 28.724 95.5321 32.82 91.0961 38.596C90.5906 37.9299 89.9423 37.3856 89.1989 37.0028C88.4555 36.62 87.6359 36.4086 86.8001 36.384C83.0961 36.124 78.4921 38.476 74.4001 42.308C74.2512 41.9848 74.0142 41.7102 73.7164 41.5157C73.4185 41.3211 73.0718 41.2144 72.7161 41.208C70.6881 41.064 67.9161 43.18 66.2721 46.008H140.368C142.108 41.72 140.724 37.968 137.108 37.484Z" fill="#F0F0F0"/>
<path d="M99.9999 149.512C142.833 149.512 177.556 147.485 177.556 144.984C177.556 142.483 142.833 140.456 99.9999 140.456C57.167 140.456 22.4439 142.483 22.4439 144.984C22.4439 147.485 57.167 149.512 99.9999 149.512Z" fill="#F5F5F5"/>
<path d="M19.5439 38.712L110.732 51.84L122.968 64.188L19.5439 38.712Z" fill="#FA1239"/>
<path opacity="0.6" d="M19.5439 38.712L110.732 51.84L122.968 64.188L19.5439 38.712Z" fill="white"/>
<path d="M19.5439 38.712L110.732 51.84L106.5 69.696L19.5439 38.712Z" fill="#FA1239"/>
<path opacity="0.2" d="M19.5439 38.712L110.732 51.84L106.5 69.696L19.5439 38.712Z" fill="black"/>
<path d="M104.628 18.04L109.92 42.84C110.058 43.4876 109.933 44.1633 109.573 44.719C109.213 45.2747 108.647 45.6649 108 45.804L60.768 55.884C60.1205 56.0206 59.4453 55.8953 58.8899 55.5355C58.3345 55.1757 57.9441 54.6107 57.804 53.964L52.508 29.164C52.3716 28.5159 52.4974 27.8402 52.858 27.2847C53.2186 26.7292 53.7846 26.3392 54.432 26.2L101.664 16.12C102.312 15.9835 102.988 16.1094 103.543 16.47C104.099 16.8305 104.489 17.3965 104.628 18.044V18.04Z" fill="#FA1239"/>
<path opacity="0.4" d="M104.628 18.04L109.92 42.84C110.058 43.4876 109.933 44.1633 109.573 44.719C109.213 45.2747 108.647 45.6649 108 45.804L60.768 55.884C60.1205 56.0206 59.4453 55.8953 58.8899 55.5355C58.3345 55.1757 57.9441 54.6107 57.804 53.964L52.508 29.164C52.3716 28.5159 52.4974 27.8402 52.858 27.2847C53.2186 26.7292 53.7846 26.3392 54.432 26.2L101.664 16.12C102.312 15.9835 102.988 16.1094 103.543 16.47C104.099 16.8305 104.489 17.3965 104.628 18.044V18.04Z" fill="black"/>
<path d="M103.464 16.416L87.684 35.788C86.2205 37.584 84.1878 38.8267 81.922 39.3104C79.6563 39.7941 77.2933 39.4898 75.224 38.448L52.908 27.208C53.2691 26.6894 53.8139 26.3275 54.432 26.196L101.664 16.116C102.28 15.9848 102.924 16.092 103.464 16.416Z" fill="#FA1239"/>
<path d="M19.5439 38.712L94.7559 56.588L106.5 69.696L19.5439 38.712Z" fill="#FA1239"/>
<path opacity="0.6" d="M19.5439 38.712L94.7559 56.588L106.5 69.696L19.5439 38.712Z" fill="white"/>
<path d="M46.9795 55.9421L46.7773 56.2872L55.1472 61.1899L55.3493 60.8447L46.9795 55.9421Z" fill="#FA1239"/>
<path d="M59.0446 63.0062L58.8424 63.3513L61.8521 65.1143L62.0542 64.7691L59.0446 63.0062Z" fill="#FA1239"/>
<path d="M19.5439 38.712L94.7559 56.588L80.1359 74.208L19.5439 38.712Z" fill="#FA1239"/>
<path d="M120.144 80.592C120.043 80.5922 119.942 80.5732 119.848 80.536L107.6 75.688C107.404 75.6091 107.247 75.4558 107.164 75.2617C107.08 75.0676 107.077 74.8484 107.155 74.6519C107.232 74.4555 107.385 74.2977 107.578 74.213C107.772 74.1283 107.991 74.1237 108.188 74.2L120.44 79.048C120.613 79.1165 120.757 79.2434 120.847 79.4067C120.937 79.57 120.967 79.7596 120.932 79.9426C120.896 80.1257 120.799 80.2907 120.655 80.4093C120.511 80.5278 120.33 80.5924 120.144 80.592Z" fill="#FA1239"/>
<path opacity="0.3" d="M120.144 80.592C120.043 80.5922 119.942 80.5732 119.848 80.536L107.6 75.688C107.404 75.6091 107.247 75.4558 107.164 75.2617C107.08 75.0676 107.077 74.8484 107.155 74.6519C107.232 74.4555 107.385 74.2977 107.578 74.213C107.772 74.1283 107.991 74.1237 108.188 74.2L120.44 79.048C120.613 79.1165 120.757 79.2434 120.847 79.4067C120.937 79.57 120.967 79.7596 120.932 79.9426C120.896 80.1257 120.799 80.2907 120.655 80.4093C120.511 80.5278 120.33 80.5924 120.144 80.592Z" fill="black"/>
<path d="M119.42 73.568C119.32 73.5674 119.22 73.547 119.128 73.508L112.548 70.888C112.45 70.8499 112.36 70.7927 112.284 70.7197C112.207 70.6467 112.146 70.5593 112.104 70.4627C112.062 70.366 112.039 70.2619 112.037 70.1565C112.035 70.051 112.054 69.9462 112.093 69.848C112.132 69.7499 112.19 69.6604 112.263 69.5847C112.337 69.5091 112.424 69.4486 112.521 69.407C112.618 69.3654 112.722 69.3433 112.828 69.3421C112.933 69.3409 113.038 69.3606 113.136 69.4L119.716 72.008C119.913 72.0856 120.072 72.2383 120.156 72.4325C120.241 72.6267 120.245 72.8466 120.168 73.044C120.112 73.1972 120.01 73.3295 119.876 73.4232C119.742 73.5169 119.583 73.5674 119.42 73.568Z" fill="#FA1239"/>
<path opacity="0.5" d="M119.42 73.568C119.32 73.5674 119.22 73.547 119.128 73.508L112.548 70.888C112.45 70.8499 112.36 70.7927 112.284 70.7197C112.207 70.6467 112.146 70.5593 112.104 70.4627C112.062 70.366 112.039 70.2619 112.037 70.1565C112.035 70.051 112.054 69.9462 112.093 69.848C112.132 69.7499 112.19 69.6604 112.263 69.5847C112.337 69.5091 112.424 69.4486 112.521 69.407C112.618 69.3654 112.722 69.3433 112.828 69.3421C112.933 69.3409 113.038 69.3606 113.136 69.4L119.716 72.008C119.913 72.0856 120.072 72.2383 120.156 72.4325C120.241 72.6267 120.245 72.8466 120.168 73.044C120.112 73.1972 120.01 73.3295 119.876 73.4232C119.742 73.5169 119.583 73.5674 119.42 73.568Z" fill="white"/>
<path d="M105.664 80.488C105.564 80.4868 105.465 80.4679 105.372 80.432L93.424 75.688C93.3256 75.6499 93.2358 75.5927 93.1596 75.5197C93.0834 75.4467 93.0224 75.3593 92.9802 75.2627C92.9379 75.166 92.9151 75.0619 92.9132 74.9565C92.9113 74.851 92.9303 74.7461 92.9691 74.648C93.0078 74.5499 93.0656 74.4604 93.1391 74.3847C93.2126 74.309 93.3004 74.2486 93.3973 74.207C93.4942 74.1653 93.5985 74.1433 93.704 74.1421C93.8095 74.1409 93.9141 74.1606 94.012 74.2L105.96 78.928C106.133 78.9965 106.277 79.1234 106.367 79.2867C106.457 79.45 106.487 79.6396 106.452 79.8226C106.417 80.0056 106.319 80.1707 106.175 80.2893C106.031 80.4078 105.85 80.4724 105.664 80.472V80.488Z" fill="#FA1239"/>
<path opacity="0.3" d="M105.664 80.488C105.564 80.4868 105.465 80.4679 105.372 80.432L93.424 75.688C93.3256 75.6499 93.2358 75.5927 93.1596 75.5197C93.0834 75.4467 93.0224 75.3593 92.9802 75.2627C92.9379 75.166 92.9151 75.0619 92.9132 74.9565C92.9113 74.851 92.9303 74.7461 92.9691 74.648C93.0078 74.5499 93.0656 74.4604 93.1391 74.3847C93.2126 74.309 93.3004 74.2486 93.3973 74.207C93.4942 74.1653 93.5985 74.1433 93.704 74.1421C93.8095 74.1409 93.9141 74.1606 94.012 74.2L105.96 78.928C106.133 78.9965 106.277 79.1234 106.367 79.2867C106.457 79.45 106.487 79.6396 106.452 79.8226C106.417 80.0056 106.319 80.1707 106.175 80.2893C106.031 80.4078 105.85 80.4724 105.664 80.472V80.488Z" fill="black"/>
<path d="M148.92 44.416C149.98 46.484 150.952 48.556 151.876 50.676C152.8 52.796 153.66 54.944 154.412 57.196L154.684 58.048C154.732 58.2 154.8 58.448 154.84 58.624C154.88 58.8 154.916 59 154.936 59.168C155.027 59.8133 155.074 60.4642 155.076 61.116C155.082 62.3181 155.026 63.5197 154.908 64.716C154.684 67.0318 154.321 69.332 153.82 71.604L151.624 71.36C151.596 69.108 151.576 66.832 151.496 64.612C151.46 63.508 151.396 62.4 151.284 61.36C151.233 60.8716 151.153 60.3867 151.044 59.908C151.024 59.796 150.992 59.712 150.968 59.62C150.944 59.528 150.92 59.496 150.88 59.376L150.576 58.62C149.74 56.596 148.8 54.556 147.84 52.524L144.936 46.428L148.92 44.416Z" fill="#E4897B"/>
<path d="M151.656 70.656L150.632 72.572L153.904 73.484C153.904 73.484 154.528 71.944 153.784 70.728L151.656 70.656Z" fill="#E4897B"/>
<path d="M149.38 75.332L152.388 75.572L153.904 73.484L150.632 72.572L149.38 75.332Z" fill="#E4897B"/>
<path d="M135.148 30.592C135.104 30.828 134.94 30.992 134.788 30.96C134.636 30.928 134.552 30.716 134.6 30.484C134.648 30.252 134.808 30.084 134.96 30.116C135.112 30.148 135.2 30.36 135.148 30.592Z" fill="#263238"/>
<path d="M134.964 30.992C134.541 31.6464 134.031 32.2399 133.448 32.756C133.584 32.9009 133.75 33.0146 133.935 33.0891C134.119 33.1637 134.317 33.1974 134.516 33.188L134.964 30.992Z" fill="#DE5753"/>
<path d="M136.26 29.476C136.222 29.475 136.186 29.4592 136.16 29.432C136.045 29.3006 135.901 29.198 135.739 29.1327C135.577 29.0674 135.402 29.0411 135.228 29.056C135.195 29.0563 135.162 29.0449 135.137 29.0237C135.111 29.0025 135.094 28.973 135.089 28.9403C135.083 28.9077 135.089 28.8741 135.106 28.8454C135.122 28.8168 135.149 28.795 135.18 28.784C135.402 28.7558 135.628 28.7831 135.838 28.8633C136.047 28.9436 136.233 29.0743 136.38 29.244C136.405 29.2702 136.42 29.3054 136.42 29.342C136.42 29.3786 136.405 29.4138 136.38 29.44C136.364 29.4546 136.345 29.4655 136.324 29.4717C136.303 29.478 136.281 29.4794 136.26 29.476Z" fill="#263238"/>
<path d="M141.764 33.86C141.344 36.012 140.924 39.948 142.428 41.384C142.428 41.384 141.84 43.564 137.844 43.564C133.444 43.564 135.748 41.384 135.748 41.384C138.148 40.812 138.08 39.032 137.664 37.364L141.764 33.86Z" fill="#E4897B"/>
<path d="M143.032 42.74C143.348 41.688 143.696 40.484 142.976 40.104C142.176 39.704 137.828 39.264 136.328 40.044C134.828 40.824 135.256 42.964 135.256 42.964L143.032 42.74Z" fill="#263238"/>
<path d="M152.256 142.488C152.132 142.505 152.005 142.496 151.885 142.463C151.764 142.43 151.651 142.373 151.552 142.296C151.517 142.248 151.498 142.19 151.498 142.13C151.498 142.07 151.517 142.012 151.552 141.964C151.575 141.923 151.606 141.886 151.644 141.858C151.682 141.83 151.726 141.81 151.772 141.8C152.204 141.704 153.012 142.256 153.048 142.28C153.058 142.289 153.066 142.3 153.071 142.312C153.076 142.325 153.078 142.339 153.076 142.352C153.074 142.365 153.067 142.377 153.058 142.386C153.049 142.395 153.037 142.402 153.024 142.404C152.772 142.458 152.514 142.487 152.256 142.488ZM151.888 141.928H151.804C151.777 141.934 151.751 141.945 151.729 141.962C151.707 141.978 151.689 142 151.676 142.024C151.612 142.136 151.652 142.184 151.676 142.2C151.8 142.368 152.4 142.368 152.84 142.296C152.553 142.107 152.228 141.984 151.888 141.936V141.928Z" fill="#FA1239"/>
<path d="M153.008 142.416H152.976C152.672 142.248 152.084 141.616 152.144 141.28C152.154 141.228 152.182 141.181 152.223 141.148C152.264 141.114 152.315 141.096 152.368 141.096C152.421 141.09 152.474 141.095 152.525 141.11C152.575 141.125 152.623 141.15 152.664 141.184C153.004 141.464 153.064 142.312 153.064 142.348C153.065 142.361 153.063 142.373 153.058 142.385C153.052 142.396 153.043 142.406 153.032 142.412C153.024 142.415 153.016 142.416 153.008 142.416ZM152.416 141.216H152.4C152.308 141.216 152.3 141.272 152.296 141.288C152.26 141.484 152.636 141.968 152.936 142.196C152.916 141.862 152.796 141.541 152.592 141.276C152.565 141.255 152.534 141.24 152.501 141.231C152.468 141.222 152.434 141.219 152.4 141.224L152.416 141.216Z" fill="#FA1239"/>
<path d="M134.612 142.488C134.236 142.488 133.872 142.436 133.748 142.268C133.717 142.224 133.7 142.17 133.7 142.116C133.7 142.062 133.717 142.008 133.748 141.964C133.772 141.923 133.804 141.887 133.843 141.859C133.882 141.831 133.925 141.811 133.972 141.8C134.456 141.668 135.488 142.252 135.532 142.276C135.544 142.284 135.553 142.294 135.559 142.307C135.564 142.32 135.566 142.334 135.564 142.348C135.562 142.362 135.555 142.375 135.545 142.385C135.535 142.395 135.522 142.402 135.508 142.404C135.212 142.46 134.912 142.488 134.612 142.488ZM134.144 141.92C134.1 141.914 134.056 141.914 134.012 141.92C133.984 141.926 133.957 141.937 133.934 141.953C133.91 141.97 133.891 141.991 133.876 142.016C133.824 142.104 133.844 142.144 133.876 142.168C134.008 142.352 134.752 142.364 135.304 142.288C134.944 142.094 134.55 141.972 134.144 141.928V141.92Z" fill="#FA1239"/>
<path d="M135.5 142.416H135.472C135.116 142.26 134.416 141.616 134.468 141.292C134.468 141.212 134.536 141.116 134.728 141.096C134.799 141.085 134.872 141.09 134.941 141.111C135.011 141.132 135.074 141.168 135.128 141.216C135.504 141.52 135.58 142.312 135.584 142.348C135.585 142.36 135.584 142.373 135.579 142.384C135.574 142.395 135.566 142.405 135.556 142.412C135.547 142.417 135.538 142.419 135.528 142.42C135.519 142.421 135.509 142.419 135.5 142.416ZM134.784 141.216H134.74C134.616 141.216 134.608 141.28 134.604 141.296C134.572 141.496 135.052 141.996 135.404 142.212C135.369 141.876 135.229 141.56 135.004 141.308C134.947 141.259 134.875 141.229 134.8 141.224L134.784 141.216Z" fill="#FA1239"/>
<path d="M138.732 142.344H135.792L135.5 135.54H138.44L138.732 142.344Z" fill="#E4897B"/>
<path d="M156.376 142.344H153.436L151.96 135.54H154.896L156.376 142.344Z" fill="#E4897B"/>
<path d="M153.228 142.004H156.528C156.587 142.004 156.644 142.025 156.69 142.062C156.735 142.099 156.767 142.15 156.78 142.208L157.36 144.82C157.373 144.884 157.372 144.949 157.356 145.012C157.34 145.075 157.311 145.134 157.269 145.184C157.228 145.234 157.175 145.274 157.116 145.301C157.057 145.328 156.993 145.341 156.928 145.34C155.776 145.32 155.216 145.252 153.764 145.252C152.872 145.252 151.032 145.348 149.796 145.348C148.56 145.348 148.404 144.148 148.908 144.016C151.172 143.52 152.024 142.836 152.748 142.188C152.879 142.069 153.051 142.003 153.228 142.004Z" fill="#263238"/>
<path d="M135.812 142.004H139.012C139.071 142.004 139.128 142.025 139.174 142.062C139.219 142.099 139.251 142.15 139.264 142.208L139.844 144.82C139.858 144.883 139.857 144.948 139.842 145.011C139.827 145.074 139.798 145.132 139.758 145.183C139.717 145.233 139.665 145.273 139.607 145.3C139.548 145.327 139.484 145.341 139.42 145.34C138.264 145.32 136.592 145.252 135.136 145.252C133.436 145.252 131.964 145.348 129.968 145.348C128.768 145.348 128.428 144.148 128.932 144.016C131.232 143.512 133.108 143.46 135.096 142.236C135.308 142.092 135.556 142.012 135.812 142.004Z" fill="#263238"/>
<path d="M134.4 46.544C131.943 46.3536 129.498 46.0291 127.076 45.572C125.876 45.34 124.652 45.08 123.436 44.752C122.189 44.433 120.965 44.0321 119.772 43.552C119.464 43.424 119.152 43.284 118.844 43.152C118.497 42.9812 118.163 42.786 117.844 42.568C117.268 42.188 116.772 41.792 116.28 41.4C115.3 40.6 114.392 39.8 113.48 38.98C111.692 37.324 109.996 35.612 108.36 33.812L109.832 32.168L115.636 36.34C116.592 37.028 117.56 37.704 118.512 38.34C118.984 38.656 119.468 38.952 119.912 39.204C120.098 39.3099 120.29 39.4034 120.488 39.484C120.724 39.576 120.964 39.668 121.216 39.756C123.378 40.4217 125.589 40.9165 127.828 41.236C130.112 41.596 132.472 41.892 134.752 42.132L134.4 46.544Z" fill="#E4897B"/>
<path d="M147.688 42.048C150.444 42.68 153.228 50.732 153.228 50.732L147.56 54.8C147.56 54.8 145.96 51.048 144.416 47.768C142.8 44.332 144.872 41.404 147.688 42.048Z" fill="#FA1239"/>
<path opacity="0.4" d="M147.688 42.048C150.444 42.68 153.228 50.732 153.228 50.732L147.56 54.8C147.56 54.8 145.96 51.048 144.416 47.768C142.8 44.332 144.872 41.404 147.688 42.048Z" fill="black"/>
<path d="M146.1 46.448L144.976 48.964C146.14 51.476 147.204 53.964 147.488 54.628C147.448 51.656 146.884 47.968 146.1 46.448Z" fill="#FA1239"/>
<path opacity="0.6" d="M146.1 46.448L144.976 48.964C146.14 51.476 147.204 53.964 147.488 54.628C147.448 51.656 146.884 47.968 146.1 46.448Z" fill="black"/>
<path d="M131.228 42.2C131.228 42.2 128.1 45.732 131.052 67.6H146.768C146.88 65.2 145.364 53.416 147.688 42.048C145.951 41.7135 144.194 41.4917 142.428 41.384C140.203 41.2559 137.973 41.2559 135.748 41.384C134.222 41.5377 132.711 41.8105 131.228 42.2Z" fill="#FA1239"/>
<path opacity="0.4" d="M131.228 42.2C131.228 42.2 128.1 45.732 131.052 67.6H146.768C146.88 65.2 145.364 53.416 147.688 42.048C145.951 41.7135 144.194 41.4917 142.428 41.384C140.203 41.2559 137.973 41.2559 135.748 41.384C134.222 41.5377 132.711 41.8105 131.228 42.2Z" fill="black"/>
<path d="M130.064 46.448C129.96 47.276 129.88 48.256 129.828 49.412C131.38 48.9462 132.855 48.2533 134.204 47.356L130.064 46.448Z" fill="#FA1239"/>
<path opacity="0.6" d="M130.064 46.448C129.96 47.276 129.88 48.256 129.828 49.412C131.38 48.9462 132.855 48.2533 134.204 47.356L130.064 46.448Z" fill="black"/>
<path d="M136.8 46.888C134.696 48.752 126.664 48.564 126.664 48.564L126.4 40.788C129.112 41.1743 131.848 41.3721 134.588 41.38C139.064 41.288 139.096 44.832 136.8 46.888Z" fill="#FA1239"/>
<path opacity="0.4" d="M136.8 46.888C134.696 48.752 126.664 48.564 126.664 48.564L126.4 40.788C129.112 41.1743 131.848 41.3721 134.588 41.38C139.064 41.288 139.096 44.832 136.8 46.888Z" fill="black"/>
<path d="M109.908 32.184L107.908 29.828L105.752 32.228C105.752 32.228 107.08 34.46 109.188 34.108L109.908 32.184Z" fill="#E4897B"/>
<path d="M105.044 27.08L104.268 30.156L105.736 32.212L107.892 29.828L105.044 27.08Z" fill="#E4897B"/>
<path d="M135.5 135.544L135.652 139.048H138.592L138.44 135.544H135.5Z" fill="#CE6F64"/>
<path d="M154.9 135.544H151.96L152.72 139.048H155.66L154.9 135.544Z" fill="#CE6F64"/>
<path d="M137.268 27.688C134.632 26.488 133.8 21.156 141.384 22.488C141.384 22.488 140.24 23.752 142.56 24.552C144.88 25.352 142.94 30.292 137.268 27.688Z" fill="#263238"/>
<path d="M142.996 31.688C142.24 34.488 141.944 36.192 140.196 37.364C137.58 39.124 134.328 37.104 134.224 34.116C134.132 31.432 135.384 27.276 138.404 26.708C139.071 26.5773 139.76 26.6196 140.405 26.8308C141.051 27.0419 141.631 27.415 142.092 27.9144C142.552 28.4138 142.877 29.0228 143.036 29.6834C143.194 30.344 143.18 31.0342 142.996 31.688Z" fill="#E4897B"/>
<path d="M141.28 23.888C143.076 24.888 145.508 25.488 145.28 26.912C144.98 28.652 146.748 27.564 146.336 30.152C146.068 31.844 142.948 36.972 140.736 36.724C137.432 36.324 137.852 31.3 137.84 28.652C137.832 27.088 137.76 21.916 141.28 23.888Z" fill="#263238"/>
<path d="M137.444 26.132C136.644 26.32 135.584 30.932 138.684 31.356C142.248 31.84 137.444 26.132 137.444 26.132Z" fill="#263238"/>
<path d="M137.524 27.768C136.544 27.856 134.324 26.676 134.596 24.9C134.596 24.888 136 26.976 137.524 27.768Z" fill="#263238"/>
<path d="M138.98 31.724C138.679 32.3835 138.169 32.925 137.528 33.264C136.684 33.704 136.208 33.064 136.4 32.216C136.572 31.456 137.22 30.308 138.088 30.216C138.956 30.124 139.328 30.924 138.98 31.724Z" fill="#E4897B"/>
<path d="M143.38 28.488C143.978 28.2286 144.502 27.825 144.905 27.3133C145.309 26.8016 145.579 26.1978 145.692 25.556C145.692 25.556 147.012 29.224 143.38 28.488Z" fill="#263238"/>
<path d="M146.716 28.428C146.437 28.241 146.117 28.126 145.783 28.0932C145.45 28.0604 145.113 28.1108 144.804 28.24C144.804 28.24 146.036 26.644 146.716 28.428Z" fill="#263238"/>
<path d="M136.628 67.6C136.628 67.6 139.964 90.056 141.792 98.468C143.792 107.668 151.352 138.372 151.352 138.372H156.732C156.732 138.372 151.752 108.424 150.608 99.288C149.368 89.388 146.768 67.584 146.768 67.584L136.628 67.6Z" fill="#FA1239"/>
<path opacity="0.5" d="M136.628 67.6C136.628 67.6 139.964 90.056 141.792 98.468C143.792 107.668 151.352 138.372 151.352 138.372H156.732C156.732 138.372 151.752 108.424 150.608 99.288C149.368 89.388 146.768 67.584 146.768 67.584L136.628 67.6Z" fill="white"/>
<path d="M150.492 136.388C150.468 136.388 151.048 138.456 151.048 138.456H157.104L156.992 136.612L150.492 136.388Z" fill="#FA1239"/>
<path opacity="0.1" d="M150.492 136.388C150.468 136.388 151.048 138.456 151.048 138.456H157.104L156.992 136.612L150.492 136.388Z" fill="black"/>
<path d="M138.736 75.6C142.592 76.356 142.184 90.736 141.72 98.132C140.608 92.904 138.98 82.844 137.868 75.704C138.137 75.5714 138.443 75.5347 138.736 75.6Z" fill="#FA1239"/>
<path opacity="0.4" d="M138.736 75.6C142.592 76.356 142.184 90.736 141.72 98.132C140.608 92.904 138.98 82.844 137.868 75.704C138.137 75.5714 138.443 75.5347 138.736 75.6Z" fill="white"/>
<path d="M131.052 67.6C131.052 67.6 130.652 89.568 130.968 98.532C131.3 107.852 134.568 138.372 134.568 138.372H139.544C139.544 138.372 139.728 108.396 139.944 99.244C140.188 89.264 141.392 67.6 141.392 67.6H131.052Z" fill="#FA1239"/>
<path opacity="0.5" d="M131.052 67.6C131.052 67.6 130.652 89.568 130.968 98.532C131.3 107.852 134.568 138.372 134.568 138.372H139.544C139.544 138.372 139.728 108.396 139.944 99.244C140.188 89.264 141.392 67.6 141.392 67.6H131.052Z" fill="white"/>
<path d="M135.6 134.796C135.588 134.796 135.576 134.792 135.567 134.783C135.558 134.775 135.553 134.764 135.552 134.752C134.672 126.304 132.604 105.864 132.352 98.532C132.084 91.048 132.328 74.256 132.408 69.288C132.408 69.2753 132.413 69.263 132.422 69.254C132.431 69.245 132.443 69.24 132.456 69.24C132.469 69.24 132.482 69.2449 132.491 69.2538C132.501 69.2627 132.507 69.2749 132.508 69.288C132.428 74.256 132.184 91.048 132.452 98.528C132.712 105.86 134.78 126.292 135.652 134.74C135.652 134.754 135.647 134.767 135.639 134.777C135.63 134.787 135.617 134.794 135.604 134.796H135.6Z" fill="#FA1239"/>
<path opacity="0.4" d="M135.6 134.796C135.588 134.796 135.576 134.792 135.567 134.783C135.558 134.775 135.553 134.764 135.552 134.752C134.672 126.304 132.604 105.864 132.352 98.532C132.084 91.048 132.328 74.256 132.408 69.288C132.408 69.2753 132.413 69.263 132.422 69.254C132.431 69.245 132.443 69.24 132.456 69.24C132.469 69.24 132.482 69.2449 132.491 69.2538C132.501 69.2627 132.507 69.2749 132.508 69.288C132.428 74.256 132.184 91.048 132.452 98.528C132.712 105.86 134.78 126.292 135.652 134.74C135.652 134.754 135.647 134.767 135.639 134.777C135.63 134.787 135.617 134.794 135.604 134.796H135.6Z" fill="white"/>
<path d="M133.6 136.388C133.58 136.388 133.884 138.456 133.884 138.456H139.936L140.1 136.612L133.6 136.388Z" fill="#FA1239"/>
<path opacity="0.1" d="M133.6 136.388C133.58 136.388 133.884 138.456 133.884 138.456H139.936L140.1 136.612L133.6 136.388Z" fill="black"/>
</svg>
