<svg width="200" height="150" viewBox="0 0 200 150" fill="none" xmlns="http://www.w3.org/2000/svg">
<path d="M200 131.448H0V131.548H200V131.448Z" fill="#EBEBEB"/>
<path d="M179.96 137.884H166.712V137.984H179.96V137.884Z" fill="#EBEBEB"/>
<path d="M161.676 137.884H133.352V137.984H161.676V137.884Z" fill="#EBEBEB"/>
<path d="M117.732 134.172H110.056V134.272H117.732V134.172Z" fill="#EBEBEB"/>
<path d="M34.7 134.844H20.984V134.944H34.7V134.844Z" fill="#EBEBEB"/>
<path d="M63.2 134.844H38.26V134.944H63.2V134.844Z" fill="#EBEBEB"/>
<path d="M90.056 136.532H75.332V136.632H90.056V136.532Z" fill="#EBEBEB"/>
<path d="M94.8 113.608H17.564C16.9589 113.607 16.379 113.366 15.9515 112.938C15.5241 112.509 15.284 111.929 15.284 111.324V2.75198C15.2892 2.15039 15.5317 1.57517 15.9586 1.15126C16.3855 0.727359 16.9624 0.489007 17.564 0.487976H94.8C95.4057 0.487976 95.9867 0.728611 96.415 1.15694C96.8433 1.58528 97.084 2.16622 97.084 2.77198V111.324C97.084 111.93 96.8433 112.511 96.415 112.939C95.9867 113.367 95.4057 113.608 94.8 113.608ZM17.564 0.567976C16.9854 0.569036 16.431 0.799602 16.0222 1.20907C15.6135 1.61853 15.384 2.17344 15.384 2.75198V111.324C15.384 111.903 15.6135 112.457 16.0222 112.867C16.431 113.276 16.9854 113.507 17.564 113.508H94.8C95.3789 113.507 95.9338 113.276 96.3431 112.867C96.7525 112.458 96.9829 111.903 96.984 111.324V2.75198C96.9829 2.17307 96.7525 1.61817 96.3431 1.20882C95.9338 0.799472 95.3789 0.569034 94.8 0.567976H17.564Z" fill="#EBEBEB"/>
<path d="M181.324 113.608H104.084C103.479 113.607 102.898 113.366 102.47 112.938C102.042 112.51 101.801 111.929 101.8 111.324V2.75198C101.806 2.15002 102.05 1.57481 102.477 1.15101C102.905 0.72722 103.482 0.488995 104.084 0.487976H181.324C181.925 0.490058 182.501 0.728876 182.927 1.15267C183.353 1.57646 183.595 2.15108 183.6 2.75198V111.324C183.6 111.928 183.36 112.508 182.934 112.936C182.507 113.364 181.928 113.606 181.324 113.608ZM104.084 0.567976C103.505 0.569034 102.95 0.799472 102.541 1.20882C102.131 1.61817 101.901 2.17307 101.9 2.75198V111.324C101.901 111.903 102.131 112.458 102.541 112.867C102.95 113.276 103.505 113.507 104.084 113.508H181.324C181.903 113.507 182.458 113.276 182.867 112.867C183.277 112.458 183.507 111.903 183.508 111.324V2.75198C183.507 2.17307 183.277 1.61817 182.867 1.20882C182.458 0.799472 181.903 0.569034 181.324 0.567976H104.084Z" fill="#EBEBEB"/>
<path d="M63.4959 14.436H24.8199V121.116H63.4959V14.436Z" fill="#F5F5F5"/>
<path d="M63.4961 121.12H63.8881L63.8881 14.44H63.4961L63.4961 121.12Z" fill="#EBEBEB"/>
<path d="M59.764 18.508H28.552V117.048H59.764V18.508Z" fill="white"/>
<path d="M80.0759 77.584L171.312 77.584V9.79597L80.0759 9.79597L80.0759 77.584Z" fill="#E6E6E6"/>
<path d="M78.664 77.584L169.9 77.584V9.79597L78.664 9.79597L78.664 77.584Z" fill="#F5F5F5"/>
<path d="M167.364 74.74V12.644L81.1961 12.644V74.74H167.364Z" fill="white"/>
<path d="M82.26 74.736V12.64H81.192V74.736H82.26Z" fill="#E6E6E6"/>
<path d="M79.7081 61.472L168.848 61.472V57.648L79.7081 57.648V61.472Z" fill="#F5F5F5"/>
<g opacity="0.4">
<path d="M84.444 6.79998H75.832V28.588H84.444V6.79998Z" fill="#E6E6E6"/>
<path d="M84.444 26.836H88.716V6.79996H84.444V26.836Z" fill="#F5F5F5"/>
<path d="M97.328 6.79996H88.716V28.588H97.328V6.79996Z" fill="#E6E6E6"/>
<path d="M97.328 26.836H101.6V6.79996H97.328V26.836Z" fill="#F5F5F5"/>
<path d="M110.212 6.79996H101.6V28.588H110.212V6.79996Z" fill="#E6E6E6"/>
<path d="M110.212 26.836H114.484V6.79996H110.212V26.836Z" fill="#F5F5F5"/>
<path d="M123.096 6.79996H114.484V28.588H123.096V6.79996Z" fill="#E6E6E6"/>
<path d="M123.096 26.836H127.368V6.79996H123.096V26.836Z" fill="#F5F5F5"/>
<path d="M135.98 6.79996H127.368V28.588H135.98V6.79996Z" fill="#E6E6E6"/>
<path d="M135.98 26.836H140.252V6.79996H135.98V26.836Z" fill="#F5F5F5"/>
<path d="M148.864 6.79996H140.252V28.588H148.864V6.79996Z" fill="#E6E6E6"/>
<path d="M148.864 26.836H153.136V6.79996H148.864V26.836Z" fill="#F5F5F5"/>
<path d="M161.748 6.79996H153.136V28.588H161.748V6.79996Z" fill="#E6E6E6"/>
<path d="M161.748 26.836H166.02V6.79996H161.748V26.836Z" fill="#F5F5F5"/>
<path d="M174.632 6.79996H166.02V28.588H174.632V6.79996Z" fill="#E6E6E6"/>
</g>
<path d="M81.484 131.448H92.16V91.688H81.484V131.448Z" fill="#E6E6E6"/>
<path d="M83.2641 131.448H81.4881V127.868H85.1281L83.2641 131.448Z" fill="#F0F0F0"/>
<path d="M158.304 131.448H168.98V91.688H158.304V131.448Z" fill="#E6E6E6"/>
<path d="M81.488 130.072H159.852V91.688H81.488V130.072Z" fill="#F0F0F0"/>
<path d="M82.868 103.916L158.476 103.916V93.388L82.868 93.388V103.916Z" fill="#E6E6E6"/>
<path d="M102 96.66H139.356C141.088 96.66 142.748 95.36 143.94 93.06H97.408C98.6 95.36 100.256 96.66 102 96.66Z" fill="#F0F0F0"/>
<path d="M158.076 131.448H159.852V127.868H156.212L158.076 131.448Z" fill="#F0F0F0"/>
<path d="M82.868 116.144L158.476 116.144V105.616L82.868 105.616V116.144Z" fill="#E6E6E6"/>
<path d="M102 108.888H139.356C141.088 108.888 142.748 107.592 143.94 105.288H97.408C98.6 107.592 100.256 108.888 102 108.888Z" fill="#F0F0F0"/>
<path d="M82.868 128.372H158.476V117.844L82.868 117.844V128.372Z" fill="#E6E6E6"/>
<path d="M102 121.116H139.356C141.088 121.116 142.748 119.82 143.94 117.516H97.408C98.6 119.82 100.256 121.116 102 121.116Z" fill="#F0F0F0"/>
<path d="M99.9999 149.512C142.833 149.512 177.556 147.485 177.556 144.984C177.556 142.483 142.833 140.456 99.9999 140.456C57.167 140.456 22.4439 142.483 22.4439 144.984C22.4439 147.485 57.167 149.512 99.9999 149.512Z" fill="#F5F5F5"/>
<path d="M147.952 142.7H147.524C147.435 142.693 147.351 142.654 147.288 142.59C147.226 142.526 147.189 142.441 147.184 142.352L144.552 124.024H146.552L148.296 142.232C148.306 142.285 148.304 142.34 148.292 142.393C148.28 142.446 148.257 142.496 148.225 142.54C148.193 142.584 148.152 142.621 148.105 142.648C148.058 142.676 148.006 142.693 147.952 142.7Z" fill="#FF657E"/>
<path opacity="0.3" d="M147.952 142.7H147.524C147.435 142.693 147.351 142.654 147.288 142.59C147.226 142.526 147.189 142.441 147.184 142.352L144.552 124.024H146.552L148.296 142.232C148.306 142.285 148.304 142.34 148.292 142.393C148.28 142.446 148.257 142.496 148.225 142.54C148.193 142.584 148.152 142.621 148.105 142.648C148.058 142.676 148.006 142.693 147.952 142.7Z" fill="black"/>
<path d="M153.44 142.7H153.012C152.923 142.693 152.839 142.654 152.776 142.59C152.714 142.526 152.677 142.441 152.672 142.352L150.04 124.024H152.04L153.788 142.232C153.798 142.286 153.796 142.341 153.784 142.394C153.771 142.447 153.748 142.497 153.715 142.541C153.683 142.585 153.641 142.622 153.594 142.649C153.547 142.676 153.494 142.694 153.44 142.7Z" fill="#FF657E"/>
<path opacity="0.3" d="M153.44 142.7H153.012C152.923 142.693 152.839 142.654 152.776 142.59C152.714 142.526 152.677 142.441 152.672 142.352L150.04 124.024H152.04L153.788 142.232C153.798 142.286 153.796 142.341 153.784 142.394C153.771 142.447 153.748 142.497 153.715 142.541C153.683 142.585 153.641 142.622 153.594 142.649C153.547 142.676 153.494 142.694 153.44 142.7Z" fill="black"/>
<path d="M122.864 142.7H123.292C123.381 142.693 123.465 142.654 123.528 142.59C123.59 142.526 123.628 142.441 123.632 142.352L126.264 124.024H124.264L122.52 142.232C122.51 142.285 122.512 142.34 122.524 142.393C122.536 142.446 122.559 142.496 122.591 142.54C122.624 142.584 122.664 142.621 122.711 142.648C122.758 142.676 122.81 142.693 122.864 142.7Z" fill="#FF657E"/>
<path opacity="0.3" d="M122.864 142.7H123.292C123.381 142.693 123.465 142.654 123.528 142.59C123.59 142.526 123.628 142.441 123.632 142.352L126.264 124.024H124.264L122.52 142.232C122.51 142.285 122.512 142.34 122.524 142.393C122.536 142.446 122.559 142.496 122.591 142.54C122.624 142.584 122.664 142.621 122.711 142.648C122.758 142.676 122.81 142.693 122.864 142.7Z" fill="black"/>
<path d="M117.376 142.7H117.804C117.893 142.693 117.977 142.654 118.04 142.59C118.102 142.526 118.139 142.441 118.144 142.352L120.776 124.024H118.776L117.032 142.232C117.022 142.285 117.024 142.34 117.036 142.393C117.048 142.446 117.071 142.496 117.103 142.54C117.136 142.584 117.176 142.621 117.223 142.648C117.27 142.676 117.322 142.693 117.376 142.7Z" fill="#FF657E"/>
<path opacity="0.3" d="M117.376 142.7H117.804C117.893 142.693 117.977 142.654 118.04 142.59C118.102 142.526 118.139 142.441 118.144 142.352L120.776 124.024H118.776L117.032 142.232C117.022 142.285 117.024 142.34 117.036 142.393C117.048 142.446 117.071 142.496 117.103 142.54C117.136 142.584 117.176 142.621 117.223 142.648C117.27 142.676 117.322 142.693 117.376 142.7Z" fill="black"/>
<path d="M110.264 102.292H123.736C126.136 93.992 134.728 87.444 143.536 87.444H147.912C157.112 87.444 163.08 94.616 161.2 103.468C160.849 105.096 160.271 106.668 159.484 108.136L157.36 121.012C157.088 122.676 155.76 124.024 154.4 124.024H113.848C112.488 124.024 111.16 122.676 110.888 121.012L108.296 105.288C108.02 103.64 108.904 102.292 110.264 102.292Z" fill="#FF657E"/>
<path opacity="0.5" d="M110.264 102.292H123.736C126.136 93.992 134.728 87.444 143.536 87.444H147.912C157.112 87.444 163.08 94.616 161.2 103.468C160.849 105.096 160.271 106.668 159.484 108.136L157.36 121.012C157.088 122.676 155.76 124.024 154.4 124.024H113.848C112.488 124.024 111.16 122.676 110.888 121.012L108.296 105.288C108.02 103.64 108.904 102.292 110.264 102.292Z" fill="white"/>
<path d="M106.892 137.96L110.228 139.488C110.285 139.512 110.33 139.557 110.354 139.614C110.378 139.671 110.379 139.735 110.356 139.792L109.304 142.508C109.241 142.647 109.126 142.755 108.983 142.809C108.841 142.863 108.683 142.858 108.544 142.796C107.392 142.244 106.868 141.92 105.4 141.248C103.848 140.481 102.349 139.613 100.912 138.648C99.824 137.848 100.624 136.768 101.164 137.008C103.604 138.084 105.164 138.18 106.296 137.908C106.495 137.856 106.705 137.875 106.892 137.96Z" fill="#263238"/>
<path d="M130.552 97.06C130.552 97.06 109.22 97.324 108.888 105.732C108.416 117.82 106.632 137.888 106.632 137.888L110.232 139.488C110.232 139.488 116.536 119.352 116.76 109.912C122.76 108.424 138.188 109.912 140 105.008C140.888 102.457 141.123 99.7248 140.684 97.06H130.552Z" fill="#FF657E"/>
<path opacity="0.2" d="M130.552 97.06C130.552 97.06 109.22 97.324 108.888 105.732C108.416 117.82 106.632 137.888 106.632 137.888L110.232 139.488C110.232 139.488 116.536 119.352 116.76 109.912C122.76 108.424 138.188 109.912 140 105.008C140.888 102.457 141.123 99.7248 140.684 97.06H130.552Z" fill="black"/>
<path d="M135.092 74.936C134.904 75.712 134.716 76.412 134.504 77.14C134.292 77.868 134.072 78.576 133.84 79.288C133.372 80.712 132.856 82.128 132.264 83.528C131.671 84.9591 130.983 86.3489 130.204 87.688C129.795 88.396 129.344 89.0785 128.852 89.732C128.311 90.4555 127.686 91.1133 126.992 91.692L126.932 91.744L126.804 91.84C126.4 92.1037 125.94 92.2681 125.46 92.32C125.159 92.3568 124.854 92.3568 124.552 92.32C124.133 92.2685 123.721 92.1692 123.324 92.024C122.709 91.8022 122.111 91.5348 121.536 91.224C120.51 90.653 119.517 90.0226 118.564 89.336C117.636 88.668 116.74 87.976 115.868 87.256C114.996 86.536 114.16 85.8 113.332 85.008C113.12 84.8017 112.989 84.5255 112.965 84.2304C112.941 83.9354 113.024 83.6415 113.2 83.4032C113.376 83.165 113.632 82.9985 113.921 82.9347C114.21 82.8708 114.512 82.9139 114.772 83.056H114.792C115.736 83.58 116.688 84.136 117.644 84.656C118.6 85.176 119.544 85.7 120.492 86.188C121.44 86.676 122.392 87.14 123.292 87.516C123.705 87.692 124.132 87.8339 124.568 87.94C124.698 87.9787 124.833 87.9962 124.968 87.992C124.996 87.992 124.968 87.992 124.884 87.992C124.68 88.0153 124.485 88.0881 124.316 88.204L124.124 88.348C124.518 87.9645 124.866 87.5363 125.16 87.072C125.511 86.5447 125.833 85.9986 126.124 85.436C126.737 84.2286 127.286 82.9895 127.768 81.724C128.26 80.436 128.72 79.116 129.148 77.78C129.576 76.444 129.976 75.072 130.348 73.78V73.732C130.518 73.1117 130.925 72.5831 131.481 72.2606C132.038 71.938 132.699 71.8473 133.321 72.0081C133.944 72.1689 134.478 72.5682 134.809 73.1198C135.14 73.6715 135.24 74.331 135.088 74.956L135.092 74.936Z" fill="#263238"/>
<path d="M126.444 139.688H130.444C130.477 139.686 130.511 139.691 130.542 139.703C130.574 139.714 130.603 139.732 130.627 139.755C130.652 139.777 130.672 139.805 130.685 139.835C130.699 139.866 130.707 139.899 130.708 139.932L130.904 143.096C130.904 143.263 130.839 143.423 130.722 143.541C130.605 143.66 130.447 143.729 130.28 143.732C128.888 143.708 128.22 143.624 126.46 143.624C125.38 143.624 123.196 143.736 121.7 143.736C120.204 143.736 120.248 142.26 120.88 142.136C123.724 141.536 124.824 140.708 125.828 139.916C126.003 139.775 126.219 139.695 126.444 139.688Z" fill="#263238"/>
<path d="M136.3 97.06C136.3 97.06 116.952 98.692 117.428 107.096C117.948 116.296 126.444 139.696 126.444 139.696H130.356C130.356 139.696 127.008 118.268 125.828 108.896C131.284 108.896 143.932 109.92 145.748 105.004C146.636 102.453 146.87 99.7205 146.428 97.056L136.3 97.06Z" fill="#FF657E"/>
<path d="M115.072 83.448C114.77 82.9564 114.404 82.5071 113.984 82.112C113.184 82.856 112.748 85.02 112.748 85.02L113.84 85.116C113.84 85.116 115.096 84.708 115.072 83.448Z" fill="#FF657E"/>
<path d="M111.056 81.504L109.812 80.964C109.65 80.8941 109.469 80.8852 109.301 80.9389C109.134 80.9926 108.991 81.1052 108.9 81.256L108.308 82.2319C108.226 82.3694 108.192 82.5299 108.21 82.6888C108.228 82.8477 108.298 82.9963 108.408 83.1119L110.116 84.892L112.964 84.7759C113.125 84.7705 113.281 84.722 113.417 84.6354C113.553 84.5489 113.663 84.4275 113.736 84.2839L114.064 83.64C114.167 83.4461 114.195 83.221 114.143 83.0077C114.091 82.7943 113.961 82.6079 113.78 82.4839C112.856 81.8759 111.056 81.504 111.056 81.504Z" fill="#FFC3BD"/>
<path d="M130.368 74.116C129.8 77.716 129.06 85.488 130.568 97.208L146.428 97.06C146.332 88.936 147.604 81.312 148.848 73.86C148.897 73.5673 148.888 73.2678 148.819 72.9791C148.75 72.6904 148.624 72.4184 148.449 72.1793C148.273 71.9401 148.051 71.7387 147.796 71.587C147.541 71.4353 147.258 71.3363 146.964 71.296C142.416 70.764 137.821 70.764 133.272 71.296C132.55 71.3945 131.879 71.7214 131.357 72.2288C130.834 72.7362 130.488 73.3975 130.368 74.116Z" fill="#263238"/>
<path d="M148.992 72.848C149.46 74.004 149.832 75.112 150.216 76.256C150.6 77.4 150.928 78.548 151.244 79.712C151.56 80.876 151.836 82.064 152.044 83.276C152.286 84.5136 152.448 85.7655 152.528 87.024C152.552 87.348 152.556 87.684 152.56 88.02V88.532C152.554 89.0576 152.417 89.5733 152.16 90.032C151.989 90.3299 151.764 90.5931 151.496 90.808C151.371 90.908 151.237 90.9964 151.096 91.072C150.968 91.1425 150.834 91.2014 150.696 91.248C150.32 91.3878 149.921 91.4583 149.52 91.456C149.046 91.4451 148.575 91.3711 148.12 91.236C147.455 91.0358 146.807 90.7803 146.184 90.472C145.604 90.184 145.06 89.884 144.528 89.572C142.46 88.337 140.497 86.9336 138.66 85.376C138.429 85.1864 138.276 84.9185 138.229 84.6233C138.182 84.3281 138.246 84.026 138.407 83.7743C138.568 83.5227 138.816 83.3391 139.104 83.2583C139.392 83.1775 139.699 83.2051 139.968 83.336H139.996C142.064 84.32 144.168 85.336 146.216 86.18C146.728 86.388 147.236 86.58 147.736 86.752C148.179 86.9149 148.636 87.0393 149.1 87.124C149.284 87.156 149.448 87.152 149.428 87.124C149.32 87.1138 149.21 87.1332 149.112 87.18C149.049 87.2042 148.988 87.2322 148.928 87.264C148.852 87.3049 148.779 87.3531 148.712 87.408C148.554 87.5314 148.418 87.6817 148.312 87.852C148.192 88.0512 148.121 88.276 148.104 88.508L148.084 88.144C148.06 87.896 148.04 87.652 148.004 87.396C147.671 85.2273 147.171 83.0876 146.508 80.996C145.868 78.848 145.132 76.656 144.384 74.572V74.552C144.177 73.9513 144.212 73.2938 144.481 72.7183C144.751 72.1429 145.233 71.6946 145.826 71.4682C146.42 71.2418 147.078 71.255 147.662 71.505C148.246 71.755 148.71 72.2222 148.956 72.808L148.992 72.848Z" fill="#263238"/>
<path d="M142.652 63.252L140.736 64.852L138.12 67.024C138.201 67.3703 138.257 67.7218 138.288 68.076C138.412 69.34 138.136 70.5 136.604 71.088C136.313 71.1834 136.047 71.3444 135.828 71.5587C135.609 71.773 135.442 72.0349 135.34 72.324C135.132 72.992 135.376 73.74 137.48 73.74C140.572 73.74 142.184 72.364 142.792 71.688C142.874 71.5941 142.921 71.4752 142.926 71.3509C142.931 71.2266 142.894 71.1042 142.82 71.004C141.6 69.26 142.152 65.42 142.652 63.252Z" fill="#FFC3BD"/>
<path d="M137.404 73.052C137.539 73.2074 137.631 73.3947 137.672 73.596C137.831 73.3809 138.027 73.1965 138.252 73.052C138.518 73.177 138.755 73.3573 138.946 73.5807C139.137 73.8042 139.278 74.0657 139.36 74.348C138.777 74.2285 138.216 74.0208 137.696 73.732C137.353 73.9221 136.974 74.0392 136.584 74.076C136.608 73.384 137.404 73.052 137.404 73.052Z" fill="#FF657E"/>
<path d="M138.252 73.0519C138.807 73.7206 139.173 74.5259 139.312 75.3839C139.312 75.3839 144.432 74.1039 144.192 70.7639C143.742 70.5514 143.264 70.4046 142.772 70.3279C142.772 70.3279 141.672 72.3279 138.252 73.0519Z" fill="#FF657E"/>
<path d="M137.404 73.052C136.844 73.7259 136.457 74.5264 136.276 75.384C136.276 75.384 133.652 72.984 136.208 70.792C136.649 70.6516 137.104 70.5565 137.564 70.508C137.564 70.508 135.864 71.888 137.404 73.052Z" fill="#FF657E"/>
<path opacity="0.2" d="M138.12 67.012C138.2 67.3597 138.257 67.7125 138.288 68.068C139.264 67.872 140.564 66.836 140.688 65.84C140.736 65.5103 140.748 65.1763 140.724 64.844L138.12 67.012Z" fill="black"/>
<path d="M135.32 56.364C132.92 58.072 134.256 62.076 136.312 60.544C138.368 59.012 137.28 54.972 135.32 56.364Z" fill="#263238"/>
<path d="M143.444 59.932C142.776 62.996 142.544 64.82 140.732 66.22C140.148 66.6809 139.45 66.9736 138.712 67.0663C137.974 67.1589 137.225 67.0481 136.545 66.7458C135.866 66.4436 135.282 65.9613 134.856 65.3511C134.431 64.7409 134.181 64.0261 134.132 63.284C133.892 60.428 135.024 55.892 138.248 55.024C138.942 54.8171 139.678 54.7964 140.383 54.964C141.087 55.1317 141.735 55.4817 142.262 55.979C142.788 56.4763 143.175 57.1034 143.382 57.7972C143.59 58.4911 143.611 59.2273 143.444 59.932Z" fill="#FFC3BD"/>
<path d="M142.024 57.656C140.324 57.188 135.94 58.304 134.384 56.644C132.716 54.864 135.148 53.996 135.868 54.616C134.96 53.576 135.296 52.464 136.584 52.564C137.524 52.636 137.82 53.676 137.82 53.676C137.82 53.676 137.664 51.856 139.28 51.984C140.744 52.096 140.748 54.072 140.748 54.072C140.748 54.072 144.244 53.084 145.412 56.42C147.612 56.372 147.564 61.004 143.136 62.652C141.34 61.764 141.256 58.604 142.024 57.656Z" fill="#263238"/>
<path d="M144.94 57.088C144.825 57.095 144.711 57.0568 144.624 56.9815C144.536 56.9063 144.481 56.7998 144.471 56.6848C144.46 56.5698 144.495 56.4552 144.568 56.3655C144.641 56.2757 144.745 56.2178 144.86 56.204C144.98 56.1279 145.072 56.0139 145.12 55.88C145.184 55.7519 145.222 55.6121 145.23 55.4689C145.238 55.3258 145.217 55.1826 145.168 55.048C145.134 54.9945 145.113 54.9345 145.104 54.8719C145.096 54.8093 145.1 54.7457 145.119 54.6852C145.137 54.6246 145.167 54.5687 145.209 54.521C145.25 54.4733 145.301 54.435 145.358 54.4086C145.416 54.3822 145.478 54.3683 145.541 54.368C145.604 54.3676 145.667 54.3807 145.725 54.4063C145.782 54.432 145.834 54.4697 145.876 54.5169C145.918 54.5641 145.949 54.6197 145.968 54.68C146.077 54.9477 146.124 55.2363 146.108 55.5248C146.091 55.8133 146.011 56.0945 145.872 56.348C145.794 56.5273 145.675 56.6864 145.526 56.8133C145.377 56.9401 145.202 57.0313 145.012 57.08C144.988 57.086 144.964 57.0887 144.94 57.088Z" fill="#263238"/>
<path d="M143.944 62.7759C143.528 63.3161 142.929 63.6859 142.26 63.8159C141.392 63.9719 141.128 63.1719 141.512 62.3999C141.856 61.6999 142.712 60.7799 143.512 60.9799C144.312 61.1799 144.456 62.0879 143.944 62.7759Z" fill="#FFC3BD"/>
<path d="M138.192 60.212C138.152 60.464 137.988 60.652 137.824 60.632C137.66 60.612 137.556 60.392 137.592 60.14C137.628 59.888 137.796 59.7 137.964 59.74C138.132 59.78 138.228 59.96 138.192 60.212Z" fill="#263238"/>
<path d="M135.336 59.872C135.296 60.124 135.132 60.312 134.968 60.272C134.804 60.232 134.7 60.0319 134.736 59.7799C134.772 59.5279 134.94 59.3399 135.108 59.3599C135.276 59.3799 135.376 59.62 135.336 59.872Z" fill="#263238"/>
<path d="M136.208 59.972C135.89 60.6214 135.486 61.2254 135.008 61.768C135.15 61.8812 135.315 61.9617 135.491 62.0039C135.667 62.0461 135.851 62.0488 136.028 62.012L136.208 59.972Z" fill="#ED847E"/>
<path d="M137.2 63.308C137.497 63.3119 137.792 63.2558 138.067 63.1431C138.342 63.0304 138.591 62.8633 138.8 62.652C138.81 62.6367 138.814 62.6185 138.811 62.6006C138.809 62.5826 138.8 62.5662 138.787 62.5541C138.773 62.542 138.756 62.5352 138.738 62.5348C138.72 62.5344 138.702 62.5405 138.688 62.552C138.46 62.7777 138.183 62.948 137.878 63.05C137.574 63.1519 137.25 63.1827 136.932 63.14C136.913 63.1386 136.893 63.1444 136.878 63.1561C136.862 63.1679 136.852 63.1849 136.848 63.204C136.847 63.214 136.848 63.2241 136.851 63.2337C136.853 63.2434 136.858 63.2523 136.864 63.2602C136.871 63.268 136.879 63.2745 136.887 63.2792C136.896 63.284 136.906 63.287 136.916 63.288C137.01 63.3 137.105 63.3067 137.2 63.308Z" fill="#263238"/>
<path d="M139.34 58.7599C139.364 58.755 139.386 58.744 139.404 58.728C139.418 58.7142 139.429 58.6977 139.437 58.6795C139.445 58.6613 139.449 58.6417 139.449 58.622C139.449 58.6022 139.445 58.5826 139.437 58.5644C139.429 58.5462 139.418 58.5297 139.404 58.516C139.252 58.3367 139.059 58.1976 138.84 58.1111C138.622 58.0246 138.385 57.9933 138.152 58.02C138.133 58.0231 138.114 58.03 138.097 58.0404C138.08 58.0507 138.066 58.0643 138.054 58.0803C138.043 58.0962 138.035 58.1143 138.03 58.1335C138.026 58.1527 138.025 58.1725 138.028 58.1919C138.031 58.2114 138.038 58.23 138.048 58.2468C138.059 58.2635 138.072 58.2781 138.088 58.2896C138.104 58.3011 138.122 58.3093 138.142 58.3139C138.161 58.3184 138.181 58.3191 138.2 58.316C138.384 58.2981 138.57 58.3252 138.741 58.3948C138.913 58.4645 139.065 58.5747 139.184 58.716C139.203 58.7377 139.228 58.7534 139.255 58.7612C139.283 58.769 139.313 58.7686 139.34 58.7599Z" fill="#263238"/>
<path d="M134.316 58.596C134.339 58.6024 134.364 58.6033 134.387 58.5984C134.411 58.5935 134.433 58.5831 134.452 58.568C134.596 58.4403 134.767 58.3478 134.952 58.2978C135.137 58.2478 135.332 58.2417 135.52 58.28C135.558 58.2899 135.599 58.2846 135.633 58.2652C135.667 58.2458 135.693 58.2138 135.704 58.176C135.71 58.157 135.711 58.1372 135.709 58.1177C135.707 58.0981 135.7 58.0793 135.691 58.0621C135.681 58.045 135.668 58.03 135.652 58.0179C135.637 58.0059 135.619 57.997 135.6 57.992C135.366 57.9414 135.123 57.9465 134.891 58.0069C134.659 58.0674 134.444 58.1814 134.264 58.34C134.234 58.3649 134.215 58.4008 134.211 58.4398C134.207 58.4788 134.219 58.5177 134.244 58.548C134.263 58.571 134.288 58.5877 134.316 58.596Z" fill="#263238"/>
<path d="M139.524 81.264L137.772 80.176C137.647 80.0981 137.508 80.0458 137.363 80.0222C137.218 79.9985 137.07 80.004 136.927 80.0382C136.784 80.0725 136.649 80.1348 136.531 80.2217C136.412 80.3085 136.312 80.418 136.236 80.544L136.032 80.888C135.91 81.0884 135.855 81.3225 135.875 81.5563C135.896 81.79 135.99 82.0113 136.144 82.188L137.344 83.576C137.344 83.576 138.396 86.028 139.616 85.38L140.544 83.78L139.524 81.264Z" fill="#FFC3BD"/>
<path d="M141.328 84.4C141.088 83.8193 140.776 83.271 140.4 82.768C139.52 83.52 138.8 85.92 138.8 85.92L139.876 86.152C140.267 86.0421 140.616 85.8156 140.876 85.5026C141.135 85.1896 141.293 84.805 141.328 84.4Z" fill="#FF657E"/>
<path d="M154.732 102.292H133.964C132.604 102.292 131.724 103.64 131.996 105.304L134.588 121.012C134.864 122.676 136.188 124.024 137.552 124.024H152.16L154.732 102.292Z" fill="#FF657E"/>
<path opacity="0.5" d="M154.732 102.292H133.964C132.604 102.292 131.724 103.64 131.996 105.304L134.588 121.012C134.864 122.676 136.188 124.024 137.552 124.024H152.16L154.732 102.292Z" fill="white"/>
<path d="M58.912 144.048H59.512C59.6181 144.048 59.7198 144.006 59.7948 143.931C59.8698 143.856 59.912 143.754 59.912 143.648L63.2 94.088H60.724L58.524 143.592C58.516 143.648 58.5201 143.705 58.5358 143.759C58.5516 143.814 58.5787 143.864 58.6154 143.907C58.652 143.95 58.6974 143.985 58.7486 144.009C58.7997 144.034 58.8554 144.047 58.912 144.048Z" fill="#FF657E"/>
<path opacity="0.3" d="M58.912 144.048H59.512C59.6181 144.048 59.7198 144.006 59.7948 143.931C59.8698 143.856 59.912 143.754 59.912 143.648L63.2 94.088H60.724L58.524 143.592C58.516 143.648 58.5201 143.705 58.5358 143.759C58.5516 143.814 58.5787 143.864 58.6154 143.907C58.652 143.95 58.6974 143.985 58.7486 144.009C58.7997 144.034 58.8554 144.047 58.912 144.048Z" fill="white"/>
<path d="M52.112 144.048H52.712C52.8181 144.048 52.9198 144.006 52.9948 143.931C53.0698 143.856 53.112 143.754 53.112 143.648L56.4 94.088H53.92L51.724 143.592C51.716 143.648 51.7201 143.705 51.7358 143.759C51.7516 143.814 51.7787 143.864 51.8154 143.907C51.8521 143.95 51.8974 143.985 51.9486 144.009C51.9997 144.034 52.0554 144.047 52.112 144.048Z" fill="#FF657E"/>
<path opacity="0.3" d="M52.112 144.048H52.712C52.8181 144.048 52.9198 144.006 52.9948 143.931C53.0698 143.856 53.112 143.754 53.112 143.648L56.4 94.088H53.92L51.724 143.592C51.716 143.648 51.7201 143.705 51.7358 143.759C51.7516 143.814 51.7787 143.864 51.8154 143.907C51.8521 143.95 51.8974 143.985 51.9486 144.009C51.9997 144.034 52.0554 144.047 52.112 144.048Z" fill="white"/>
<path d="M135.972 144.048H135.372C135.266 144.048 135.164 144.006 135.089 143.931C135.014 143.856 134.972 143.754 134.972 143.648L131.684 94.088H134.16L136.36 143.592C136.368 143.648 136.364 143.705 136.348 143.759C136.332 143.814 136.305 143.864 136.269 143.907C136.232 143.95 136.187 143.985 136.135 144.009C136.084 144.034 136.029 144.047 135.972 144.048Z" fill="#FF657E"/>
<path opacity="0.3" d="M135.972 144.048H135.372C135.266 144.048 135.164 144.006 135.089 143.931C135.014 143.856 134.972 143.754 134.972 143.648L131.684 94.088H134.16L136.36 143.592C136.368 143.648 136.364 143.705 136.348 143.759C136.332 143.814 136.305 143.864 136.269 143.907C136.232 143.95 136.187 143.985 136.135 144.009C136.084 144.034 136.029 144.047 135.972 144.048Z" fill="white"/>
<path d="M142.772 144.048H142.172C142.066 144.048 141.964 144.006 141.889 143.931C141.814 143.856 141.772 143.754 141.772 143.648L138.484 94.088H140.964L143.16 143.592C143.168 143.648 143.164 143.705 143.148 143.759C143.132 143.814 143.105 143.864 143.069 143.907C143.032 143.95 142.987 143.985 142.935 144.009C142.884 144.034 142.829 144.047 142.772 144.048Z" fill="#FF657E"/>
<path opacity="0.3" d="M142.772 144.048H142.172C142.066 144.048 141.964 144.006 141.889 143.931C141.814 143.856 141.772 143.754 141.772 143.648L138.484 94.088H140.964L143.16 143.592C143.168 143.648 143.164 143.705 143.148 143.759C143.132 143.814 143.105 143.864 143.069 143.907C143.032 143.95 142.987 143.985 142.935 144.009C142.884 144.034 142.829 144.047 142.772 144.048Z" fill="white"/>
<path d="M145.632 93.08H49.1119V94.1H145.632V93.08Z" fill="#FF657E"/>
<path d="M47.5039 77.288L46.5919 83.996C46.3039 86.228 46.0039 88.468 45.7919 90.668C45.7639 90.944 45.7439 91.212 45.7199 91.468L45.6879 91.868C45.6945 91.8015 45.6945 91.7345 45.6879 91.668C45.6803 91.6039 45.6655 91.5408 45.6439 91.48C45.6276 91.4318 45.6075 91.385 45.5839 91.34C45.5679 91.3077 45.5492 91.2769 45.5279 91.248C45.4559 91.156 45.4479 91.168 45.4679 91.188C45.5088 91.2316 45.5544 91.2705 45.6039 91.304C45.7722 91.4193 45.9487 91.5222 46.1319 91.612C47.0839 92.0473 48.0665 92.4123 49.0719 92.704C51.1679 93.34 53.3719 93.904 55.5479 94.428L55.2999 96.336C52.9736 96.266 50.6554 96.0267 48.3639 95.62C47.1497 95.4158 45.9568 95.1012 44.7999 94.68C44.46 94.5489 44.1298 94.3938 43.8119 94.216C43.6156 94.1041 43.4284 93.977 43.2519 93.836C43.0072 93.6423 42.7928 93.4131 42.6159 93.156C42.4885 92.966 42.3863 92.7603 42.3119 92.544C42.271 92.4129 42.2389 92.2793 42.2159 92.144C42.2012 92.0111 42.1932 91.8776 42.1919 91.744V91.3C42.1919 91.004 42.1919 90.708 42.2159 90.416C42.3119 88.08 42.5239 85.8 42.7719 83.52C43.0199 81.24 43.3079 78.98 43.6639 76.72L47.5039 77.288Z" fill="#7F3E3B"/>
<path d="M60.5641 96.488L59.0961 97.828C58.9282 97.9805 58.7186 98.0795 58.4941 98.1123C58.2697 98.1451 58.0406 98.1101 57.8361 98.012L56.2161 97.232C56.2161 97.232 53.8161 97.132 53.4681 95.664L54.0921 94.524L57.8161 94.124C58.1983 94.0829 58.5834 94.1686 58.9121 94.368L60.4481 95.308C60.5446 95.3691 60.626 95.4515 60.6859 95.5489C60.7459 95.6462 60.7828 95.7559 60.794 95.8697C60.8052 95.9834 60.7903 96.0982 60.7505 96.2054C60.7106 96.3125 60.6469 96.4092 60.5641 96.488Z" fill="#7F3E3B"/>
<path d="M51.78 63.512C52.18 65.816 52.484 70.02 50.836 71.512C50.836 71.512 54.836 73.616 57.488 77.288C60.288 75.056 57.948 71.724 57.948 71.724C55.412 71.04 55.548 69.148 56.032 67.384L51.78 63.512Z" fill="#7F3E3B"/>
<path d="M59.2959 73.124C59.2959 73.124 59.0839 71.172 58.0199 70.208C57.1279 69.408 52.4199 69.848 50.9519 70.012C50.8156 70.0283 50.6856 70.0787 50.5738 70.1583C50.4619 70.238 50.3719 70.3445 50.3119 70.468L49.2399 72.708L59.2959 73.124Z" fill="#FF657E"/>
<path opacity="0.8" d="M59.2959 73.124C59.2959 73.124 59.0839 71.172 58.0199 70.208C57.1279 69.408 52.4199 69.848 50.9519 70.012C50.8156 70.0283 50.6856 70.0787 50.5738 70.1583C50.4619 70.238 50.3719 70.3445 50.3119 70.468L49.2399 72.708L59.2959 73.124Z" fill="white"/>
<path d="M46.2919 72.088C43.3959 73.032 42.7719 76.916 43.0359 79.936L48.8799 83.536C48.8799 83.536 50.2999 79.136 50.2879 76.768C50.2759 74.264 48.2599 71.456 46.2919 72.088Z" fill="#FF657E"/>
<path d="M47.4239 82.66C47.3502 82.6615 47.277 82.6486 47.2084 82.6218C47.1397 82.595 47.077 82.555 47.0239 82.504C47.0001 82.4779 46.9786 82.4498 46.9599 82.42C46.9379 82.3907 46.9204 82.3584 46.9079 82.324C46.8948 82.2914 46.8842 82.258 46.8759 82.224C46.872 82.1894 46.872 82.1545 46.8759 82.12C46.8742 82.0459 46.8874 81.9723 46.9149 81.9036C46.9424 81.8348 46.9836 81.7724 47.0359 81.72C47.1398 81.6221 47.2772 81.5676 47.4199 81.5676C47.5626 81.5676 47.7 81.6221 47.8039 81.72C47.8562 81.7724 47.8974 81.8348 47.9249 81.9036C47.9524 81.9723 47.9656 82.0459 47.9639 82.12C47.9678 82.1545 47.9678 82.1894 47.9639 82.224C47.9577 82.2585 47.9469 82.2922 47.9319 82.324C47.9208 82.3582 47.9046 82.3905 47.8839 82.42L47.8159 82.504C47.7642 82.5548 47.7029 82.5947 47.6356 82.6215C47.5683 82.6483 47.4963 82.6614 47.4239 82.66Z" fill="white"/>
<path d="M46.2999 82.292C46.2005 82.2536 46.1145 82.187 46.0526 82.1002C45.9908 82.0135 45.9558 81.9105 45.9519 81.804C45.8735 81.875 45.7759 81.9213 45.6712 81.937C45.5666 81.9526 45.4597 81.937 45.3639 81.892C45.2683 81.8473 45.1876 81.776 45.1316 81.6866C45.0755 81.5972 45.0465 81.4935 45.0479 81.388C44.9656 81.4546 44.8653 81.4951 44.7599 81.5043C44.6544 81.5136 44.5486 81.4912 44.4559 81.44C44.363 81.3904 44.2867 81.3148 44.2362 81.2224C44.1858 81.13 44.1634 81.0249 44.1719 80.92C44.0853 80.981 43.9828 81.0154 43.8769 81.0189C43.771 81.0225 43.6664 80.995 43.5759 80.94C43.4533 80.8653 43.3651 80.7452 43.3307 80.6059C43.2962 80.4665 43.3182 80.3192 43.3919 80.196C43.4673 80.0731 43.5881 79.9848 43.7281 79.9504C43.8682 79.9159 44.0161 79.9381 44.1399 80.012C44.2248 80.0656 44.2937 80.141 44.3395 80.2304C44.3852 80.3197 44.4061 80.4198 44.3999 80.52C44.4817 80.4612 44.5783 80.4267 44.6787 80.4203C44.7792 80.414 44.8794 80.436 44.9679 80.484C45.0564 80.5317 45.1301 80.6028 45.1809 80.6896C45.2317 80.7763 45.2577 80.8754 45.2559 80.976C45.3343 80.9133 45.4286 80.8738 45.5283 80.8618C45.6279 80.8498 45.7289 80.8658 45.8199 80.908C45.911 80.9499 45.9886 81.0162 46.0444 81.0995C46.1002 81.1827 46.1318 81.2798 46.1359 81.38C46.2114 81.314 46.3034 81.2699 46.402 81.2523C46.5007 81.2347 46.6023 81.2442 46.6959 81.28C46.8293 81.3334 46.9361 81.4374 46.9931 81.5693C47.05 81.7012 47.0525 81.8503 46.9999 81.984C46.9604 82.0854 46.8911 82.1726 46.8012 82.234C46.7112 82.2954 46.6048 82.3281 46.4959 82.328C46.429 82.3272 46.3627 82.315 46.2999 82.292Z" fill="white"/>
<path d="M43.0359 80.488C43 80.4919 42.9638 80.4919 42.9279 80.488C42.8933 80.4817 42.8597 80.471 42.8279 80.456C42.7937 80.4449 42.7614 80.4287 42.7319 80.408L42.6519 80.34C42.626 80.3162 42.6032 80.2893 42.5839 80.26C42.5839 80.228 42.5479 80.196 42.5319 80.164C42.5195 80.1312 42.5088 80.0979 42.4999 80.064C42.498 80.028 42.498 79.9919 42.4999 79.956C42.4978 79.9213 42.4978 79.8866 42.4999 79.852C42.5088 79.8168 42.5195 79.782 42.5319 79.748C42.5451 79.7151 42.5626 79.6842 42.5839 79.656C42.6042 79.6261 42.6269 79.598 42.6519 79.572L42.7319 79.504C42.7623 79.4848 42.7944 79.4687 42.8279 79.456L42.9279 79.424C43.0152 79.4082 43.1049 79.4135 43.1898 79.4392C43.2746 79.4649 43.3521 79.5104 43.4159 79.572C43.441 79.598 43.4637 79.6261 43.4839 79.656C43.5036 79.6852 43.521 79.716 43.5359 79.748C43.549 79.7815 43.5584 79.8164 43.5639 79.852C43.5681 79.8865 43.5681 79.9214 43.5639 79.956C43.5679 79.9919 43.5679 80.0281 43.5639 80.064C43.5583 80.0982 43.549 80.1318 43.5359 80.164C43.5359 80.196 43.5039 80.228 43.4839 80.26C43.4647 80.2893 43.4418 80.3162 43.4159 80.34C43.313 80.4364 43.1769 80.4894 43.0359 80.488Z" fill="white"/>
<path d="M64.7081 77.74C64.4641 81.068 63.7241 86.668 61.9081 96.1L46.2521 95.636C46.6521 89.856 46.0401 85.548 44.6241 75.432C44.5638 74.9943 44.5922 74.549 44.7076 74.1225C44.8231 73.696 45.0232 73.2972 45.296 72.9497C45.5689 72.6022 45.9089 72.3131 46.2958 72.0998C46.6827 71.8865 47.1086 71.7532 47.5481 71.708C48.5521 71.604 49.6961 71.52 50.8441 71.496C53.2168 71.3977 55.5934 71.4685 57.9561 71.708C58.7161 71.8 59.5041 71.924 60.2561 72.052C61.5728 72.2763 62.7586 72.9834 63.5818 74.0352C64.4051 75.087 64.8067 76.4079 64.7081 77.74Z" fill="#FF657E"/>
<path d="M59.8799 59.288C59.9159 59.596 60.1119 59.828 60.3119 59.8C60.5119 59.772 60.6479 59.508 60.6119 59.2C60.5759 58.892 60.3799 58.66 60.1799 58.684C59.9799 58.708 59.8439 58.968 59.8799 59.288Z" fill="#263238"/>
<path d="M60.0919 58.704L60.8079 58.4C60.8079 58.4 60.4959 59.024 60.0919 58.704Z" fill="#263238"/>
<path d="M59.9999 59.756C60.3591 60.4274 60.8087 61.0465 61.3359 61.596C61.1924 61.7279 61.0216 61.8268 60.8357 61.8855C60.6498 61.9443 60.4532 61.9615 60.2599 61.936L59.9999 59.756Z" fill="#630F0F"/>
<path d="M59.916 56.572C59.9317 56.5439 59.94 56.5122 59.94 56.48C59.94 56.4478 59.9317 56.4161 59.916 56.388C59.8944 56.3448 59.8568 56.3118 59.8112 56.296C59.7655 56.2803 59.7155 56.2832 59.672 56.304C59.4067 56.4219 59.1736 56.6019 58.9926 56.8289C58.8116 57.0559 58.6879 57.3231 58.632 57.608C58.6286 57.6317 58.63 57.6558 58.636 57.6789C58.6421 57.702 58.6527 57.7237 58.6672 57.7427C58.6817 57.7617 58.6999 57.7776 58.7206 57.7895C58.7413 57.8014 58.7642 57.809 58.788 57.812C58.8116 57.8154 58.8357 57.814 58.8589 57.8079C58.882 57.8019 58.9037 57.7913 58.9227 57.7768C58.9417 57.7622 58.9576 57.7441 58.9695 57.7233C58.9814 57.7026 58.989 57.6797 58.992 57.656C59.0406 57.4314 59.1418 57.2216 59.2871 57.0436C59.4324 56.8657 59.6177 56.7246 59.828 56.632C59.8636 56.6233 59.8948 56.6019 59.916 56.572Z" fill="#263238"/>
<path d="M49.224 59.208C49.912 62.972 50.124 64.58 52.272 66.3C55.504 68.884 59.98 67.216 60.432 63.32C60.832 59.812 59.6321 54.244 55.7521 53.18C54.8945 52.9415 53.9902 52.9261 53.125 53.1352C52.2598 53.3444 51.4624 53.7711 50.8084 54.375C50.1544 54.9789 49.6656 55.7398 49.3883 56.5857C49.1111 57.4315 49.0545 58.3342 49.224 59.208Z" fill="#7F3E3B"/>
<path d="M57.52 60.264C58.152 62.332 59.664 67.332 56.32 68.448C53.708 69.32 45.52 70.016 44.58 65.22C43.608 60.264 48.028 56.732 48.028 56.732C48.028 56.732 44.524 53.86 46.768 50.732C49.66 46.7 56.588 48.98 58.64 51.828C60.644 54.6 57.52 60.264 57.52 60.264Z" fill="#263238"/>
<path d="M51.2001 69.136C49.6914 69.1343 48.1973 68.841 46.8001 68.272C44.9441 67.472 43.8601 66.236 43.6641 64.696C43.0081 59.468 47.8721 56.596 47.9241 56.568L48.1161 56.9C48.0681 56.928 43.4241 59.676 44.0481 64.648C44.2721 66.412 45.7521 67.4 46.9561 67.916C49.3321 68.94 52.4001 68.932 53.1441 68.388L53.3721 68.7C52.9961 68.984 52.1801 69.136 51.2001 69.136Z" fill="#263238"/>
<path d="M46.524 55.984C46.48 56.652 45.928 57.584 48.244 57.916C50.56 58.248 53.784 58.228 54.448 57.672C55.112 57.116 55.76 55.78 54.376 55.9C52.992 56.02 46.6 54.84 46.524 55.984Z" fill="#FF657E"/>
<path d="M56.2519 60.852C56.6299 61.5507 57.268 62.0724 58.0279 62.304C59.0359 62.6 59.5559 61.7 59.2879 60.74C59.0439 59.876 58.2239 58.68 57.2079 58.804C56.1919 58.928 55.7999 59.992 56.2519 60.852Z" fill="#7F3E3B"/>
<path d="M80.6561 139.912L84.3681 139.84L82.5721 130.576L78.8601 130.644L80.6561 139.912Z" fill="#7F3E3B"/>
<path d="M83.44 135.876C84.42 139.576 88.032 143.476 88.032 143.476L82.88 142.164L80.628 138.964L81.028 138.116L83.44 135.876Z" fill="#7F3E3B"/>
<path d="M79.7799 137.596C79.7695 138.029 79.7949 138.463 79.8559 138.892C80.0759 140.42 80.7479 144.492 80.7479 144.492H81.0999C80.9408 143.252 80.846 142.005 80.8159 140.756C80.8639 139.752 81.5119 141.528 82.2959 142.536C83.0799 143.544 84.4919 144.46 86.7759 144.536C89.4479 144.62 90.5159 144.508 89.6599 143.84C88.8039 143.172 86.9799 142.74 86.9799 142.74C85.5086 142.11 84.2562 141.059 83.3799 139.72C82.5154 138.517 81.3794 137.534 80.0639 136.852C79.8399 136.864 79.7959 137.288 79.7799 137.596Z" fill="#263238"/>
<path d="M93.8041 127.324L98.5401 127.472L93.2401 119.592L89.9601 122.396L93.8041 127.324Z" fill="#7F3E3B"/>
<path d="M94.928 123.98C98.372 125.58 103.884 125.268 103.884 125.268L99.404 128.868L95.56 128.58L95.16 127.728L94.928 123.98Z" fill="#7F3E3B"/>
<path d="M94.2 128.064C94.5102 128.365 94.8447 128.641 95.2 128.888C96.456 129.764 99.852 132.008 99.852 132.008L100.068 131.732C99.0565 131.005 98.0832 130.227 97.152 129.4C96.44 128.672 98.1479 129.38 99.3719 129.452C100.596 129.524 102.14 129.052 103.6 127.292C105.316 125.248 105.888 124.332 104.872 124.548C103.856 124.764 102.408 125.9 102.408 125.9C101.048 126.628 99.4902 126.9 97.964 126.676C96.5463 126.532 95.1154 126.753 93.808 127.32C93.7 127.52 93.968 127.832 94.2 128.064Z" fill="#263238"/>
<path d="M56.44 95.828C56.44 95.828 81.784 92.088 84.4 98.576C88.968 109.88 95.412 122.832 95.412 122.832L92.3 125.408C92.3 125.408 81.248 115.176 77.32 103.808C72.624 105.328 57.684 110.208 52.212 110.208C46.368 110.208 43.98 105.228 46.092 96.952C46.1845 96.5974 46.3914 96.2832 46.6807 96.0583C46.97 95.8333 47.3255 95.7102 47.692 95.708C51.4 95.744 56.44 95.828 56.44 95.828Z" fill="#263238"/>
<path d="M58.8679 99.128C58.8679 99.128 79.6679 98.504 79.8479 105.872C80.1359 118.06 83.5719 135.524 83.5719 135.524L79.7759 135.876C79.7759 135.876 73.5719 121.984 71.9319 110.088C64.5239 110.568 57.6919 110.236 52.2199 110.236C46.0879 110.236 45.5799 103.504 51.5479 95.644C55.1999 95.636 58.8679 99.128 58.8679 99.128Z" fill="#263238"/>
<path d="M46.0359 94.7079L45.5999 96.0879C45.5399 96.1959 45.6639 96.308 45.8479 96.316L61.9599 96.792C62.0999 96.792 62.2199 96.732 62.2319 96.644L62.4159 95.2479C62.4159 95.1479 62.3079 95.0639 62.1519 95.0599L46.2999 94.5879C46.2492 94.5824 46.1979 94.5906 46.1515 94.6117C46.105 94.6328 46.0651 94.6661 46.0359 94.7079Z" fill="white"/>
<path d="M48.112 96.544H47.688C47.604 96.544 47.54 96.496 47.548 96.444L47.8 94.628C47.8 94.576 47.884 94.536 47.968 94.536H48.392C48.476 94.536 48.54 94.584 48.532 94.636L48.28 96.448C48.272 96.508 48.196 96.548 48.112 96.544Z" fill="#263238"/>
<path d="M60.756 96.924H60.332C60.248 96.924 60.184 96.876 60.192 96.824L60.448 95.008C60.448 94.956 60.528 94.916 60.612 94.916H61.036C61.124 94.916 61.184 94.964 61.18 95.016L60.924 96.832C60.916 96.888 60.844 96.924 60.756 96.924Z" fill="#263238"/>
<path d="M54.4359 96.7319H54.0119C53.9239 96.7319 53.8639 96.6839 53.8719 96.6319L54.1239 94.816C54.1239 94.764 54.2079 94.724 54.2919 94.724H54.7159C54.7999 94.724 54.8639 94.772 54.8559 94.824L54.6039 96.64C54.5959 96.696 54.5199 96.7359 54.4359 96.7319Z" fill="#263238"/>
<path d="M73.7321 79.132H83.8481C83.9233 79.1322 83.9974 79.1499 84.0646 79.1836C84.1319 79.2172 84.1904 79.2659 84.2357 79.326C84.281 79.386 84.3119 79.4557 84.3258 79.5296C84.3397 79.6035 84.3364 79.6796 84.3161 79.752L80.5321 92.732C80.5033 92.8326 80.4423 92.9211 80.3586 92.984C80.2748 93.0468 80.1728 93.0805 80.0681 93.08H69.9481C69.8726 93.0807 69.7981 93.0637 69.7305 93.0303C69.6629 92.9969 69.6041 92.948 69.5589 92.8876C69.5137 92.8272 69.4834 92.757 69.4704 92.6827C69.4574 92.6084 69.4621 92.5321 69.4841 92.46L73.2641 79.48C73.2936 79.379 73.3553 79.2904 73.4398 79.2276C73.5242 79.1648 73.6268 79.1312 73.7321 79.132Z" fill="#FF657E"/>
<path d="M73.9159 79.608L83.7519 79.84L79.8679 92.084L70.0319 91.848L73.9159 79.608Z" fill="#E0E0E0"/>
<path d="M73.608 79.488L83.444 79.528L79.8 91.844L69.964 91.804L73.608 79.488Z" fill="white"/>
<path d="M64.736 79.744C64.736 80.144 64.796 80.616 64.828 81.06C64.86 81.504 64.92 81.968 64.98 82.42C65.092 83.324 65.2413 84.2146 65.428 85.092C65.6074 85.9473 65.8453 86.7892 66.14 87.612C66.288 88.012 66.452 88.412 66.628 88.764C66.716 88.948 66.812 89.12 66.908 89.296L67.056 89.54C67.2396 89.7071 67.4563 89.8338 67.692 89.912C68.0665 90.0573 68.4516 90.1736 68.844 90.26C69.7272 90.4464 70.6208 90.5799 71.52 90.66C73.368 90.84 75.3 90.928 77.188 90.968L77.38 92.884C75.4141 93.274 73.4192 93.5001 71.416 93.56C70.3756 93.5921 69.3342 93.5493 68.3 93.432C67.7333 93.3626 67.1729 93.2489 66.624 93.092C65.9221 92.9062 65.2695 92.569 64.712 92.104C64.5252 91.9424 64.3563 91.7614 64.208 91.564L63.952 91.204C63.788 90.964 63.628 90.724 63.492 90.48C63.2069 90.0043 62.9543 89.5098 62.736 89C62.3089 88.0223 61.9637 87.0108 61.704 85.976C61.445 84.97 61.246 83.9495 61.108 82.92C61.04 82.412 60.988 81.9 60.944 81.384C60.9 80.868 60.872 80.376 60.864 79.784L64.736 79.744Z" fill="#7F3E3B"/>
<path d="M63.42 73.844C65.94 76.216 65.332 82.396 65.332 82.396L60.508 83.24C60.508 83.24 57.528 78.808 58.576 76.952C59.664 75.016 62.06 72.56 63.42 73.844Z" fill="#FF657E"/>
<path d="M65.3319 82.94C65.258 82.9412 65.1845 82.9278 65.1158 82.9003C65.0471 82.8728 64.9846 82.8319 64.9319 82.78C64.9062 82.7546 64.8834 82.7264 64.8639 82.696C64.8456 82.6666 64.8295 82.6358 64.8159 82.604C64.8078 82.5657 64.8024 82.527 64.7999 82.488C64.7978 82.4533 64.7978 82.4186 64.7999 82.384C64.7974 82.3102 64.81 82.2367 64.8368 82.1679C64.8636 82.0992 64.9042 82.0366 64.9559 81.984C64.9821 81.9591 65.0102 81.9364 65.0399 81.916C65.0684 81.896 65.0993 81.8799 65.1319 81.868C65.1654 81.8537 65.2002 81.8429 65.2359 81.836C65.3146 81.8207 65.3956 81.8229 65.4732 81.8425C65.5509 81.8621 65.6232 81.8987 65.6851 81.9495C65.747 82.0003 65.7969 82.0642 65.8313 82.1365C65.8657 82.2088 65.8837 82.2879 65.8839 82.368C65.8881 82.4025 65.8881 82.4374 65.8839 82.472C65.8775 82.5078 65.8668 82.5427 65.8519 82.576C65.84 82.6086 65.8239 82.6395 65.8039 82.668C65.7845 82.6984 65.7617 82.7266 65.7359 82.752C65.6855 82.8099 65.6235 82.8565 65.5539 82.8889C65.4843 82.9213 65.4087 82.9387 65.3319 82.94Z" fill="white"/>
<path d="M60.9479 83.228C60.9358 83.0842 60.9812 82.9415 61.0742 82.8312C61.1672 82.721 61.3002 82.6522 61.4439 82.64C61.5441 82.6307 61.6449 82.6497 61.7347 82.695C61.8245 82.7403 61.8998 82.8099 61.9519 82.896C61.9842 82.8007 62.0419 82.7161 62.1187 82.6513C62.1956 82.5864 62.2886 82.5438 62.3879 82.528C62.4878 82.5145 62.5894 82.5287 62.6817 82.5689C62.7741 82.6091 62.8537 82.6738 62.9119 82.756C62.9347 82.6586 62.9842 82.5696 63.0549 82.4989C63.1256 82.4282 63.2146 82.3787 63.3119 82.356C63.4107 82.3353 63.5132 82.3427 63.608 82.3774C63.7027 82.412 63.7858 82.4725 63.8479 82.552C63.8715 82.455 63.9213 82.3664 63.9919 82.2959C64.0624 82.2253 64.151 82.1755 64.2479 82.152C64.3178 82.1335 64.3907 82.1292 64.4623 82.1395C64.5339 82.1497 64.6026 82.1742 64.6646 82.2115C64.7265 82.2488 64.7803 82.2981 64.8228 82.3566C64.8653 82.4151 64.8956 82.4815 64.9119 82.552C64.9299 82.6218 64.9337 82.6946 64.9232 82.7659C64.9127 82.8373 64.8882 82.9059 64.8509 82.9677C64.8137 83.0295 64.7646 83.0833 64.7064 83.1259C64.6482 83.1685 64.5821 83.1991 64.5119 83.216C64.4098 83.2422 64.3023 83.2384 64.2022 83.2051C64.1022 83.1717 64.0139 83.1102 63.9479 83.028C63.9254 83.1315 63.8734 83.2262 63.7981 83.3007C63.7229 83.3753 63.6276 83.4264 63.5239 83.448C63.4201 83.4673 63.313 83.4565 63.2151 83.4168C63.1173 83.3771 63.0329 83.3102 62.9719 83.224C62.9455 83.3269 62.8893 83.4198 62.8103 83.491C62.7313 83.5621 62.6331 83.6084 62.5279 83.624C62.4232 83.639 62.3163 83.6232 62.2204 83.5785C62.1245 83.5337 62.0437 83.4619 61.9879 83.372C61.9537 83.4719 61.8913 83.5598 61.8083 83.6251C61.7252 83.6903 61.6251 83.7302 61.5199 83.74H61.4759C61.3401 83.7353 61.2109 83.6803 61.1133 83.5857C61.0157 83.4911 60.9568 83.3636 60.9479 83.228Z" fill="white"/>
<path d="M60.5081 83.784C60.4722 83.7879 60.4359 83.7879 60.4001 83.784L60.3001 83.752C60.2669 83.7384 60.2348 83.7224 60.2041 83.704L60.1241 83.636C60.0972 83.6117 60.0742 83.5834 60.0561 83.552C60.0364 83.5227 60.019 83.4919 60.0041 83.46C59.991 83.4264 59.9816 83.3916 59.9761 83.356C59.9719 83.3214 59.9719 83.2865 59.9761 83.252C59.9721 83.2161 59.9721 83.1799 59.9761 83.144C59.9817 83.1097 59.991 83.0762 60.0041 83.044C60.0041 83.012 60.0361 82.98 60.0561 82.948C60.0753 82.9186 60.0982 82.8917 60.1241 82.868L60.2041 82.8C60.2339 82.7801 60.2662 82.7639 60.3001 82.752C60.3318 82.737 60.3655 82.7262 60.4001 82.72C60.4873 82.7022 60.5776 82.7064 60.6628 82.7322C60.748 82.7581 60.8254 82.8047 60.8881 82.868C60.914 82.8917 60.9368 82.9186 60.9561 82.948C60.9761 82.98 60.9921 83.012 61.0081 83.044C61.0205 83.0767 61.0312 83.1101 61.0401 83.144C61.042 83.18 61.042 83.216 61.0401 83.252C61.0422 83.2866 61.0422 83.3214 61.0401 83.356C61.0312 83.3912 61.0205 83.4259 61.0081 83.46C60.9931 83.4919 60.9757 83.5227 60.9561 83.552C60.9369 83.5826 60.914 83.6108 60.8881 83.636C60.7851 83.7324 60.649 83.7854 60.5081 83.784Z" fill="white"/>
<path d="M81.6799 88.976L80.0079 88.864C79.5916 88.8347 79.1775 88.9459 78.8319 89.18L75.7639 91.24L75.7399 92.54C76.7239 93.684 78.8999 92.66 78.8999 92.66L80.9199 92.592C81.0809 92.5878 81.2369 92.5352 81.3675 92.441C81.4981 92.3468 81.5972 92.2154 81.6519 92.064L82.3839 90.064C82.4296 89.946 82.4467 89.819 82.4338 89.6932C82.4209 89.5674 82.3784 89.4464 82.3097 89.3403C82.241 89.2341 82.1481 89.1457 82.0386 89.0824C81.9291 89.0191 81.8062 88.9826 81.6799 88.976Z" fill="#7F3E3B"/>
<path d="M47.036 145.852H47.488C47.5818 145.843 47.6693 145.801 47.7351 145.734C47.801 145.666 47.841 145.578 47.848 145.484L50.648 126.108H48.532L46.688 145.356C46.6771 145.412 46.6776 145.469 46.6893 145.524C46.7011 145.579 46.7239 145.632 46.7564 145.678C46.7889 145.724 46.8304 145.764 46.8785 145.794C46.9265 145.823 46.9801 145.843 47.036 145.852Z" fill="#FF657E"/>
<path opacity="0.3" d="M47.036 145.852H47.488C47.5818 145.843 47.6693 145.801 47.7351 145.734C47.801 145.666 47.841 145.578 47.848 145.484L50.648 126.108H48.532L46.688 145.356C46.6771 145.412 46.6776 145.469 46.6893 145.524C46.7011 145.579 46.7239 145.632 46.7564 145.678C46.7889 145.724 46.8304 145.764 46.8785 145.794C46.9265 145.823 46.9801 145.843 47.036 145.852Z" fill="black"/>
<path d="M41.236 145.852H41.688C41.7818 145.843 41.8693 145.801 41.9351 145.734C42.001 145.666 42.041 145.578 42.048 145.484L44.848 126.108H42.732L40.888 145.356C40.8771 145.412 40.8776 145.469 40.8893 145.524C40.901 145.579 40.9239 145.632 40.9564 145.678C40.9889 145.724 41.0304 145.764 41.0784 145.794C41.1265 145.823 41.1801 145.843 41.236 145.852Z" fill="#FF657E"/>
<path opacity="0.3" d="M41.236 145.852H41.688C41.7818 145.843 41.8693 145.801 41.9351 145.734C42.001 145.666 42.041 145.578 42.048 145.484L44.848 126.108H42.732L40.888 145.356C40.8771 145.412 40.8776 145.469 40.8893 145.524C40.901 145.579 40.9239 145.632 40.9564 145.678C40.9889 145.724 41.0304 145.764 41.0784 145.794C41.1265 145.823 41.1801 145.843 41.236 145.852Z" fill="black"/>
<path d="M73.556 145.852H73.1C73.007 145.842 72.9205 145.8 72.8555 145.732C72.7904 145.665 72.751 145.577 72.744 145.484L69.944 126.108H72.056L73.9 145.356C73.911 145.411 73.9107 145.468 73.8992 145.523C73.8877 145.578 73.8652 145.631 73.8332 145.677C73.8011 145.723 73.76 145.762 73.7124 145.793C73.6648 145.823 73.6116 145.843 73.556 145.852Z" fill="#FF657E"/>
<path opacity="0.3" d="M73.556 145.852H73.1C73.007 145.842 72.9205 145.8 72.8555 145.732C72.7904 145.665 72.751 145.577 72.744 145.484L69.944 126.108H72.056L73.9 145.356C73.911 145.411 73.9107 145.468 73.8992 145.523C73.8877 145.578 73.8652 145.631 73.8332 145.677C73.8011 145.723 73.76 145.762 73.7124 145.793C73.6648 145.823 73.6116 145.843 73.556 145.852Z" fill="black"/>
<path d="M79.356 145.852H78.9C78.807 145.842 78.7205 145.8 78.6554 145.732C78.5904 145.665 78.551 145.577 78.544 145.484L75.744 126.108H77.856L79.7 145.356C79.711 145.411 79.7107 145.468 79.6992 145.523C79.6877 145.578 79.6652 145.631 79.6332 145.677C79.6011 145.723 79.56 145.762 79.5124 145.793C79.4648 145.823 79.4116 145.843 79.356 145.852Z" fill="#FF657E"/>
<path opacity="0.3" d="M79.356 145.852H78.9C78.807 145.842 78.7205 145.8 78.6554 145.732C78.5904 145.665 78.551 145.577 78.544 145.484L75.744 126.108H77.856L79.7 145.356C79.711 145.411 79.7107 145.468 79.6992 145.523C79.6877 145.578 79.6652 145.631 79.6332 145.677C79.6011 145.723 79.56 145.762 79.5124 145.793C79.4648 145.823 79.4116 145.843 79.356 145.852Z" fill="black"/>
<path d="M86.872 103.14H72.632C70.104 94.364 61.032 87.444 51.704 87.444H47.08C37.336 87.444 31.048 95.044 33.032 104.38C33.4076 106.1 34.0173 107.761 34.844 109.316L37.092 122.916C37.38 124.672 38.784 126.096 40.22 126.096H83.084C84.52 126.096 85.924 124.672 86.212 122.916L88.952 106.308C89.244 104.564 88.312 103.14 86.872 103.14Z" fill="#FF657E"/>
<path opacity="0.5" d="M86.872 103.14H72.632C70.104 94.364 61.032 87.444 51.704 87.444H47.08C37.336 87.444 31.048 95.044 33.032 104.38C33.4076 106.1 34.0173 107.761 34.844 109.316L37.092 122.916C37.38 124.672 38.784 126.096 40.22 126.096H83.084C84.52 126.096 85.924 124.672 86.212 122.916L88.952 106.308C89.244 104.564 88.312 103.14 86.872 103.14Z" fill="white"/>
<path d="M85.0156 39.348H81.7477V39.748H85.0156V39.348Z" fill="#FF657E"/>
<path d="M69.7277 44.06H69.3277V42.088C69.3288 41.3599 69.6188 40.6619 70.134 40.1474C70.6492 39.6329 71.3476 39.344 72.0757 39.344H79.3677V39.744H72.0757C71.4537 39.744 70.8571 39.9908 70.4169 40.4303C69.9766 40.8697 69.7288 41.4659 69.7277 42.088V44.06Z" fill="#FF657E"/>
<path d="M72.0757 40.748H108.544C108.9 40.748 109.242 40.8896 109.494 41.1416C109.746 41.3937 109.888 41.7355 109.888 42.092V56.392C109.888 56.7495 109.746 57.0923 109.493 57.3451C109.24 57.5979 108.897 57.74 108.54 57.74H72.0757C71.7182 57.74 71.3753 57.5979 71.1225 57.3451C70.8697 57.0923 70.7277 56.7495 70.7277 56.392V42.088C70.7283 41.9115 70.7635 41.7368 70.8316 41.5739C70.8996 41.4111 70.999 41.2632 71.1242 41.1388C71.2494 41.0144 71.3978 40.9158 71.5611 40.8487C71.7244 40.7817 71.8992 40.7474 72.0757 40.748Z" fill="#FF657E"/>
<path d="M106.82 50.148H73.7997C73.5599 50.148 73.33 50.0527 73.1605 49.8832C72.9909 49.7137 72.8957 49.4837 72.8957 49.244C72.8957 49.0042 72.9909 48.7743 73.1605 48.6047C73.33 48.4352 73.5599 48.34 73.7997 48.34H106.82C107.059 48.34 107.289 48.4352 107.459 48.6047C107.628 48.7743 107.724 49.0042 107.724 49.244C107.724 49.4837 107.628 49.7137 107.459 49.8832C107.289 50.0527 107.059 50.148 106.82 50.148Z" fill="white"/>
<path d="M99.7517 53.904H73.7997C73.56 53.904 73.33 53.8087 73.1605 53.6392C72.991 53.4697 72.8957 53.2397 72.8957 53C72.8947 52.8806 72.9173 52.7622 72.9622 52.6516C73.0072 52.541 73.0736 52.4404 73.1577 52.3556C73.2417 52.2708 73.3417 52.2035 73.4519 52.1575C73.5621 52.1116 73.6803 52.088 73.7997 52.088H99.7517C99.9915 52.088 100.221 52.1832 100.391 52.3527C100.56 52.5223 100.656 52.7522 100.656 52.992C100.657 53.1114 100.634 53.2298 100.589 53.3404C100.544 53.451 100.478 53.5516 100.394 53.6364C100.31 53.7212 100.21 53.7885 100.1 53.8344C99.9893 53.8803 99.8711 53.904 99.7517 53.904Z" fill="white"/>
<path d="M84.9357 46.392H73.7997C73.5599 46.392 73.33 46.2967 73.1605 46.1272C72.9909 45.9577 72.8957 45.7277 72.8957 45.488C72.8957 45.2482 72.9909 45.0183 73.1605 44.8487C73.33 44.6792 73.5599 44.584 73.7997 44.584H84.9357C85.1755 44.584 85.4054 44.6792 85.5749 44.8487C85.7445 45.0183 85.8397 45.2482 85.8397 45.488C85.8397 45.7277 85.7445 45.9577 85.5749 46.1272C85.4054 46.2967 85.1755 46.392 84.9357 46.392Z" fill="white"/>
<path d="M99.6957 46.392H88.5597C88.3199 46.392 88.09 46.2967 87.9204 46.1272C87.7509 45.9577 87.6557 45.7277 87.6557 45.488C87.6557 45.2482 87.7509 45.0183 87.9204 44.8487C88.09 44.6792 88.3199 44.584 88.5597 44.584H99.6957C99.9354 44.584 100.165 44.6792 100.335 44.8487C100.504 45.0183 100.6 45.2482 100.6 45.488C100.6 45.7277 100.504 45.9577 100.335 46.1272C100.165 46.2967 99.9354 46.392 99.6957 46.392Z" fill="white"/>
<path d="M72.8957 56.656V60.988C72.8957 61.1737 72.9474 61.3557 73.045 61.5137C73.1427 61.6717 73.2824 61.7994 73.4485 61.8824C73.6146 61.9655 73.8005 62.0006 73.9855 61.9839C74.1705 61.9673 74.3471 61.8994 74.4957 61.788L81.1357 56.652L72.8957 56.656Z" fill="#FF657E"/>
<path d="M129.124 19.288H92.6558C92.4788 19.288 92.3035 19.3228 92.14 19.3906C91.9764 19.4583 91.8278 19.5576 91.7026 19.6828C91.5775 19.808 91.4782 19.9566 91.4104 20.1201C91.3427 20.2837 91.3078 20.4589 91.3078 20.636V34.936C91.3078 35.2935 91.4498 35.6363 91.7026 35.8891C91.9554 36.1419 92.2983 36.284 92.6558 36.284H121.456L126.68 40.324C126.828 40.4354 127.005 40.5032 127.19 40.5199C127.375 40.5366 127.561 40.5014 127.727 40.4184C127.893 40.3353 128.033 40.2077 128.13 40.0497C128.228 39.8917 128.28 39.7097 128.28 39.524V36.276H129.1C129.457 36.276 129.8 36.1339 130.053 35.8812C130.306 35.6284 130.448 35.2855 130.448 34.928V20.636C130.448 20.2826 130.309 19.9433 130.062 19.6912C129.814 19.4391 129.477 19.2943 129.124 19.288Z" fill="white"/>
<path d="M127.3 40.736C127.034 40.7342 126.775 40.6458 126.564 40.484L121.396 36.484H92.6558C92.2456 36.4829 91.8524 36.3195 91.5624 36.0294C91.2723 35.7393 91.1089 35.3462 91.1078 34.936V20.636C91.1089 20.2257 91.2723 19.8326 91.5624 19.5425C91.8524 19.2525 92.2456 19.089 92.6558 19.088H129.124C129.534 19.089 129.927 19.2525 130.217 19.5425C130.507 19.8326 130.671 20.2257 130.672 20.636V34.936C130.671 35.3462 130.507 35.7393 130.217 36.0294C129.927 36.3195 129.534 36.4829 129.124 36.484H128.504V39.532C128.504 39.8502 128.377 40.1555 128.152 40.3805C127.927 40.6055 127.622 40.732 127.304 40.732L127.3 40.736ZM92.6558 19.488C92.3517 19.489 92.0603 19.6103 91.8452 19.8254C91.6301 20.0404 91.5089 20.3318 91.5078 20.636V34.936C91.5089 35.2401 91.6301 35.5315 91.8452 35.7466C92.0603 35.9616 92.3517 36.0829 92.6558 36.084H121.536L126.8 40.164C126.918 40.2574 127.06 40.3155 127.21 40.3317C127.36 40.3478 127.511 40.3214 127.646 40.2554C127.782 40.1893 127.896 40.0864 127.975 39.9584C128.055 39.8304 128.097 39.6826 128.096 39.532V36.088H129.116C129.42 36.0869 129.711 35.9656 129.926 35.7506C130.141 35.5355 130.263 35.2441 130.264 34.94V20.636C130.263 20.3318 130.141 20.0404 129.926 19.8254C129.711 19.6103 129.42 19.489 129.116 19.488H92.6558Z" fill="#FF657E"/>
<path d="M110.112 28.692H127.4C127.519 28.692 127.636 28.6686 127.746 28.6232C127.855 28.5777 127.955 28.5111 128.039 28.4272C128.123 28.3433 128.19 28.2436 128.235 28.1339C128.28 28.0242 128.304 27.9067 128.304 27.788C128.302 27.5492 128.206 27.3209 128.036 27.1525C127.867 26.984 127.639 26.889 127.4 26.888H110.112C109.872 26.889 109.642 26.9852 109.472 27.1553C109.303 27.3255 109.208 27.5558 109.208 27.796C109.21 28.0343 109.306 28.2622 109.475 28.43C109.645 28.5978 109.873 28.692 110.112 28.692Z" fill="#FF657E"/>
<path d="M98.0397 28.692H106.6C106.718 28.692 106.836 28.6686 106.946 28.6232C107.055 28.5777 107.155 28.5111 107.239 28.4272C107.323 28.3433 107.39 28.2436 107.435 28.1339C107.48 28.0242 107.504 27.9067 107.504 27.788C107.502 27.5492 107.406 27.3209 107.236 27.1525C107.067 26.984 106.838 26.889 106.6 26.888H98.0397C97.7996 26.889 97.5697 26.9852 97.4003 27.1553C97.2309 27.3255 97.1357 27.5558 97.1357 27.796C97.1379 28.0343 97.234 28.2622 97.4033 28.43C97.5726 28.5978 97.8014 28.692 98.0397 28.692Z" fill="#FF657E"/>
<path d="M101.444 32.448H127.4C127.899 32.448 128.304 32.0432 128.304 31.544C128.304 31.0447 127.899 30.64 127.4 30.64L101.444 30.64C100.944 30.64 100.54 31.0447 100.54 31.544C100.54 32.0432 100.944 32.448 101.444 32.448Z" fill="#FF657E"/>
<path d="M94.3997 24.936H127.4C127.639 24.936 127.869 24.8407 128.039 24.6712C128.208 24.5017 128.304 24.2717 128.304 24.032C128.304 23.7918 128.209 23.5615 128.039 23.3913C127.87 23.2212 127.64 23.125 127.4 23.124H94.3997C94.1596 23.125 93.9296 23.2212 93.7602 23.3913C93.5908 23.5615 93.4957 23.7918 93.4957 24.032C93.4957 24.2717 93.5909 24.5017 93.7605 24.6712C93.93 24.8407 94.1599 24.936 94.3997 24.936Z" fill="#FF657E"/>
</svg>
