<svg width="18" height="22" viewBox="0 0 18 22" fill="none" xmlns="http://www.w3.org/2000/svg">
<path d="M4.8 14C4.64087 14 4.48826 13.9368 4.37574 13.8243C4.26321 13.7117 4.2 13.5591 4.2 13.4C4.2 13.2409 4.26321 13.0883 4.37574 12.9757C4.48826 12.8632 4.64087 12.8 4.8 12.8H13.2C13.3591 12.8 13.5117 12.8632 13.6243 12.9757C13.7368 13.0883 13.8 13.2409 13.8 13.4C13.8 13.5591 13.7368 13.7117 13.6243 13.8243C13.5117 13.9368 13.3591 14 13.2 14H4.8ZM4.8 17C4.64087 17 4.48826 16.9368 4.37574 16.8243C4.26321 16.7117 4.2 16.5591 4.2 16.4C4.2 16.2409 4.26321 16.0883 4.37574 15.9757C4.48826 15.8632 4.64087 15.8 4.8 15.8H13.2C13.3591 15.8 13.5117 15.8632 13.6243 15.9757C13.7368 16.0883 13.8 16.2409 13.8 16.4C13.8 16.5591 13.7368 16.7117 13.6243 16.8243C13.5117 16.9368 13.3591 17 13.2 17H4.8Z" fill="white"/>
<path fill-rule="evenodd" clip-rule="evenodd" d="M10.422 0.2H2.4C1.92261 0.2 1.46477 0.389642 1.12721 0.727208C0.789642 1.06477 0.6 1.52261 0.6 2V20C0.6 20.4774 0.789642 20.9352 1.12721 21.2728C1.46477 21.6104 1.92261 21.8 2.4 21.8H15.6C16.0774 21.8 16.5352 21.6104 16.8728 21.2728C17.2104 20.9352 17.4 20.4774 17.4 20V7.6424C17.3999 7.19177 17.2307 6.75757 16.926 6.4256L11.7492 0.7832C11.5805 0.599294 11.3754 0.45248 11.1469 0.352081C10.9184 0.251682 10.6716 0.199892 10.422 0.2ZM1.8 2C1.8 1.84087 1.86321 1.68826 1.97574 1.57574C2.08826 1.46321 2.24087 1.4 2.4 1.4H10.422C10.5053 1.39991 10.5876 1.41715 10.6639 1.45061C10.7401 1.48408 10.8085 1.53305 10.8648 1.5944L16.0416 7.2368C16.1433 7.34739 16.1999 7.49214 16.2 7.6424V20C16.2 20.1591 16.1368 20.3117 16.0243 20.4243C15.9117 20.5368 15.7591 20.6 15.6 20.6H2.4C2.24087 20.6 2.08826 20.5368 1.97574 20.4243C1.86321 20.3117 1.8 20.1591 1.8 20V2Z" fill="white"/>
<path d="M10.8 1.52V7.16H16.44" stroke="white" stroke-linecap="round" stroke-linejoin="round"/>
<path d="M6.7608 6.3596C6.93216 6.36485 7.10284 6.33563 7.26269 6.27367C7.42255 6.21172 7.56834 6.11829 7.69141 5.99893C7.81448 5.87957 7.91233 5.73671 7.97914 5.57883C8.04596 5.42094 8.08039 5.25124 8.08039 5.0798C8.08039 4.90836 8.04596 4.73866 7.97914 4.58077C7.91233 4.42289 7.81448 4.28003 7.69141 4.16067C7.56834 4.04131 7.42255 3.94788 7.26269 3.88593C7.10284 3.82397 6.93216 3.79475 6.7608 3.8C6.42816 3.81019 6.11255 3.94949 5.88086 4.18839C5.64917 4.42728 5.51959 4.747 5.51959 5.0798C5.51959 5.4126 5.64917 5.73232 5.88086 5.97122C6.11255 6.21011 6.42816 6.34941 6.7608 6.3596Z" fill="white"/>
<path fill-rule="evenodd" clip-rule="evenodd" d="M9.3192 9.1328C9.3192 7.772 8.1732 6.7868 6.7596 6.7868C5.346 6.7868 4.2 7.7708 4.2 9.1328V9.7736C4.20032 9.88669 4.24547 9.99504 4.32555 10.0749C4.40563 10.1548 4.51411 10.1996 4.6272 10.1996H8.8932C9.00609 10.1993 9.11426 10.1543 9.19408 10.0745C9.2739 9.99465 9.31888 9.88648 9.3192 9.7736V9.1328Z" fill="white"/>
</svg>
