<svg width="200" height="150" viewBox="0 0 200 150" fill="none" xmlns="http://www.w3.org/2000/svg">
<path d="M200 131.448H0V131.548H200V131.448Z" fill="#E0E0E0"/>
<path d="M47.8601 135.684H34.3641V135.784H47.8601V135.684Z" fill="#E0E0E0"/>
<path d="M31.4279 135.732H23.4199V135.832H31.4279V135.732Z" fill="#E0E0E0"/>
<path d="M121.248 133.588H83.332V133.688H121.248V133.588Z" fill="#E0E0E0"/>
<path d="M67.112 138.52H55.024V138.62H67.112V138.52Z" fill="#E0E0E0"/>
<path d="M165.468 134.964H134V135.064H165.468V134.964Z" fill="#E0E0E0"/>
<path d="M94.8 113.608H17.564C16.9589 113.607 16.379 113.366 15.9515 112.938C15.5241 112.509 15.284 111.929 15.284 111.324V2.75198C15.2892 2.15039 15.5317 1.57518 15.9586 1.15127C16.3855 0.727367 16.9624 0.489014 17.564 0.487984H94.8C95.4057 0.487984 95.9867 0.728619 96.415 1.15695C96.8433 1.58529 97.084 2.16623 97.084 2.77198V111.324C97.084 111.93 96.8433 112.511 96.415 112.939C95.9867 113.367 95.4057 113.608 94.8 113.608ZM17.564 0.567984C16.9854 0.569044 16.431 0.79961 16.0222 1.20907C15.6135 1.61854 15.384 2.17344 15.384 2.75198V111.324C15.384 111.903 15.6135 112.457 16.0222 112.867C16.431 113.276 16.9854 113.507 17.564 113.508H94.8C95.3789 113.507 95.9338 113.276 96.3431 112.867C96.7525 112.458 96.9829 111.903 96.984 111.324V2.75198C96.9829 2.17308 96.7525 1.61818 96.3431 1.20883C95.9338 0.79948 95.3789 0.569041 94.8 0.567984H17.564Z" fill="#E0E0E0"/>
<path d="M181.324 113.608H104.084C103.479 113.607 102.898 113.366 102.47 112.938C102.042 112.51 101.801 111.929 101.8 111.324V2.75198C101.806 2.15003 102.05 1.57481 102.477 1.15102C102.905 0.727227 103.482 0.489003 104.084 0.487984H181.324C181.925 0.490066 182.501 0.728883 182.927 1.15267C183.353 1.57647 183.595 2.15108 183.6 2.75198V111.324C183.6 111.928 183.36 112.508 182.934 112.936C182.507 113.364 181.928 113.606 181.324 113.608ZM104.084 0.567984C103.505 0.569041 102.95 0.79948 102.541 1.20883C102.131 1.61818 101.901 2.17308 101.9 2.75198V111.324C101.901 111.903 102.131 112.458 102.541 112.867C102.95 113.276 103.505 113.507 104.084 113.508H181.324C181.903 113.507 182.458 113.276 182.867 112.867C183.277 112.458 183.507 111.903 183.508 111.324V2.75198C183.507 2.17308 183.277 1.61818 182.867 1.20883C182.458 0.79948 181.903 0.569041 181.324 0.567984H104.084Z" fill="#E0E0E0"/>
<path d="M168.488 84.8H158.296V131.448H168.488V84.8Z" fill="#E0E0E0"/>
<path d="M166.552 131.448H168.488V125.94H164.524L166.552 131.448Z" fill="#F0F0F0"/>
<path d="M130.4 84.8H120.208V131.448H130.4V84.8Z" fill="#E0E0E0"/>
<path d="M168.488 84.8H128.708V128.068H168.488V84.8Z" fill="#F0F0F0"/>
<path d="M149.248 106.88V121.184H166.988V106.88H149.248Z" fill="#E0E0E0"/>
<path d="M130.212 106.88V121.184H147.952V106.88H130.212Z" fill="#E0E0E0"/>
<path d="M140.836 108.424H137.324C136.57 108.424 135.824 108.27 135.131 107.971C134.439 107.673 133.814 107.236 133.296 106.688H144.864C144.346 107.236 143.722 107.673 143.029 107.971C142.336 108.27 141.59 108.424 140.836 108.424Z" fill="#F0F0F0"/>
<path d="M160.052 108.424H156.544C155.789 108.424 155.042 108.27 154.349 107.971C153.656 107.673 153.031 107.236 152.512 106.688H164.084C163.565 107.236 162.94 107.672 162.246 107.971C161.553 108.269 160.807 108.423 160.052 108.424Z" fill="#F0F0F0"/>
<path d="M149.248 88.056V102.36H166.988V88.056H149.248Z" fill="#E0E0E0"/>
<path d="M130.208 88.06V102.364H147.948V88.06H130.208Z" fill="#E0E0E0"/>
<path d="M140.836 89.6H137.324C136.57 89.5996 135.824 89.4459 135.132 89.1481C134.44 88.8504 133.815 88.4148 133.296 87.868H144.864C144.345 88.4148 143.721 88.8504 143.028 89.1481C142.336 89.4459 141.59 89.5996 140.836 89.6Z" fill="#F0F0F0"/>
<path d="M160.052 89.6H156.544C155.79 89.5997 155.043 89.446 154.35 89.1483C153.657 88.8505 153.031 88.4149 152.512 87.868H164.084C163.564 88.4146 162.939 88.8499 162.246 89.1476C161.553 89.4453 160.806 89.5992 160.052 89.6Z" fill="#F0F0F0"/>
<path d="M130.644 131.448H128.708V125.94H132.676L130.644 131.448Z" fill="#F0F0F0"/>
<path d="M138.548 77.492C138.548 79.276 139.788 80.516 138.004 80.516C136.22 80.516 132.092 79.276 132.092 77.492C132.092 76.6359 132.432 75.8148 133.037 75.2094C133.643 74.6041 134.464 74.264 135.32 74.264C136.176 74.264 136.997 74.6041 137.603 75.2094C138.208 75.8148 138.548 76.6359 138.548 77.492Z" fill="#E0E0E0"/>
<path d="M144.072 79.032C144.072 80.812 145.312 82.056 143.528 82.056C141.744 82.056 137.6 80.812 137.6 79.032C137.6 78.1759 137.94 77.3548 138.545 76.7494C139.151 76.1441 139.972 75.804 140.828 75.804C141.684 75.804 142.505 76.1441 143.111 76.7494C143.716 77.3548 144.056 78.1759 144.056 79.032H144.072Z" fill="#E0E0E0"/>
<path d="M149.364 78.088C149.364 79.868 150.604 81.112 148.82 81.112C147.036 81.112 142.908 79.868 142.908 78.088C142.908 77.2319 143.248 76.4108 143.853 75.8054C144.459 75.2001 145.28 74.86 146.136 74.86C146.992 74.86 147.813 75.2001 148.419 75.8054C149.024 76.4108 149.364 77.2319 149.364 78.088Z" fill="#E0E0E0"/>
<path d="M130.116 78.488C130.116 78.488 130.38 84.784 140.496 84.784C150.612 84.784 150.872 78.488 150.872 78.488H130.116Z" fill="#E6E6E6"/>
<path d="M168.912 8.08398H117.62V64.844H168.912V8.08398Z" fill="#E0E0E0"/>
<path d="M174.4 6.33198H114.3C114.233 6.33146 114.167 6.34421 114.104 6.3695C114.042 6.39479 113.986 6.43213 113.938 6.47935C113.891 6.52658 113.853 6.58276 113.827 6.64465C113.801 6.70655 113.788 6.77293 113.788 6.83998C113.788 6.97577 113.842 7.106 113.938 7.20202C114.034 7.29804 114.164 7.35199 114.3 7.35199H174.4C174.467 7.35199 174.534 7.33871 174.595 7.31293C174.657 7.28716 174.713 7.24938 174.761 7.20178C174.808 7.15419 174.845 7.09771 174.871 7.03562C174.896 6.97352 174.909 6.90703 174.908 6.83998C174.908 6.70525 174.855 6.57604 174.759 6.48077C174.664 6.3855 174.535 6.33198 174.4 6.33198Z" fill="#E0E0E0"/>
<path d="M171.088 8.08398H118.636V64.844H171.088V8.08398Z" fill="#E6E6E6"/>
<path d="M168.912 64.844H117.62V68.888H168.912V64.844Z" fill="#E0E0E0"/>
<path d="M174.712 64.844H122.26V68.888H174.712V64.844Z" fill="#E6E6E6"/>
<path d="M168.04 61.792V11.128L121.684 11.128V61.792H168.04Z" fill="#F5F5F5"/>
<path d="M132.208 61.796L150.092 11.132H158.532L140.648 61.796H132.208Z" fill="#FAFAFA"/>
<path d="M142.46 61.796L160.344 11.132H163.636L145.752 61.796H142.46Z" fill="#FAFAFA"/>
<path d="M168.04 61.796V11.132H167.652V61.796H168.04Z" fill="#E0E0E0"/>
<path d="M121.72 5.41998H116.476V54.308H121.72V5.41998Z" fill="#EBEBEB"/>
<path d="M123.76 5.41998H119.676V54.308H123.76V5.41998Z" fill="#E0E0E0"/>
<path d="M126.964 5.41998H121.72V54.308H126.964V5.41998Z" fill="#EBEBEB"/>
<path d="M129.004 5.41998H124.92V54.308H129.004V5.41998Z" fill="#E0E0E0"/>
<path d="M132.208 5.41998H126.964V54.308H132.208V5.41998Z" fill="#EBEBEB"/>
<path d="M166.088 5.41998H163.068V54.308H166.088V5.41998Z" fill="#EBEBEB"/>
<path d="M167.268 5.41998H164.912V54.308H167.268V5.41998Z" fill="#E0E0E0"/>
<path d="M169.108 5.41998H166.088V54.308H169.108V5.41998Z" fill="#EBEBEB"/>
<path d="M170.288 5.41998H167.932V54.308H170.288V5.41998Z" fill="#E0E0E0"/>
<path d="M172.132 5.41998H169.112V54.308H172.132V5.41998Z" fill="#EBEBEB"/>
<path d="M44.148 20.744H38.684V35.652H44.148V20.744Z" fill="#E6E6E6"/>
<path d="M31.2161 39.064L29.4801 43.8H31.2161L41.8401 39.064H31.2161Z" fill="#F0F0F0"/>
<path d="M29.4801 39.064V43.8L40.1081 39.064H29.4801Z" fill="#E0E0E0"/>
<path d="M72.88 39.064L71.148 43.8H72.88L83.5081 39.064H72.88Z" fill="#F0F0F0"/>
<path d="M71.148 39.064V43.8L81.772 39.064H71.148Z" fill="#E0E0E0"/>
<path d="M21.684 39.288H33.24V35.684H21.684V39.288Z" fill="#E0E0E0"/>
<path d="M90.6879 35.684H33.2359V39.288H90.6879V35.684Z" fill="#F0F0F0"/>
<path d="M53.2479 35.652H39.9479L38.3039 17.584H51.6039L53.2479 35.652Z" fill="#E0E0E0"/>
<path d="M53.936 35.652H40.64L38.992 17.584H52.292L53.936 35.652Z" fill="#F0F0F0"/>
<path d="M42.456 33.652L41.176 19.584H50.476L51.756 33.652H42.456Z" fill="#FAFAFA"/>
<path d="M59.3039 29.784C59.3039 29.784 59.5479 35.652 68.9759 35.652C78.4039 35.652 78.6479 29.784 78.6479 29.784H59.3039Z" fill="#E6E6E6"/>
<path d="M49.5039 130.152H34.9319C34.602 130.159 34.2787 130.059 34.0096 129.868C33.7405 129.677 33.5399 129.405 33.4373 129.091C33.3347 128.777 33.3355 128.439 33.4397 128.126C33.5439 127.813 33.7459 127.542 34.0159 127.352L34.2519 127.672C34.06 127.816 33.918 128.016 33.846 128.245C33.774 128.473 33.7758 128.719 33.8509 128.947C33.9261 129.174 34.0709 129.373 34.2648 129.514C34.4588 129.654 34.6922 129.731 34.9319 129.732H49.5039C50.3969 129.731 51.2529 129.376 51.8843 128.744C52.5157 128.113 52.8709 127.257 52.8719 126.364V83.24C52.873 82.2682 53.2592 81.3364 53.946 80.6489C54.6328 79.9614 55.5641 79.5741 56.5359 79.572H60.8959V79.972H56.5359C55.6702 79.9741 54.8407 80.3192 54.2289 80.9317C53.6171 81.5443 53.273 82.3743 53.2719 83.24V126.384C53.2698 127.383 52.8722 128.34 52.166 129.046C51.4598 129.752 50.5026 130.15 49.5039 130.152Z" fill="#E0E0E0"/>
<path d="M98.1799 80.396H71.9359V131.448H98.1799V80.396Z" fill="#E0E0E0"/>
<path d="M99.1679 80.396H97.0039V131.448H99.1679V80.396Z" fill="#EBEBEB"/>
<path d="M47.6519 84.224H99.8359V80.396H47.6519V84.224Z" fill="#EBEBEB"/>
<path d="M47.3401 80.396H21.0961V131.448H47.3401V80.396Z" fill="#E0E0E0"/>
<path d="M48.324 80.396H46.16V131.448H48.324V80.396Z" fill="#EBEBEB"/>
<path d="M39.2119 65.156H63.6679L67.2119 79.596H42.7559L39.2119 65.156Z" fill="#E0E0E0"/>
<path d="M42.7561 79.596L42.8561 80.396H67.3121L67.2161 79.596H42.7561Z" fill="#E0E0E0"/>
<path d="M39.968 65.156H64.424L67.968 79.596H43.512L39.968 65.156Z" fill="#F0F0F0"/>
<path d="M44.028 78.936L40.808 65.816H63.904L67.124 78.936H44.028Z" fill="#FAFAFA"/>
<path d="M49.884 79.596L49.98 80.396H76.912L76.812 79.596H49.884Z" fill="#F0F0F0"/>
<path d="M30.8279 76.756C30.8279 76.756 27.2279 70.552 32.2239 65.612C32.2239 65.612 33.5239 66.464 33.5039 67.612C33.4839 68.76 32.1119 69.044 32.4039 70.012C32.6959 70.98 34.0039 71.9 33.1479 72.688C32.2919 73.476 33.2839 74.176 33.2279 75.144C33.1719 76.112 30.8279 76.756 30.8279 76.756Z" fill="#F0F0F0"/>
<path d="M31.0999 77.324C31.0999 77.324 32.5599 70.3 26.2639 67.188C26.2639 67.188 25.2959 68.408 25.6759 69.484C26.0559 70.56 27.4519 70.4 27.4719 71.4C27.4919 72.4 26.5519 73.692 27.6119 74.172C28.6719 74.652 27.9479 75.628 28.3079 76.524C28.6679 77.42 31.0999 77.324 31.0999 77.324Z" fill="#F0F0F0"/>
<path d="M25.6 75.768C25.6 75.768 25.72 80.396 30.308 80.396C34.896 80.396 35.004 75.768 35.004 75.768H25.6Z" fill="#E0E0E0"/>
<path d="M90.296 131.448H89.384L86.772 118.584L86.316 116.332L83.468 102.332H72.552L66.636 131.448H65.724L71.752 101.776C71.7717 101.675 71.826 101.584 71.9056 101.519C71.9853 101.454 72.0852 101.419 72.188 101.42H83.832C83.9348 101.419 84.0347 101.454 84.1144 101.519C84.194 101.584 84.2484 101.675 84.268 101.776L86.768 114.088L87.228 116.34L90.296 131.448Z" fill="#EBEBEB"/>
<path d="M107.82 131.448H106.904L100.988 102.316H90.076L87.2281 116.34L86.772 118.584L84.16 131.448H83.248L86.316 116.332L86.768 114.088L89.272 101.776C89.2917 101.675 89.346 101.584 89.4257 101.519C89.5053 101.454 89.6052 101.419 89.7081 101.42H101.352C101.455 101.42 101.555 101.455 101.635 101.52C101.716 101.585 101.771 101.675 101.792 101.776L107.82 131.448Z" fill="#EBEBEB"/>
<path d="M80.916 101.868H100.972C102.812 101.866 104.578 101.144 105.892 99.8556C107.206 98.5673 107.962 96.8156 108 94.976L108.748 64.496C108.759 63.8165 108.634 63.1418 108.382 62.5109C108.129 61.88 107.754 61.3055 107.277 60.821C106.801 60.3364 106.233 59.9513 105.607 59.6882C104.98 59.425 104.308 59.289 103.628 59.288H91.056C89.7976 59.2886 88.5833 59.752 87.6443 60.5899C86.7054 61.4278 86.1073 62.5817 85.964 63.832L80.916 101.868Z" fill="#E6E6E6"/>
<path d="M91.852 101.868H70.48C70.2147 101.868 69.9604 101.763 69.7729 101.575C69.5853 101.388 69.48 101.133 69.48 100.868V100.772C69.48 100.043 69.7695 99.3442 70.2848 98.8289C70.8002 98.3135 71.4991 98.024 72.228 98.024H91.852V101.868Z" fill="#E6E6E6"/>
<path d="M99.9999 149.512C142.833 149.512 177.556 147.485 177.556 144.984C177.556 142.483 142.833 140.456 99.9999 140.456C57.167 140.456 22.4439 142.483 22.4439 144.984C22.4439 147.485 57.167 149.512 99.9999 149.512Z" fill="#F5F5F5"/>
<path d="M110.576 46.816L110.836 47.036C110.932 47.12 111.04 47.2 111.144 47.28C111.352 47.444 111.544 47.608 111.784 47.764C112.216 48.08 112.676 48.368 113.136 48.656C114.064 49.2279 115.037 49.7242 116.044 50.14C117.048 50.5675 118.081 50.9205 119.136 51.196C119.4 51.268 119.672 51.316 119.936 51.376L120.336 51.464C120.42 51.464 120.336 51.464 120.336 51.484C120.282 51.4968 120.23 51.5199 120.184 51.552C120.148 51.588 120.148 51.588 120.164 51.58C120.243 51.4627 120.305 51.3348 120.348 51.2C120.49 50.7385 120.577 50.2619 120.608 49.78C120.656 49.256 120.672 48.704 120.668 48.148C120.668 47.032 120.58 45.892 120.492 44.748C120.404 43.604 120.264 42.456 120.116 41.304C119.968 40.152 119.804 39 119.632 37.864L121.136 37.52C121.799 39.803 122.333 42.1213 122.736 44.464C122.946 45.6553 123.091 46.8571 123.172 48.064C123.219 48.6868 123.234 49.3116 123.216 49.936C123.211 50.6252 123.123 51.3113 122.956 51.98C122.843 52.4076 122.659 52.8132 122.412 53.18C122.239 53.43 122.024 53.648 121.776 53.824C121.492 54.0273 121.165 54.164 120.82 54.224C120.524 54.274 120.221 54.274 119.924 54.224L119.464 54.148C119.156 54.096 118.844 54.056 118.54 53.988C117.314 53.7444 116.11 53.3992 114.94 52.956C113.771 52.5075 112.641 51.9643 111.56 51.332C111.02 51.008 110.492 50.668 109.98 50.296C109.724 50.112 109.472 49.896 109.22 49.72C109.096 49.616 108.972 49.516 108.848 49.404C108.724 49.292 108.608 49.2 108.448 49.048L110.576 46.816Z" fill="#E4897B"/>
<path d="M106.228 44.996C110.628 44.4 114.164 47.948 114.164 47.948L110.14 54.156C110.14 54.156 105.828 51.396 105.068 49.516C104.284 47.56 103.976 45.288 106.228 44.996Z" fill="#FA1239"/>
<path opacity="0.6" d="M106.228 44.996C110.628 44.4 114.164 47.948 114.164 47.948L110.14 54.156C110.14 54.156 105.828 51.396 105.068 49.516C104.284 47.56 103.976 45.288 106.228 44.996Z" fill="#FAFAFA"/>
<path d="M119.668 38.404L118.208 35.476L122.036 35.444C122.036 35.444 122.112 37.488 121.144 38.644L119.668 38.404Z" fill="#E4897B"/>
<path d="M118.888 32.328L121.736 32.836L122.036 35.444L118.208 35.476L118.888 32.328Z" fill="#E4897B"/>
<path d="M90.6684 141.636L94.2524 141.98L96.7324 133.564L93.1484 133.216L90.6684 141.636Z" fill="#E4897B"/>
<path d="M67.8803 129.188L70.5363 131.684L76.2723 125.38L73.6163 122.884L67.8803 129.188Z" fill="#E4897B"/>
<path d="M71.7643 130.488L69.7643 126.888C69.7303 126.826 69.6751 126.779 69.609 126.755C69.5428 126.73 69.4701 126.731 69.4043 126.756L66.3283 127.924C66.2521 127.957 66.1836 128.005 66.1273 128.066C66.071 128.126 66.028 128.198 66.0013 128.277C65.9745 128.355 65.9645 128.438 65.9719 128.521C65.9793 128.604 66.004 128.684 66.0443 128.756C66.7603 129.996 67.1723 130.56 68.0443 132.14C68.5843 133.116 69.6443 135.34 70.3843 136.692C71.1243 138.044 72.4963 137.368 72.3083 136.744C71.4523 133.944 71.6163 132.372 71.8563 131.144C71.9044 130.921 71.8718 130.689 71.7643 130.488Z" fill="#263238"/>
<path d="M94.6723 140.888H90.3283C90.2506 140.889 90.1753 140.915 90.1139 140.963C90.0525 141.01 90.0084 141.077 89.9883 141.152L89.0403 144.588C89.018 144.669 89.0149 144.755 89.0312 144.838C89.0476 144.92 89.083 144.998 89.1346 145.065C89.1862 145.132 89.2526 145.185 89.3285 145.222C89.4045 145.259 89.488 145.277 89.5723 145.276C91.1043 145.276 91.8283 145.276 93.7403 145.276H99.5763C101.176 145.276 101.496 143.676 100.84 143.524C97.8963 142.876 96.1963 141.976 95.2883 141.124C95.12 140.971 94.9001 140.886 94.6723 140.888Z" fill="#263238"/>
<path d="M96.7323 133.564L95.4523 137.904H91.7643L93.1443 133.22L96.7323 133.564Z" fill="#CE6F64"/>
<path d="M73.6122 122.888L76.2722 125.38L73.3122 128.628L70.6562 126.136L73.6122 122.888Z" fill="#CE6F64"/>
<path d="M110.564 42.512C110.536 39.604 107.904 38.588 107.904 38.588C107.904 38.588 111.196 32.356 109.504 28.22C107.812 24.084 102.236 23.356 100.468 25.288C97.3604 25.156 96.3724 29.62 96.3724 29.62C96.3724 29.62 93.7724 30.056 93.0724 31.948C92.3724 33.84 94.5044 35.972 94.5044 35.972C94.5044 35.972 91.5364 36.372 90.4444 38.656C89.3524 40.94 90.0244 43.972 93.3044 46.588C98.0724 50.388 106.836 45.62 106.836 45.62C106.836 45.62 110.596 45.856 110.564 42.512Z" fill="#263238"/>
<path d="M110 45.404C110 45.404 111.6 46.104 106.256 67.212L91.4563 65.928C92.2243 59.928 92.5563 56.2 90.7443 43.576C92.8559 43.3263 94.9829 43.2313 97.1083 43.292C99.3619 43.3259 101.61 43.5198 103.836 43.872C105.915 44.2794 107.973 44.7907 110 45.404Z" fill="#FA1239"/>
<path opacity="0.6" d="M110 45.404C110 45.404 111.6 46.104 106.256 67.212L91.4563 65.928C92.2243 59.928 92.5563 56.2 90.7443 43.576C92.8559 43.3263 94.9829 43.2313 97.1083 43.292C99.3619 43.3259 101.61 43.5198 103.836 43.872C105.915 44.2794 107.973 44.7907 110 45.404Z" fill="#FAFAFA"/>
<path d="M106.164 44.372C105.396 44.188 104.564 44.012 103.804 43.872C101.578 43.5184 99.3299 43.3233 97.0762 43.288C96.3042 43.26 95.5322 43.26 94.8082 43.288L95.3042 44.232C95.3922 44.4 97.5042 48.34 101.516 50.576L102.62 51.192L103.648 50.46C106.24 48.608 106.624 46.2 106.164 44.372Z" fill="#FAFAFA"/>
<path d="M98.4003 35.772C98.6363 37.976 98.7163 41.98 97.0803 43.292C97.0803 43.292 98.9523 46.848 102.496 48.82C105.632 46.588 103.808 43.872 103.808 43.872C101.444 43.072 101.66 41.304 102.208 39.656L98.4003 35.772Z" fill="#E4897B"/>
<path d="M99.9563 37.356L102.22 39.656C102.082 40.0382 101.978 40.4317 101.908 40.832C101 40.62 99.6803 39.672 99.6643 38.696C99.6824 38.2357 99.7813 37.7821 99.9563 37.356Z" fill="#CE6F64"/>
<path d="M98.3043 30.772C97.8683 34.372 97.6083 35.896 99.0763 38.06C101.284 41.308 105.812 41.052 107.312 37.66C108.664 34.596 109.148 29.212 105.912 27.152C105.203 26.6953 104.388 26.4274 103.546 26.3735C102.704 26.3196 101.863 26.4816 101.101 26.8441C100.339 27.2067 99.682 27.7577 99.1926 28.4451C98.7033 29.1325 98.3975 29.9334 98.3043 30.772Z" fill="#E4897B"/>
<path d="M101.096 26.336C103.876 27.056 101.128 35.512 96.6963 33.06C96.6963 33.06 96.8963 29.488 98.1283 27.972C98.8734 27.0688 99.9348 26.4837 101.096 26.336Z" fill="#263238"/>
<path d="M100.8 26.804C102 28.756 110.9 32.456 107.908 28.256C104.916 24.056 100.8 26.804 100.8 26.804Z" fill="#263238"/>
<path d="M97.1603 33.888C97.1104 34.5893 97.3389 35.282 97.7963 35.816C98.4123 36.516 99.2243 36.092 99.4803 35.244C99.7083 34.484 99.6643 33.204 98.8443 32.812C98.6633 32.7322 98.4654 32.6983 98.2682 32.7135C98.071 32.7286 97.8806 32.7923 97.714 32.8988C97.5473 33.0053 97.4095 33.1513 97.3129 33.3239C97.2163 33.4965 97.1639 33.6902 97.1603 33.888Z" fill="#E4897B"/>
<path d="M106.24 67.212C106.24 67.212 111.252 89.388 107.908 105.02C105.668 115.492 97.5843 136.644 97.5843 136.644L91.2643 136.484C91.2643 136.484 97.3803 114.284 98.6483 105.556C100.812 90.62 95.3923 66.272 95.3923 66.272L106.24 67.212Z" fill="#263238"/>
<path d="M100.46 71.688L97.3002 76.672C98.2526 82.582 98.8563 88.543 99.1082 94.524C103.552 86.568 101.448 75.9 100.46 71.688Z" fill="#263238"/>
<path d="M98.1043 136.972L90.2963 136.772L90.7483 134.376L99.2723 134.78L98.1043 136.972Z" fill="#FA1239"/>
<path opacity="0.6" d="M98.1043 136.972L90.2963 136.772L90.7483 134.376L99.2723 134.78L98.1043 136.972Z" fill="#FAFAFA"/>
<path d="M103 66.972C103 66.972 100.06 90.492 93.6843 103.332C88.5363 113.688 74.8003 128.488 74.8003 128.488L71.2883 124.868C71.2883 124.868 80.5683 108.824 84.3963 101.932C93.7803 85.04 86.1083 72.152 91.4283 65.932L103 66.972Z" fill="#263238"/>
<path d="M75.1522 128.952L70.6162 124.532L72.1242 122.484L77.0642 127.592L75.1522 128.952Z" fill="#FA1239"/>
<path opacity="0.6" d="M75.1522 128.952L70.6162 124.532L72.1242 122.484L77.0642 127.592L75.1522 128.952Z" fill="#FAFAFA"/>
<path d="M91.2762 65.04L90.4962 66.308C90.4322 66.408 90.5482 66.524 90.7162 66.536L106.256 67.88C106.392 67.88 106.508 67.836 106.524 67.752L106.772 66.44C106.772 66.348 106.68 66.26 106.532 66.248L91.5282 64.948C91.4818 64.9402 91.4342 64.9446 91.39 64.9608C91.3459 64.9769 91.3067 65.0042 91.2762 65.04Z" fill="#FA1239"/>
<path opacity="0.3" d="M91.2762 65.04L90.4962 66.308C90.4322 66.408 90.5482 66.524 90.7162 66.536L106.256 67.88C106.392 67.88 106.508 67.836 106.524 67.752L106.772 66.44C106.772 66.348 106.68 66.26 106.532 66.248L91.5282 64.948C91.4818 64.9402 91.4342 64.9446 91.39 64.9608C91.3459 64.9769 91.3067 65.0042 91.2762 65.04Z" fill="black"/>
<path d="M93.1483 66.888L92.7483 66.852C92.6683 66.852 92.6123 66.8 92.6203 66.748L92.9603 65.044C92.9603 64.992 93.0443 64.956 93.1243 64.964L93.5243 65C93.6043 65 93.6603 65.052 93.6523 65.104L93.3163 66.808C93.3003 66.864 93.2283 66.888 93.1483 66.888Z" fill="#263238"/>
<path d="M105.116 67.928L104.716 67.892C104.636 67.892 104.58 67.84 104.588 67.788L104.928 66.08C104.928 66.032 105.012 65.996 105.092 66.004L105.492 66.04C105.572 66.04 105.628 66.092 105.62 66.14L105.284 67.848C105.268 67.9 105.2 67.932 105.116 67.928Z" fill="#263238"/>
<path d="M99.1323 67.408L98.7323 67.376C98.6523 67.376 98.5963 67.32 98.6043 67.272L98.9443 65.564C98.9443 65.516 99.0283 65.48 99.1083 65.488L99.5083 65.52C99.5883 65.52 99.6443 65.576 99.6363 65.624L99.3003 67.332C99.2843 67.38 99.2003 67.416 99.1323 67.408Z" fill="#263238"/>
<path d="M103.532 32.76C103.48 33.048 103.592 33.312 103.78 33.348C103.968 33.384 104.18 33.176 104.22 32.884C104.26 32.592 104.164 32.328 103.972 32.296C103.78 32.264 103.6 32.488 103.532 32.76Z" fill="#263238"/>
<path d="M106.8 33.36C106.748 33.648 106.86 33.912 107.048 33.948C107.236 33.984 107.448 33.776 107.488 33.484C107.528 33.192 107.432 32.928 107.24 32.896C107.048 32.864 106.872 33.068 106.8 33.36Z" fill="#263238"/>
<path d="M107.172 32.888L107.904 32.816C107.904 32.816 107.448 33.288 107.172 32.888Z" fill="#263238"/>
<path d="M105.856 33.688C105.996 34.3978 106.232 35.0854 106.556 35.732C106.388 35.8103 106.205 35.8508 106.02 35.8508C105.835 35.8508 105.652 35.8103 105.484 35.732L105.856 33.688Z" fill="#DE5753"/>
<path d="M104.268 36.692C103.878 36.6315 103.508 36.4783 103.189 36.2451C102.87 36.0119 102.612 35.7056 102.436 35.352C102.43 35.3345 102.43 35.3151 102.438 35.2979C102.445 35.2807 102.459 35.2671 102.476 35.26C102.485 35.256 102.494 35.2539 102.503 35.2535C102.512 35.2532 102.521 35.2548 102.53 35.2582C102.539 35.2616 102.546 35.2666 102.553 35.2731C102.56 35.2796 102.565 35.2874 102.568 35.296C102.737 35.6256 102.981 35.9108 103.28 36.1284C103.58 36.346 103.927 36.4897 104.292 36.548C104.311 36.548 104.33 36.5556 104.343 36.5691C104.357 36.5826 104.364 36.6009 104.364 36.62C104.364 36.6391 104.357 36.6574 104.343 36.6709C104.33 36.6844 104.311 36.692 104.292 36.692H104.268Z" fill="#263238"/>
<path d="M102.752 30.488C102.722 30.4886 102.692 30.4794 102.667 30.4618C102.642 30.4442 102.623 30.4191 102.613 30.3902C102.603 30.3612 102.603 30.3299 102.612 30.3007C102.621 30.2716 102.64 30.2461 102.664 30.228C102.875 30.0583 103.123 29.9417 103.389 29.8881C103.654 29.8345 103.928 29.8454 104.188 29.92C104.206 29.9263 104.223 29.936 104.237 29.9487C104.251 29.9613 104.262 29.9766 104.27 29.9937C104.279 30.0108 104.283 30.0294 104.284 30.0483C104.285 30.0672 104.283 30.0861 104.276 30.104C104.27 30.1219 104.26 30.1383 104.248 30.1524C104.235 30.1665 104.22 30.178 104.202 30.1862C104.185 30.1944 104.167 30.1991 104.148 30.2001C104.129 30.2011 104.11 30.1983 104.092 30.192C103.878 30.133 103.652 30.1262 103.434 30.1721C103.216 30.218 103.013 30.3154 102.84 30.456C102.815 30.4752 102.784 30.4863 102.752 30.488Z" fill="#263238"/>
<path d="M108.672 32.256C108.651 32.2559 108.63 32.2512 108.611 32.2422C108.591 32.2332 108.574 32.2202 108.56 32.204C108.424 32.0278 108.247 31.8863 108.046 31.7911C107.844 31.6958 107.623 31.6496 107.4 31.656C107.362 31.6594 107.324 31.648 107.294 31.6241C107.265 31.6003 107.245 31.5658 107.24 31.528C107.238 31.5093 107.24 31.4903 107.245 31.4722C107.25 31.4541 107.259 31.4373 107.271 31.4227C107.283 31.4082 107.298 31.3962 107.314 31.3875C107.331 31.3787 107.349 31.3735 107.368 31.372C107.639 31.358 107.909 31.4097 108.156 31.5225C108.402 31.6353 108.618 31.806 108.784 32.02C108.81 32.0475 108.825 32.084 108.825 32.122C108.825 32.16 108.81 32.1965 108.784 32.224C108.752 32.2483 108.712 32.2598 108.672 32.256Z" fill="#263238"/>
<path d="M91.8363 48.888C91.2347 50.0816 90.567 51.2407 89.8363 52.36C89.1163 53.464 88.3563 54.544 87.5363 55.584C86.7077 56.6277 85.8196 57.6227 84.8763 58.564C84.3883 59.024 83.9123 59.492 83.3883 59.924L82.9883 60.252L82.8923 60.332L82.7643 60.432C82.6799 60.5008 82.5918 60.5649 82.5003 60.624C82.1366 60.8732 81.7411 61.0723 81.3243 61.216C80.5394 61.472 79.7101 61.5632 78.8883 61.484C78.1521 61.4104 77.4272 61.2506 76.7283 61.008C75.4336 60.5563 74.1991 59.9477 73.0523 59.196C70.8458 57.7647 68.8134 56.0813 66.9963 54.18L68.0603 53.064C69.0163 53.832 70.0243 54.596 71.0563 55.288C72.0671 55.996 73.1197 56.6426 74.2083 57.224C75.2447 57.7933 76.3389 58.2506 77.4723 58.588C78.5523 58.888 79.6363 58.94 80.3843 58.628C80.8069 58.4442 81.1849 58.1713 81.4923 57.828C81.9363 57.428 82.3483 56.984 82.7683 56.552C83.5883 55.66 84.3483 54.704 85.0963 53.752C85.8443 52.8 86.5203 51.752 87.1763 50.712C87.5083 50.192 87.8243 49.664 88.1363 49.136C88.4483 48.608 88.7483 48.052 89.0083 47.556L91.8363 48.888Z" fill="#E4897B"/>
<path d="M69.0723 53.54L67.6483 50.596L65.2803 53.604C65.2803 53.604 66.8483 54.912 68.3723 54.864L69.0723 53.54Z" fill="#E4897B"/>
<path d="M66.0923 49.736L64.7523 52.3L65.2803 53.604L67.6483 50.596L66.0923 49.736Z" fill="#E4897B"/>
<path d="M90.7123 43.576C88.8963 43.896 86.3483 49.108 86.3483 49.108L91.3363 53.616C91.3363 53.616 94.5683 49.276 94.3763 46.908C94.2123 44.888 93.0243 43.168 90.7123 43.576Z" fill="#FA1239"/>
<path opacity="0.6" d="M90.7123 43.576C88.8963 43.896 86.3483 49.108 86.3483 49.108L91.3363 53.616C91.3363 53.616 94.5683 49.276 94.3763 46.908C94.2123 44.888 93.0243 43.168 90.7123 43.576Z" fill="#FAFAFA"/>
<path d="M72.4644 132.42C72.4166 132.42 72.3692 132.412 72.3244 132.396C71.8884 132.252 71.6043 131.448 71.4723 130.98C71.4684 130.966 71.4686 130.952 71.4729 130.938C71.4772 130.925 71.4853 130.913 71.4964 130.904C71.5085 130.897 71.5223 130.893 71.5364 130.893C71.5504 130.893 71.5642 130.897 71.5764 130.904C71.7084 130.972 72.8684 131.596 72.9044 132.052C72.9098 132.102 72.901 132.153 72.8791 132.198C72.8572 132.243 72.823 132.281 72.7804 132.308C72.6903 132.379 72.5792 132.419 72.4644 132.42ZM71.6644 131.108C71.8644 131.752 72.1243 132.176 72.3723 132.26C72.4289 132.277 72.4889 132.279 72.5464 132.265C72.6039 132.252 72.657 132.224 72.7004 132.184C72.7222 132.171 72.7399 132.152 72.7512 132.129C72.7626 132.107 72.7671 132.081 72.7644 132.056C72.7404 131.776 72.0604 131.332 71.6604 131.108H71.6644Z" fill="#FA1239"/>
<path d="M72.6442 131.288C72.2488 131.287 71.8589 131.195 71.5042 131.02C71.493 131.015 71.4837 131.006 71.4773 130.995C71.4709 130.985 71.4677 130.972 71.4682 130.96C71.4683 130.947 71.4721 130.934 71.4792 130.922C71.4862 130.911 71.4963 130.902 71.5082 130.896C71.5442 130.896 72.4642 130.372 72.9602 130.548C73.0212 130.568 73.077 130.601 73.1234 130.645C73.1698 130.69 73.2056 130.744 73.2282 130.804C73.2598 130.862 73.2707 130.929 73.2591 130.993C73.2474 131.058 73.214 131.117 73.1642 131.16C73.0095 131.258 72.8269 131.303 72.6442 131.288ZM71.7002 130.96C72.1002 131.128 72.8562 131.232 73.0722 131.048C73.1082 131.02 73.1402 130.968 73.0962 130.856C73.0803 130.815 73.0556 130.779 73.0237 130.749C72.9919 130.719 72.9538 130.697 72.9122 130.684C72.5722 130.564 71.9602 130.832 71.7002 130.96Z" fill="#FA1239"/>
<path d="M96.6003 141.592C96.1961 141.583 95.794 141.532 95.4003 141.44C95.3853 141.437 95.3719 141.429 95.3618 141.417C95.3517 141.406 95.3456 141.391 95.3443 141.376C95.3421 141.361 95.3449 141.346 95.3521 141.333C95.3594 141.32 95.3706 141.31 95.3843 141.304C95.5643 141.22 97.1363 140.504 97.5363 140.76C97.572 140.785 97.6004 140.818 97.6187 140.858C97.637 140.897 97.6444 140.941 97.6403 140.984C97.6355 141.062 97.6137 141.139 97.5764 141.208C97.5391 141.277 97.4872 141.337 97.4243 141.384C97.1768 141.535 96.8896 141.607 96.6003 141.592ZM95.6643 141.344C96.1323 141.432 96.9963 141.544 97.3523 141.276C97.3993 141.241 97.4381 141.196 97.4657 141.144C97.4934 141.092 97.5093 141.035 97.5123 140.976C97.5146 140.958 97.5122 140.939 97.5051 140.923C97.4981 140.906 97.4868 140.891 97.4723 140.88C97.2483 140.728 96.3163 141.056 95.6643 141.344Z" fill="#FA1239"/>
<path d="M95.4323 141.44C95.4169 141.446 95.3997 141.446 95.3843 141.44C95.3744 141.431 95.3669 141.42 95.3627 141.407C95.3585 141.395 95.3577 141.381 95.3603 141.368C95.3603 141.304 95.7363 139.748 96.5883 139.848C96.8043 139.872 96.8603 139.98 96.8723 140.064C96.9283 140.464 95.9323 141.264 95.4603 141.452L95.4323 141.44ZM96.5123 139.972C95.9643 139.972 95.6483 140.876 95.5403 141.24C96.0563 140.968 96.7643 140.32 96.7403 140.068C96.7403 140.048 96.7403 139.992 96.5843 139.976L96.5123 139.972Z" fill="#FA1239"/>
<path d="M103.888 32.296L104.62 32.22C104.62 32.22 104.164 32.7 103.888 32.296Z" fill="#263238"/>
<path opacity="0.6" d="M73.7963 9.49998L62.0723 85.288L128.04 95.48L139.764 19.688L73.7963 9.49998ZM100.9 52.608C97.8724 52.1394 95.0515 50.7832 92.7945 48.711C90.5375 46.6388 88.9459 43.9437 88.2209 40.9668C87.4959 37.9898 87.6703 34.8647 88.7218 31.9868C89.7733 29.109 91.6548 26.6076 94.1283 24.7993C96.6017 22.991 99.5559 21.9569 102.617 21.8279C105.678 21.699 108.709 22.4809 111.326 24.0747C113.943 25.6686 116.028 28.0028 117.318 30.782C118.608 33.5612 119.044 36.6606 118.572 39.688C117.94 43.7437 115.724 47.3826 112.41 49.8051C109.096 52.2277 104.957 53.2358 100.9 52.608Z" fill="#FA1239"/>
<g style="mix-blend-mode:multiply" opacity="0.3">
<path d="M126.048 92.604H125.948L59.8801 82.368V82.268L71.6361 6.39199H71.7321L137.8 16.628V16.728L126.048 92.604ZM60.1081 82.204L125.88 92.376L137.572 16.776L71.8001 6.61999L60.1081 82.204Z" fill="#FA1239"/>
</g>
<path d="M103.276 53.392C102.45 53.3911 101.625 53.3269 100.808 53.2C96.7047 52.5598 93.0086 50.3551 90.4954 47.0486C87.9822 43.7421 86.8474 39.5907 87.3289 35.4655C87.8104 31.3403 89.8709 27.5619 93.0781 24.9231C96.2853 22.2843 100.39 20.9903 104.531 21.3124C108.671 21.6345 112.526 23.5478 115.287 26.6509C118.047 29.7539 119.499 33.8055 119.336 37.9556C119.174 42.1056 117.411 46.0315 114.416 48.9096C111.422 51.7876 107.43 53.3941 103.276 53.392ZM100.992 52.016C103.901 52.4654 106.878 52.0422 109.547 50.7999C112.215 49.5575 114.456 47.5519 115.984 45.0364C117.513 42.521 118.261 39.6088 118.135 36.668C118.009 33.7272 117.013 30.8898 115.275 28.5147C113.536 26.1396 111.132 24.3333 108.367 23.3243C105.602 22.3153 102.6 22.1488 99.7398 22.846C96.88 23.5431 94.2911 25.0725 92.3005 27.2409C90.3099 29.4093 89.0069 32.1192 88.5563 35.028C87.9573 38.9292 88.9303 42.9087 91.2616 46.0934C93.593 49.2782 97.0925 51.4081 100.992 52.016Z" fill="#FAFAFA"/>
<path d="M88.1577 57.2969L73.6264 55.0499L73.1215 58.3151L87.6528 60.5621L88.1577 57.2969Z" fill="#FA1239"/>
<path opacity="0.6" d="M88.1577 57.2969L73.6264 55.0499L73.1215 58.3151L87.6528 60.5621L88.1577 57.2969Z" fill="#FAFAFA"/>
<path d="M99.9028 59.1136L90.0717 57.5934L89.5668 60.8586L99.398 62.3788L99.9028 59.1136Z" fill="#FA1239"/>
<path opacity="0.6" d="M99.9028 59.1136L90.0717 57.5934L89.5668 60.8586L99.398 62.3788L99.9028 59.1136Z" fill="#FAFAFA"/>
<path d="M125.148 69.7917L72.6008 61.6663L72.0959 64.9315L124.643 73.0569L125.148 69.7917Z" fill="#FAFAFA"/>
<path d="M98.0856 72.5355L71.91 68.5695L71.4144 71.8405L97.59 75.8065L98.0856 72.5355Z" fill="#FAFAFA"/>
<path d="M119.61 76.0441L102.13 73.3411L101.625 76.6063L119.105 79.3093L119.61 76.0441Z" fill="#FAFAFA"/>
<path d="M112.464 82.0501L70.4557 75.5544L69.9508 78.8196L111.96 85.3153L112.464 82.0501Z" fill="#FAFAFA"/>
<path d="M140.468 95.48H140.068C140.07 94.4873 139.947 93.4984 139.704 92.536L140.104 92.44C140.352 93.4342 140.474 94.4555 140.468 95.48ZM138.9 90.312C138.02 88.47 136.69 86.8797 135.032 85.688L135.264 85.364C136.976 86.5931 138.351 88.2326 139.264 90.132L138.9 90.312Z" fill="#FA1239"/>
<path opacity="0.6" d="M140.468 95.48H140.068C140.07 94.4873 139.947 93.4984 139.704 92.536L140.104 92.44C140.352 93.4342 140.474 94.4555 140.468 95.48ZM138.9 90.312C138.02 88.47 136.69 86.8797 135.032 85.688L135.264 85.364C136.976 86.5931 138.351 88.2326 139.264 90.132L138.9 90.312Z" fill="#FAFAFA"/>
<path d="M128.04 84.452C125.859 84.452 123.727 85.0988 121.913 86.3105C120.1 87.5223 118.686 89.2446 117.852 91.2597C117.017 93.2748 116.799 95.4922 117.224 97.6314C117.65 99.7707 118.7 101.736 120.242 103.278C121.785 104.82 123.75 105.871 125.889 106.296C128.028 106.722 130.245 106.503 132.261 105.669C134.276 104.834 135.998 103.42 137.21 101.607C138.422 99.7933 139.068 97.6611 139.068 95.48C139.068 92.5552 137.906 89.7502 135.838 87.682C133.77 85.6139 130.965 84.452 128.04 84.452ZM128.04 105.08C126.142 105.08 124.286 104.517 122.707 103.462C121.128 102.407 119.898 100.908 119.171 99.1537C118.444 97.3996 118.254 95.4693 118.625 93.6071C118.995 91.7449 119.909 90.0343 121.252 88.6918C122.595 87.3492 124.305 86.4349 126.167 86.0644C128.03 85.694 129.96 85.8841 131.714 86.6107C133.468 87.3373 134.968 88.5678 136.022 90.1465C137.077 91.7252 137.64 93.5813 137.64 95.48C137.64 98.0261 136.629 100.468 134.829 102.268C133.028 104.069 130.586 105.08 128.04 105.08Z" fill="#FA1239"/>
<path opacity="0.6" d="M128.04 84.452C125.859 84.452 123.727 85.0988 121.913 86.3105C120.1 87.5223 118.686 89.2446 117.852 91.2597C117.017 93.2748 116.799 95.4922 117.224 97.6314C117.65 99.7707 118.7 101.736 120.242 103.278C121.785 104.82 123.75 105.871 125.889 106.296C128.028 106.722 130.245 106.503 132.261 105.669C134.276 104.834 135.998 103.42 137.21 101.607C138.422 99.7933 139.068 97.6611 139.068 95.48C139.068 92.5552 137.906 89.7502 135.838 87.682C133.77 85.6139 130.965 84.452 128.04 84.452ZM128.04 105.08C126.142 105.08 124.286 104.517 122.707 103.462C121.128 102.407 119.898 100.908 119.171 99.1537C118.444 97.3996 118.254 95.4693 118.625 93.6071C118.995 91.7449 119.909 90.0343 121.252 88.6918C122.595 87.3492 124.305 86.4349 126.167 86.0644C128.03 85.694 129.96 85.8841 131.714 86.6107C133.468 87.3373 134.968 88.5678 136.022 90.1465C137.077 91.7252 137.64 93.5813 137.64 95.48C137.64 98.0261 136.629 100.468 134.829 102.268C133.028 104.069 130.586 105.08 128.04 105.08Z" fill="#FAFAFA"/>
<path d="M128.04 105.076C133.34 105.076 137.636 100.78 137.636 95.48C137.636 90.1803 133.34 85.884 128.04 85.884C122.741 85.884 118.444 90.1803 118.444 95.48C118.444 100.78 122.741 105.076 128.04 105.076Z" fill="#FA1239"/>
<path opacity="0.2" d="M128.04 105.076C133.34 105.076 137.636 100.78 137.636 95.48C137.636 90.1803 133.34 85.884 128.04 85.884C122.741 85.884 118.444 90.1803 118.444 95.48C118.444 100.78 122.741 105.076 128.04 105.076Z" fill="black"/>
<path d="M126.548 101.552L120.916 95.92L122.332 94.508L126.548 98.724L133.752 91.52L135.164 92.936L126.548 101.552Z" fill="#FAFAFA"/>
</svg>
