<svg width="200" height="150" viewBox="0 0 200 150" fill="none" xmlns="http://www.w3.org/2000/svg">
<path d="M200 131.448H0V131.548H200V131.448Z" fill="#EBEBEB"/>
<path d="M179.96 137.884H166.712V137.984H179.96V137.884Z" fill="#EBEBEB"/>
<path d="M132.488 138.972H129.012V139.072H132.488V138.972Z" fill="#EBEBEB"/>
<path d="M166.312 134.172H158.636V134.272H166.312V134.172Z" fill="#EBEBEB"/>
<path d="M38.26 134.844H20.984V134.944H38.26V134.844Z" fill="#EBEBEB"/>
<path d="M44.356 134.844H41.824V134.944H44.356V134.844Z" fill="#EBEBEB"/>
<path d="M90.0601 136.532H52.5881V136.632H90.0601V136.532Z" fill="#EBEBEB"/>
<path d="M94.8 113.608H17.564C16.9589 113.607 16.379 113.366 15.9515 112.938C15.5241 112.509 15.284 111.929 15.284 111.324V2.75198C15.2892 2.15039 15.5317 1.57517 15.9586 1.15126C16.3855 0.727359 16.9624 0.489007 17.564 0.487976H94.8C95.4057 0.487976 95.9867 0.728611 96.415 1.15694C96.8433 1.58528 97.084 2.16622 97.084 2.77198V111.324C97.084 111.93 96.8433 112.511 96.415 112.939C95.9867 113.367 95.4057 113.608 94.8 113.608ZM17.564 0.567976C16.9854 0.569036 16.431 0.799602 16.0222 1.20907C15.6135 1.61853 15.384 2.17344 15.384 2.75198V111.324C15.384 111.903 15.6135 112.457 16.0222 112.867C16.431 113.276 16.9854 113.507 17.564 113.508H94.8C95.3789 113.507 95.9338 113.276 96.3431 112.867C96.7525 112.458 96.9829 111.903 96.984 111.324V2.75198C96.9829 2.17307 96.7525 1.61817 96.3431 1.20882C95.9338 0.799472 95.3789 0.569034 94.8 0.567976H17.564Z" fill="#EBEBEB"/>
<path d="M181.324 113.608H104.084C103.479 113.607 102.898 113.366 102.47 112.938C102.042 112.51 101.801 111.929 101.8 111.324V2.75198C101.806 2.15002 102.05 1.57481 102.477 1.15101C102.905 0.72722 103.482 0.488995 104.084 0.487976H181.324C181.925 0.490058 182.501 0.728876 182.927 1.15267C183.353 1.57646 183.595 2.15108 183.6 2.75198V111.324C183.6 111.928 183.36 112.508 182.934 112.936C182.507 113.364 181.928 113.606 181.324 113.608ZM104.084 0.567976C103.505 0.569034 102.95 0.799472 102.541 1.20882C102.131 1.61817 101.901 2.17307 101.9 2.75198V111.324C101.901 111.903 102.131 112.458 102.541 112.867C102.95 113.276 103.505 113.507 104.084 113.508H181.324C181.903 113.507 182.458 113.276 182.867 112.867C183.277 112.458 183.507 111.903 183.508 111.324V2.75198C183.507 2.17307 183.277 1.61817 182.867 1.20882C182.458 0.799472 181.903 0.569034 181.324 0.567976H104.084Z" fill="#EBEBEB"/>
<path d="M149.264 30.492H143.596V48.136H149.264V30.492Z" fill="#E6E6E6"/>
<path d="M164.628 48.136H145.82L142.98 27.484H161.788L164.628 48.136Z" fill="#F0F0F0"/>
<path d="M166.664 48.136H147.24L144.4 27.484H163.824L166.664 48.136Z" fill="#F5F5F5"/>
<path d="M148.644 46.508L146.252 29.112H162.42L164.816 46.508H148.644Z" fill="white"/>
<path d="M151.84 41.24L150.94 34.712C150.913 34.5397 150.924 34.3636 150.973 34.1961C151.021 34.0285 151.105 33.8735 151.219 33.7418C151.333 33.61 151.475 33.5048 151.634 33.4333C151.793 33.3619 151.966 33.3259 152.14 33.328H158.016C158.31 33.3257 158.595 33.4316 158.816 33.6256C159.037 33.8195 159.18 34.088 159.216 34.38L160.112 40.912C160.138 41.084 160.126 41.2596 160.078 41.4266C160.029 41.5937 159.945 41.7482 159.831 41.8795C159.717 42.0107 159.576 42.1156 159.417 42.1868C159.258 42.2581 159.086 42.2939 158.912 42.292H153.044C152.749 42.2952 152.463 42.1897 152.241 41.9957C152.019 41.8016 151.876 41.5326 151.84 41.24Z" fill="#F5F5F5"/>
<path d="M113.98 11.16H29.2641V63.42H113.98V11.16Z" fill="#E6E6E6"/>
<path d="M116.156 11.16H30.2801V63.42H116.156V11.16Z" fill="#F0F0F0"/>
<path d="M113.98 63.424H29.2641V67.468H113.98V63.424Z" fill="#E6E6E6"/>
<path d="M119.78 63.424H33.9039V67.468H119.78V63.424Z" fill="#F0F0F0"/>
<path d="M113.108 60.376V14.208L33.328 14.208V60.376L113.108 60.376Z" fill="#FAFAFA"/>
<path d="M39.184 60.376L57.068 14.208H65.508L47.624 60.376H39.184Z" fill="white"/>
<path d="M49.44 60.376L67.324 14.208H70.612L52.728 60.376H49.44Z" fill="white"/>
<path d="M80.7279 60.376L98.6119 14.208H101.9L84.0199 60.376H80.7279Z" fill="white"/>
<path d="M113.104 60.376V14.208H112.716V60.376H113.104Z" fill="#E6E6E6"/>
<path d="M178.2 48.136H160.264V131.448H178.2V48.136Z" fill="#E6E6E6"/>
<path d="M176.396 131.448H178.2V126.316H174.504L176.396 131.448Z" fill="#F0F0F0"/>
<path d="M146.772 48.136H128.836V131.448H146.772V48.136Z" fill="#E6E6E6"/>
<path d="M178.2 48.136H145.196V128.3H178.2V48.136Z" fill="#F0F0F0"/>
<path d="M147 131.448H145.196V126.316H148.892L147 131.448Z" fill="#F0F0F0"/>
<path d="M176.8 49.604H146.596V87.42H176.8V49.604Z" fill="#E6E6E6"/>
<path d="M164.968 52.548H158.428C157.022 52.5479 155.631 52.2612 154.339 51.7055C153.048 51.1498 151.883 50.3368 150.916 49.316H172.48C171.514 50.3373 170.349 51.1508 169.057 51.7065C167.766 52.2622 166.374 52.5486 164.968 52.548Z" fill="#F0F0F0"/>
<path d="M176.8 88.952H146.596V126.768H176.8V88.952Z" fill="#E6E6E6"/>
<path d="M164.968 91.896H158.428C157.022 91.8958 155.631 91.6092 154.339 91.0535C153.048 90.4978 151.883 89.6848 150.916 88.664H172.48C171.514 89.6853 170.349 90.4988 169.057 91.0545C167.766 91.6102 166.374 91.8965 164.968 91.896Z" fill="#F0F0F0"/>
<path d="M51.8 74.444H81.648L85.976 92.072H56.124L51.8 74.444Z" fill="#E6E6E6"/>
<path d="M56.124 92.072L56.248 93.044H86.096L85.976 92.072H56.124Z" fill="#E6E6E6"/>
<path d="M52.7199 74.444H82.5679L86.8959 92.072H57.0439L52.7199 74.444Z" fill="#F0F0F0"/>
<path d="M57.6759 91.264L53.7439 75.248H81.9359L85.8679 91.264H57.6759Z" fill="white"/>
<path d="M64.824 92.072L64.944 93.044H97.812L97.692 92.072H64.824Z" fill="#F0F0F0"/>
<path d="M105.312 93.044H101.736V131.444H105.312V93.044Z" fill="#E6E6E6"/>
<path d="M106.444 93.044H103.96V131.444H106.444V93.044Z" fill="#F0F0F0"/>
<path d="M61.132 97.44H107.216V93.044H61.132V97.44Z" fill="#F0F0F0"/>
<path d="M59.528 97.44H55.952V131.444H59.528V97.44Z" fill="#E6E6E6"/>
<path d="M60.6561 97.44H58.1721V131.444H60.6561V97.44Z" fill="#F0F0F0"/>
<path d="M36.892 97.44H33.316V131.444H36.892V97.44Z" fill="#E6E6E6"/>
<path d="M38.024 97.44H35.54V131.444H38.024V97.44Z" fill="#F0F0F0"/>
<path d="M82.6799 97.44H79.1039V131.444H82.6799V97.44Z" fill="#E6E6E6"/>
<path d="M83.808 97.44H81.324V131.444H83.808V97.44Z" fill="#F0F0F0"/>
<path d="M61.128 93.044H33.316V97.44H61.128V93.044Z" fill="#E6E6E6"/>
<path d="M116.936 131.448H116.068L113.6 119.192L113.164 117.044L110.428 103.688H100.028L94.3999 131.448H93.5199L99.2639 103.176C99.2821 103.082 99.3316 102.998 99.4043 102.936C99.477 102.874 99.5685 102.839 99.6639 102.836H110.8C110.896 102.835 110.99 102.869 111.064 102.931C111.137 102.994 111.185 103.081 111.2 103.176L113.6 114.904L114 117.048L116.936 131.448Z" fill="#F0F0F0"/>
<path d="M133.636 131.448H132.764L127.124 103.688H116.724L114 117.048L113.6 119.192L111.108 131.448H110.24L113.164 117.048L113.596 114.908L115.996 103.18C116.015 103.087 116.065 103.002 116.137 102.941C116.21 102.879 116.301 102.843 116.396 102.84H127.496C127.591 102.843 127.683 102.878 127.756 102.94C127.828 103.002 127.878 103.086 127.896 103.18L133.636 131.448Z" fill="#F0F0F0"/>
<path d="M108 103.26H127.112C130.76 103.26 132.784 100.78 133.816 96.692L134.32 94.356C134.49 93.6494 134.498 92.9135 134.342 92.2036C134.186 91.4937 133.871 90.8285 133.421 90.258C132.971 89.6876 132.397 89.2268 131.743 88.9105C131.088 88.5942 130.371 88.4305 129.644 88.432H117.644C115.164 88.432 114.508 89.024 112.792 92.76C111.076 96.496 108 103.26 108 103.26Z" fill="#F0F0F0"/>
<path d="M118.42 103.26H98.0519C97.7984 103.26 97.5552 103.159 97.3759 102.98C97.1966 102.801 97.0959 102.558 97.0959 102.304V102.216C97.0959 101.872 97.1636 101.532 97.2951 101.215C97.4265 100.897 97.6192 100.609 97.8621 100.366C98.1051 100.123 98.3934 99.9306 98.7108 99.7991C99.0282 99.6676 99.3684 99.6 99.7119 99.6H118.42V103.264V103.26Z" fill="#F0F0F0"/>
<path d="M99.9999 149.512C142.833 149.512 177.556 147.485 177.556 144.984C177.556 142.483 142.833 140.456 99.9999 140.456C57.167 140.456 22.4439 142.483 22.4439 144.984C22.4439 147.485 57.167 149.512 99.9999 149.512Z" fill="#F5F5F5"/>
<path d="M81.212 132.188L78.652 133.836L74.012 128.44L76.572 126.792L81.212 132.188Z" fill="#FF8B7B"/>
<path opacity="0.2" d="M76.576 126.792L74.012 128.44L76.408 131.224L78.968 129.572L76.576 126.792Z" fill="black"/>
<path d="M61.6478 140.988L58.7038 141.276L55.6438 134.276L58.5878 133.988L61.6478 140.988Z" fill="#FF8B7B"/>
<path opacity="0.2" d="M55.6479 134.28L57.224 137.888H60.2919L58.588 133.992L55.6479 134.28Z" fill="black"/>
<path d="M39.2918 46.488C37.8118 46.62 37.7718 44.108 35.1718 45.288C31.8678 46.792 32.9838 49.124 30.4038 49.028C27.8238 48.932 26.0958 50.944 26.6718 52.444C27.2478 53.944 28.1398 55.364 26.3158 55.968C24.4918 56.572 23.2518 57.104 23.5158 58.616C23.7798 60.128 25.0718 60.736 22.8958 61.7C20.7198 62.664 20.9398 66.832 23.0718 66.836C25.2038 66.84 23.1598 68.916 25.0718 71.028C26.9838 73.14 29.8918 73.428 31.1038 72.388C32.3158 71.348 33.6678 70.488 35.9478 72.088C38.2278 73.688 42.0878 74.088 41.9118 71.552C41.7358 69.016 39.5118 67.352 41.6078 66.032C43.7038 64.712 46.4078 64.06 45.5598 61.492C45.0198 59.892 43.3878 58.5 44.7038 57.304C46.8438 55.36 46.8558 50.96 44.2318 49.844C42.7078 49.2 44.1758 46.048 39.2918 46.488Z" fill="#263238"/>
<path d="M36.444 66.256C36.372 67.456 36.22 68.524 36.044 69.648C35.868 70.772 35.612 71.868 35.32 72.968C35.0354 74.08 34.6732 75.1706 34.236 76.232C34.02 76.768 33.772 77.3 33.508 77.832C33.376 78.096 33.232 78.356 33.084 78.612C33.016 78.744 32.932 78.872 32.856 79.012L32.74 79.2C32.6613 79.3252 32.573 79.4442 32.476 79.556C32.2542 79.8066 31.9814 80.007 31.676 80.144C31.4032 80.2675 31.1107 80.342 30.812 80.364C30.3727 80.3892 29.9327 80.3295 29.516 80.188C28.8955 79.9747 28.3043 79.6844 27.756 79.324C26.7906 78.6924 25.877 77.9848 25.024 77.208C23.3796 75.7121 21.8462 74.0985 20.436 72.38L21.572 71.288C22.372 71.992 23.172 72.708 24.008 73.388C24.844 74.068 25.66 74.752 26.512 75.388C27.3232 76.0121 28.1788 76.5763 29.072 77.076C29.4497 77.2899 29.8529 77.4553 30.272 77.568C30.3729 77.5992 30.4792 77.6088 30.584 77.596H30.504C30.4512 77.6217 30.4026 77.6554 30.36 77.696L30.34 77.716L30.428 77.552C30.484 77.444 30.548 77.34 30.6 77.228C30.712 77.0066 30.82 76.7826 30.924 76.556C31.124 76.1 31.324 75.636 31.484 75.152C31.82 74.192 32.1 73.2 32.348 72.192C32.596 71.184 32.784 70.156 32.952 69.12C33.12 68.084 33.248 67.024 33.352 66.04L36.444 66.256Z" fill="#FF8B7B"/>
<path d="M38.7679 66.632C38.6079 67.6 37.8039 69.432 37.1679 70.792C36.6959 71.776 36.3119 72.516 36.3119 72.516L35.7519 72.268L31.1159 70.204C31.4679 67.704 32.0399 65.004 34.7959 63.776C36.5159 63.016 39.0519 64.888 38.7679 66.632Z" fill="#FA1239"/>
<path opacity="0.6" d="M38.7679 66.632C38.6079 67.6 37.8039 69.432 37.1679 70.792C36.6959 71.776 36.3119 72.516 36.3119 72.516L35.7519 72.268L31.1159 70.204C31.4679 67.704 32.0399 65.004 34.7959 63.776C36.5159 63.016 39.0519 64.888 38.7679 66.632Z" fill="black"/>
<path opacity="0.3" d="M37.1559 70.792C36.6839 71.776 36.2999 72.516 36.2999 72.516L35.7399 72.268C35.8159 71.28 36.0119 69.724 36.5399 69.024C36.8697 69.5623 37.0798 70.1653 37.1559 70.792Z" fill="black"/>
<path d="M21.748 72.204L22.116 69.512L19.096 70.488C19.096 70.488 19.576 72.116 20.652 72.784L21.748 72.204Z" fill="#FF8B7B"/>
<path d="M20.7479 67.212L18.6399 68.368L19.0959 70.504L22.1159 69.512L20.7479 67.212Z" fill="#FF8B7B"/>
<path d="M77.708 133.028L80.488 131.028C80.5357 130.993 80.5944 130.977 80.6533 130.982C80.7121 130.987 80.7671 131.013 80.808 131.056L82.7 133.028C82.746 133.079 82.7807 133.139 82.8017 133.205C82.8228 133.27 82.8298 133.34 82.8222 133.408C82.8147 133.476 82.7927 133.542 82.7579 133.602C82.7231 133.661 82.6761 133.712 82.62 133.752C81.64 134.432 81.132 134.708 79.908 135.584C79.156 136.124 77.572 137.428 76.532 138.172C75.492 138.916 74.704 137.932 75.068 137.528C76.708 135.72 77.144 134.488 77.404 133.472C77.451 133.293 77.5585 133.136 77.708 133.028Z" fill="#263238"/>
<path d="M58.3159 140.368H61.9159C61.9807 140.369 62.0433 140.391 62.0945 140.431C62.1457 140.47 62.1827 140.526 62.1999 140.588L62.9999 143.444C63.0194 143.511 63.0227 143.583 63.0096 143.652C62.9965 143.721 62.9674 143.786 62.9246 143.841C62.8817 143.897 62.8264 143.942 62.7631 143.972C62.6997 144.002 62.6301 144.017 62.5599 144.016C61.2879 144.016 60.6839 144.016 59.0959 144.016H54.2399C52.9199 144.016 52.6399 142.68 53.1879 142.56C55.6359 142.02 57.0479 141.272 57.8039 140.56C57.944 140.433 58.1271 140.365 58.3159 140.368Z" fill="#263238"/>
<path d="M52.82 77.472L41.032 81.2C32.872 65.048 34.036 64.192 34.036 64.192C34.036 64.192 35.92 63.116 37.88 62.22C38.176 62.084 38.476 61.952 38.772 61.82C40.5133 61.1279 42.3019 60.5612 44.124 60.124C44.392 60.052 44.66 59.988 44.924 59.924C46.375 59.5958 47.8443 59.3541 49.324 59.2C49.5 61.436 49.676 63.328 49.868 64.972C50.116 67.116 50.384 68.832 50.668 70.316C51.1929 72.755 51.9126 75.148 52.82 77.472Z" fill="#FA1239"/>
<path opacity="0.6" d="M52.82 77.472L41.032 81.2C32.872 65.048 34.036 64.192 34.036 64.192C34.036 64.192 35.92 63.116 37.88 62.22C38.176 62.084 38.476 61.952 38.772 61.82C40.5133 61.1279 42.3019 60.5612 44.124 60.124C44.392 60.052 44.66 59.988 44.924 59.924C46.375 59.5958 47.8443 59.3541 49.324 59.2C49.5 61.436 49.676 63.328 49.868 64.972C50.116 67.116 50.384 68.832 50.668 70.316C51.1929 72.755 51.9126 75.148 52.82 77.472Z" fill="black"/>
<path opacity="0.3" d="M50.6999 70.324C49.5679 68.724 48.4839 65 48.7639 63.604L49.8839 64.98C50.1319 67.124 50.3999 68.84 50.6999 70.324Z" fill="black"/>
<path d="M41.4519 67.208C41.4519 67.208 44.4239 66.564 45.3799 67.856C46.6919 66.564 46.2279 61.516 45.5959 59.716C45.0946 59.8011 44.603 59.9351 44.1279 60.116L42.0279 63.364L41.4519 67.208Z" fill="white"/>
<path d="M41.452 67.208C41.452 67.208 39.452 67.656 39.24 69.292C36.44 67.208 36.636 64.156 37.268 62.356C37.7478 62.1237 38.2524 61.9466 38.772 61.828L40.872 64.14L41.452 67.208Z" fill="white"/>
<path d="M42.1359 56.724C42.5359 58.196 43.1439 59.652 44.1359 60.132C44.1359 60.132 45.0599 62.78 41.4599 67.208C37.6919 64.524 38.7799 61.828 38.7799 61.828C40.5559 60.76 40.0559 59.352 39.2999 58.12L40.3439 56.444C40.4479 56.2825 40.5965 56.1547 40.7717 56.0761C40.947 55.9975 41.1412 55.9715 41.331 56.0011C41.5207 56.0308 41.6978 56.1148 41.8406 56.2432C41.9835 56.3715 42.0861 56.5385 42.1359 56.724Z" fill="#FF8B7B"/>
<path opacity="0.2" d="M42.136 56.724C42.0882 56.5354 41.9859 56.365 41.842 56.2341C41.6981 56.1031 41.5188 56.0174 41.3266 55.9875C41.1343 55.9577 40.9375 55.9851 40.7606 56.0662C40.5838 56.1474 40.4347 56.2787 40.332 56.444L39.996 56.98C40.024 57.336 40.04 57.628 40.036 57.78C40.004 58.82 41.464 58.772 42.652 58.272C42.4402 57.7701 42.2677 57.2526 42.136 56.724Z" fill="black"/>
<path d="M34.9 52.704C35.94 55.54 36.316 56.764 38.22 57.812C41.08 59.392 44.336 57.496 44.168 54.404C44.016 51.624 42.344 47.448 39.172 47.14C38.4728 47.0692 37.7671 47.1782 37.1219 47.4568C36.4767 47.7353 35.9134 48.1741 35.4855 48.7315C35.0575 49.2889 34.7791 49.9464 34.6766 50.6417C34.5741 51.3369 34.651 52.0468 34.9 52.704Z" fill="#FF8B7B"/>
<path d="M42.2559 48.44C41.2799 47.5 40.2559 46.408 38.2959 46.62C36.1279 46.856 35.2719 48.168 35.2719 48.168L33.4079 52.244C33.4079 52.244 34.5639 57.492 36.4719 55.044C37.5719 53.628 37.5999 51.488 37.1999 49.888C37.9495 49.7823 38.6883 49.611 39.4079 49.376C40.2879 49.704 41.2759 49.704 42.0079 49.032C42.1679 48.884 42.2839 48.768 42.3679 48.676L42.4359 48.6C42.6519 48.324 42.4719 48.352 42.2559 48.44ZM39.7359 49.288C40.4192 49.067 41.1135 48.8814 41.8159 48.732C41.5547 49.0082 41.222 49.2065 40.8547 49.3047C40.4874 49.4029 40.1001 49.3971 39.7359 49.288Z" fill="#263238"/>
<path d="M35.044 55.588C35.3443 56.0914 35.8319 56.4553 36.4 56.6C37.152 56.788 37.508 56.112 37.28 55.4C37.076 54.772 36.44 53.916 35.68 54.036C35.5157 54.066 35.3616 54.1369 35.2318 54.2421C35.1021 54.3473 35.0009 54.4835 34.9376 54.6381C34.8742 54.7926 34.8508 54.9606 34.8694 55.1266C34.888 55.2926 34.948 55.4513 35.044 55.588Z" fill="#FF8B7B"/>
<path d="M41.0319 81.204C41.0319 81.204 40.6319 105.36 43.7879 114.088C46.8279 122.456 55.8959 136.84 55.8959 136.84L61.1519 136.708C61.1519 136.708 52.7999 118.488 51.4359 111.288C49.1639 99.34 49.6639 78.488 49.6639 78.488L41.0319 81.204Z" fill="#FA1239"/>
<path opacity="0.3" d="M45.7519 83.288L47.1639 79.288L49.6639 78.488C49.6639 78.488 49.4359 87.98 49.9839 97.824C47.7159 93.456 45.7519 85.456 45.7519 83.288Z" fill="black"/>
<path d="M55.1559 137.112L61.6479 136.948L61.2719 134.952L54.1839 135.288L55.1559 137.112Z" fill="#263238"/>
<path d="M43.5999 80.424C43.5999 80.424 51.7999 99.18 57.0999 109.856C61.3799 118.48 74.6999 130.048 74.6999 130.048L78.3519 127.516C78.3519 127.516 68.3279 113.812 65.3719 107.964C55.9119 89.252 58.2439 81.54 52.8039 77.472L43.5999 80.424Z" fill="#FA1239"/>
<path d="M74.916 131.256L79.204 128.204L78.232 126.332L73.52 129.896L74.916 131.256Z" fill="#263238"/>
<path d="M52.7999 76.724L53.6639 77.612C53.7319 77.68 53.6639 77.796 53.5239 77.84L41.1599 81.748C41.0559 81.784 40.9519 81.748 40.9239 81.696L40.4839 80.672C40.4519 80.604 40.5239 80.512 40.6399 80.476L52.5799 76.696C52.6158 76.6811 52.655 76.6759 52.6936 76.6808C52.7322 76.6857 52.7688 76.7006 52.7999 76.724Z" fill="#263238"/>
<path d="M51.5999 78.568L51.9199 78.468C51.9839 78.468 52.0239 78.396 52.0039 78.36L51.4239 77.036C51.4067 77.0144 51.3829 76.9991 51.3561 76.9926C51.3293 76.986 51.301 76.9887 51.2759 77L50.9559 77.104C50.8919 77.124 50.8519 77.172 50.8719 77.212L51.4559 78.532C51.4679 78.572 51.5319 78.588 51.5999 78.568Z" fill="#FA1239"/>
<path d="M42.0759 81.58L42.3959 81.48C42.4599 81.46 42.4959 81.412 42.4799 81.372L41.8959 80.048C41.8959 80.008 41.8119 79.996 41.7479 80.016L41.4279 80.116C41.3679 80.136 41.3279 80.184 41.3439 80.224L41.9279 81.548C41.9459 81.5684 41.97 81.5825 41.9966 81.5882C42.0233 81.594 42.051 81.5911 42.0759 81.58Z" fill="#FA1239"/>
<path d="M46.836 80.088L47.156 79.988C47.22 79.968 47.26 79.92 47.24 79.88L46.656 78.556C46.656 78.52 46.576 78.504 46.512 78.524L46.192 78.624C46.128 78.624 46.088 78.692 46.108 78.732L46.688 80.056C46.708 80.088 46.772 80.088 46.836 80.088Z" fill="#FA1239"/>
<path d="M39.876 52.088C39.948 52.324 40.128 52.488 40.276 52.432C40.424 52.376 40.496 52.156 40.424 51.924C40.352 51.692 40.176 51.524 40.024 51.58C39.872 51.636 39.808 51.844 39.876 52.088Z" fill="#263238"/>
<path d="M42.536 51.288C42.608 51.524 42.788 51.688 42.936 51.632C43.084 51.576 43.156 51.36 43.088 51.124C43.02 50.888 42.836 50.724 42.688 50.78C42.54 50.836 42.468 51.052 42.536 51.288Z" fill="#263238"/>
<path d="M42.6239 50.812L43.1399 50.48C43.1399 50.48 42.9839 51.008 42.6239 50.812Z" fill="#263238"/>
<path d="M41.872 51.9C42.2431 52.3733 42.6763 52.7944 43.16 53.152C43.0635 53.2725 42.942 53.3707 42.8039 53.4398C42.6658 53.5088 42.5143 53.5471 42.36 53.552L41.872 51.9Z" fill="#FF5652"/>
<path d="M41.568 54.848C41.579 54.8391 41.5872 54.8271 41.5914 54.8136C41.5957 54.8001 41.5959 54.7856 41.592 54.772C41.5864 54.7539 41.5743 54.7386 41.558 54.729C41.5417 54.7193 41.5225 54.7161 41.504 54.72C41.2134 54.8149 40.9045 54.8393 40.6027 54.7913C40.3008 54.7433 40.0147 54.6243 39.768 54.444C39.7606 54.4377 39.7521 54.4329 39.7429 54.4299C39.7337 54.4269 39.724 54.4257 39.7143 54.4264C39.7046 54.4272 39.6952 54.4298 39.6866 54.4342C39.6779 54.4386 39.6703 54.4446 39.664 54.452C39.6576 54.4593 39.6529 54.4678 39.6498 54.4771C39.6468 54.4863 39.6457 54.496 39.6464 54.5056C39.6472 54.5153 39.6498 54.5247 39.6542 54.5333C39.6586 54.542 39.6646 54.5497 39.672 54.556C39.9373 54.752 40.2455 54.8818 40.5711 54.9347C40.8967 54.9876 41.2303 54.962 41.544 54.86L41.568 54.848Z" fill="#263238"/>
<path d="M38.872 51.436C38.8906 51.4185 38.9044 51.3964 38.912 51.372C38.9713 51.2012 39.0699 51.0468 39.1999 50.921C39.3298 50.7953 39.4874 50.7018 39.66 50.648C39.6801 50.6459 39.6995 50.6396 39.717 50.6295C39.7345 50.6194 39.7497 50.6057 39.7615 50.5893C39.7734 50.573 39.7817 50.5543 39.7859 50.5345C39.79 50.5148 39.79 50.4943 39.7858 50.4746C39.7816 50.4548 39.7732 50.4362 39.7613 50.4199C39.7494 50.4035 39.7342 50.3899 39.7166 50.3798C39.6991 50.3698 39.6797 50.3635 39.6596 50.3615C39.6395 50.3595 39.6192 50.3617 39.6 50.368C39.3776 50.4316 39.1742 50.5487 39.0075 50.7091C38.8409 50.8695 38.7161 51.0682 38.644 51.288C38.6369 51.3058 38.6335 51.3249 38.6339 51.3441C38.6343 51.3632 38.6386 51.3821 38.6464 51.3996C38.6542 51.4172 38.6655 51.4329 38.6795 51.446C38.6935 51.4591 38.71 51.4693 38.728 51.476C38.7534 51.4812 38.7797 51.4803 38.8048 51.4733C38.8298 51.4664 38.8528 51.4536 38.872 51.436Z" fill="#263238"/>
<path d="M43.3479 49.78C43.3466 49.7707 43.3466 49.7613 43.3479 49.752C43.3529 49.7146 43.3438 49.6767 43.3223 49.6456C43.3009 49.6146 43.2686 49.5926 43.2319 49.584C43.0078 49.5363 42.7756 49.5426 42.5544 49.6024C42.3332 49.6623 42.1294 49.7738 41.9599 49.928C41.9334 49.9556 41.9189 49.9926 41.9197 50.0308C41.9204 50.0691 41.9363 50.1055 41.9639 50.132C41.9915 50.1585 42.0285 50.173 42.0667 50.1722C42.105 50.1715 42.1414 50.1556 42.1679 50.128C42.3034 50.008 42.4654 49.9219 42.6406 49.8767C42.8159 49.8315 42.9993 49.8285 43.1759 49.868C43.2104 49.8764 43.2467 49.8721 43.2783 49.8559C43.3098 49.8398 43.3345 49.8128 43.3479 49.78Z" fill="#263238"/>
<path d="M51.1319 62.032C51.6079 62.388 52.0079 62.72 52.4239 63.08C52.8399 63.44 53.2239 63.8 53.6239 64.176C54.4039 64.928 55.1559 65.712 55.8679 66.536C56.5878 67.3646 57.2558 68.2369 57.8679 69.148C58.0279 69.372 58.1679 69.616 58.3159 69.848C58.4639 70.08 58.6119 70.316 58.7439 70.564C58.8759 70.812 59.0159 71.032 59.1439 71.308L59.3559 71.752L59.5279 72.2C59.8966 73.3359 60.0697 74.5261 60.0399 75.72C60.0156 76.8294 59.8965 77.9348 59.6839 79.024C59.4759 80.092 59.2039 81.136 58.8839 82.16C58.5613 83.1858 58.1847 84.1938 57.7559 85.18L56.3079 84.644C56.5559 83.684 56.7919 82.676 56.9679 81.68C57.1634 80.6936 57.3063 79.6975 57.3959 78.696C57.492 77.7257 57.5148 76.7496 57.4639 75.776C57.4353 75.3144 57.3792 74.8549 57.2959 74.4C57.2082 73.9801 57.0864 73.5681 56.9319 73.168L56.8079 72.892L56.6719 72.64C56.5639 72.456 56.4159 72.24 56.2719 72.036C56.1279 71.832 56.0079 71.636 55.8719 71.432C55.7359 71.228 55.5959 71.032 55.4439 70.84C54.8599 70.04 54.1999 69.312 53.5439 68.572C52.8879 67.832 52.1679 67.136 51.4359 66.456C51.0759 66.112 50.7039 65.776 50.3319 65.448C49.9599 65.12 49.5599 64.792 49.2159 64.512L51.1319 62.032Z" fill="#FF8B7B"/>
<path d="M56.7679 83.688L54.5759 85.288L57.3759 86.768C57.3759 86.768 58.2119 85.288 57.9439 84.052L56.7679 83.688Z" fill="#FF8B7B"/>
<path d="M53.8839 87.884L56.1759 88.592L57.3959 86.776L54.5759 85.296L53.8839 87.884Z" fill="#FF8B7B"/>
<path d="M49.34 59.208C50.872 59.14 53.884 62.904 53.884 62.904L50.756 67.328C50.756 67.328 47.244 64.528 46.972 62.58C46.744 60.92 47.388 59.288 49.34 59.208Z" fill="#FA1239"/>
<path opacity="0.6" d="M49.34 59.208C50.872 59.14 53.884 62.904 53.884 62.904L50.756 67.328C50.756 67.328 47.244 64.528 46.972 62.58C46.744 60.92 47.388 59.288 49.34 59.208Z" fill="black"/>
<path d="M76.656 134.28H76.608C76.5378 134.271 76.4713 134.244 76.4151 134.201C76.3589 134.158 76.315 134.101 76.288 134.036C76.267 133.998 76.256 133.955 76.256 133.912C76.256 133.869 76.267 133.826 76.288 133.788C76.484 133.452 77.584 133.388 77.708 133.388C77.7219 133.388 77.7356 133.391 77.7476 133.398C77.7596 133.406 77.7694 133.416 77.776 133.428C77.7839 133.44 77.7881 133.454 77.7881 133.468C77.7881 133.482 77.7839 133.496 77.776 133.508C77.508 133.804 77.032 134.28 76.656 134.28ZM77.536 133.548C77.096 133.58 76.512 133.684 76.412 133.86C76.4012 133.876 76.3954 133.895 76.3954 133.914C76.3954 133.933 76.4012 133.952 76.412 133.968C76.4289 134.012 76.457 134.05 76.4935 134.08C76.53 134.109 76.5736 134.129 76.62 134.136C76.832 134.16 77.168 133.94 77.536 133.548Z" fill="#FA1239"/>
<path d="M77.632 133.54C77.264 133.54 76.54 133.336 76.404 133.04C76.3823 132.988 76.3784 132.929 76.3928 132.875C76.4073 132.82 76.4393 132.771 76.484 132.736C76.5255 132.699 76.5744 132.671 76.6274 132.653C76.6805 132.636 76.7365 132.63 76.792 132.636C77.228 132.684 77.744 133.392 77.764 133.436C77.7707 133.447 77.7743 133.459 77.7743 133.472C77.7743 133.485 77.7707 133.497 77.764 133.508C77.7585 133.519 77.7505 133.528 77.7408 133.535C77.731 133.542 77.7198 133.546 77.708 133.548L77.632 133.54ZM76.744 132.78C76.6843 132.78 76.6269 132.803 76.584 132.844C76.516 132.904 76.524 132.952 76.536 132.984C76.624 133.176 77.192 133.384 77.564 133.384C77.38 133.156 77.036 132.796 76.764 132.768L76.744 132.78Z" fill="#FA1239"/>
<path d="M56.7119 140.964C56.4656 140.982 56.2197 140.923 56.0079 140.796C55.953 140.756 55.9079 140.703 55.8761 140.643C55.8442 140.583 55.8264 140.516 55.8239 140.448C55.8207 140.41 55.8275 140.372 55.8436 140.338C55.8598 140.303 55.8847 140.274 55.9159 140.252C56.2439 140.032 57.4719 140.588 57.7159 140.704C57.7296 140.71 57.7409 140.72 57.7481 140.733C57.7553 140.746 57.7581 140.761 57.7559 140.776C57.7546 140.791 57.7485 140.806 57.7384 140.817C57.7283 140.829 57.7149 140.837 57.6999 140.84C57.3756 140.914 57.0446 140.956 56.7119 140.964ZM56.1399 140.34C56.0899 140.337 56.0402 140.348 55.9959 140.372C55.9856 140.38 55.9775 140.39 55.9726 140.402C55.9677 140.414 55.9661 140.427 55.9679 140.44C55.9695 140.487 55.9818 140.533 56.004 140.575C56.0262 140.616 56.0577 140.652 56.0959 140.68C56.3079 140.84 56.8079 140.864 57.4519 140.744C57.0384 140.542 56.5957 140.405 56.1399 140.34Z" fill="#FA1239"/>
<path d="M57.684 140.84H57.66C57.26 140.672 56.428 140.012 56.46 139.672C56.46 139.6 56.52 139.504 56.704 139.484C57.424 139.396 57.728 140.684 57.74 140.756C57.7426 140.769 57.7418 140.783 57.7376 140.795C57.7334 140.808 57.7259 140.819 57.716 140.828C57.7066 140.835 57.6955 140.839 57.684 140.84ZM56.8 139.62H56.752C56.676 139.62 56.636 139.652 56.628 139.688C56.604 139.884 57.172 140.408 57.588 140.636C57.48 140.32 57.22 139.62 56.8 139.62Z" fill="#FA1239"/>
<path d="M39.964 51.604L40.48 51.272C40.48 51.272 40.324 51.8 39.964 51.604Z" fill="#263238"/>
<path d="M115.452 22.356H57.32C56.6989 22.3517 56.0836 22.4748 55.5119 22.7175C54.9401 22.9602 54.4242 23.3174 53.9958 23.7671C53.5675 24.2168 53.2358 24.7495 53.0211 25.3324C52.8065 25.9152 52.7136 26.5358 52.748 27.156L58.2 140.184C58.2777 141.472 58.8396 142.682 59.773 143.572C60.7065 144.463 61.9422 144.967 63.232 144.984H121.364C121.985 144.988 122.6 144.865 123.172 144.622C123.743 144.38 124.259 144.022 124.687 143.573C125.115 143.123 125.446 142.59 125.66 142.007C125.875 141.424 125.967 140.804 125.932 140.184L120.484 27.156C120.406 25.8684 119.844 24.6578 118.911 23.7674C117.978 22.8771 116.742 22.3728 115.452 22.356Z" fill="black"/>
<path d="M117.6 22.356H59.4518C58.8309 22.3517 58.2157 22.4747 57.6442 22.7175C57.0727 22.9602 56.557 23.3175 56.1289 23.7673C55.7008 24.2171 55.3695 24.7499 55.1554 25.3327C54.9412 25.9155 54.8488 26.536 54.8838 27.156L60.3318 140.184C60.4094 141.472 60.9714 142.682 61.9048 143.572C62.8382 144.463 64.0739 144.967 65.3638 144.984H123.496C124.117 144.988 124.732 144.865 125.303 144.622C125.875 144.38 126.391 144.022 126.819 143.573C127.247 143.123 127.578 142.59 127.792 142.007C128.006 141.424 128.099 140.804 128.064 140.184L122.616 27.156C122.538 25.8711 121.979 24.6628 121.049 23.7728C120.119 22.8829 118.887 22.3768 117.6 22.356Z" fill="#263238"/>
<path d="M65.1997 141.784C64.7715 141.773 64.3627 141.603 64.0529 141.308C63.743 141.012 63.5544 140.611 63.5237 140.184L58.0837 27.156C58.074 26.9497 58.1062 26.7436 58.1784 26.55C58.2505 26.3565 58.3612 26.1797 58.5036 26.0301C58.6461 25.8806 58.8173 25.7615 59.0071 25.68C59.1969 25.5985 59.4012 25.5563 59.6077 25.556H117.74C118.168 25.565 118.578 25.7343 118.889 26.0304C119.199 26.3265 119.387 26.7281 119.416 27.156L124.864 140.184C124.873 140.39 124.841 140.596 124.769 140.789C124.698 140.982 124.587 141.159 124.445 141.308C124.303 141.458 124.132 141.577 123.943 141.659C123.754 141.741 123.55 141.783 123.344 141.784H65.1997Z" fill="#FA1239"/>
<path opacity="0.1" d="M65.1719 140.984C64.9581 140.977 64.7545 140.891 64.5996 140.744C64.4447 140.596 64.3494 140.397 64.3319 140.184L58.8839 27.156C58.8802 27.0533 58.897 26.9509 58.9333 26.8547C58.9697 26.7586 59.0249 26.6707 59.0957 26.5962C59.1665 26.5217 59.2514 26.462 59.3456 26.4208C59.4397 26.3795 59.5411 26.3575 59.6439 26.356H117.776C117.99 26.3622 118.194 26.4474 118.349 26.5951C118.504 26.7427 118.599 26.9425 118.616 27.156L124.064 140.184C124.068 140.287 124.051 140.389 124.014 140.485C123.978 140.581 123.923 140.669 123.852 140.744C123.781 140.818 123.696 140.878 123.602 140.919C123.508 140.96 123.407 140.982 123.304 140.984H65.1719Z" fill="black"/>
<g opacity="0.3">
<path d="M82.7158 134.488H71.1998C70.8836 134.484 70.5807 134.361 70.352 134.143C70.1233 133.925 69.986 133.628 69.9678 133.312L69.1278 115.828C69.1173 115.673 69.1389 115.518 69.1911 115.373C69.2434 115.227 69.3253 115.093 69.4316 114.981C69.5379 114.868 69.6663 114.778 69.8088 114.718C69.9513 114.657 70.1049 114.627 70.2598 114.628H81.7958C82.1111 114.631 82.4136 114.753 82.6417 114.971C82.8699 115.189 83.0065 115.485 83.0238 115.8L83.8518 133.288C83.8617 133.443 83.8396 133.598 83.7868 133.744C83.7341 133.889 83.6518 134.023 83.5452 134.135C83.4386 134.248 83.3099 134.338 83.1672 134.398C83.0245 134.459 82.8708 134.489 82.7158 134.488ZM70.2438 115.036C70.144 115.035 70.0451 115.055 69.953 115.093C69.8609 115.132 69.7775 115.189 69.7078 115.26C69.6398 115.334 69.5871 115.42 69.5528 115.514C69.5184 115.608 69.5031 115.708 69.5078 115.808L70.3518 133.288C70.3629 133.502 70.4551 133.704 70.6096 133.852C70.7642 134.001 70.9694 134.085 71.1838 134.088H82.7158C82.816 134.089 82.9154 134.069 83.0077 134.03C83.1 133.99 83.1832 133.932 83.2522 133.86C83.3212 133.787 83.3745 133.701 83.4089 133.607C83.4432 133.512 83.4578 133.412 83.4518 133.312L82.6078 115.828C82.5976 115.614 82.5063 115.412 82.3524 115.264C82.1985 115.115 81.9937 115.031 81.7798 115.028L70.2438 115.036Z" fill="#FAFAFA"/>
<path d="M81.6277 119.096H70.7997C70.7467 119.096 70.6958 119.075 70.6583 119.037C70.6208 119 70.5997 118.949 70.5997 118.896C70.5997 118.843 70.6208 118.792 70.6583 118.755C70.6958 118.717 70.7467 118.696 70.7997 118.696H81.6397C81.6927 118.696 81.7436 118.717 81.7811 118.755C81.8186 118.792 81.8397 118.843 81.8397 118.896C81.8397 118.949 81.8186 119 81.7811 119.037C81.7436 119.075 81.6927 119.096 81.6397 119.096H81.6277Z" fill="#FAFAFA"/>
<path d="M81.7396 121.356H70.8956C70.8429 121.355 70.7926 121.334 70.7553 121.296C70.718 121.259 70.6966 121.209 70.6956 121.156C70.6956 121.103 70.7167 121.052 70.7542 121.015C70.7917 120.977 70.8426 120.956 70.8956 120.956H81.7396C81.7926 120.956 81.8435 120.977 81.881 121.015C81.9185 121.052 81.9396 121.103 81.9396 121.156C81.9386 121.209 81.9172 121.259 81.8799 121.296C81.8426 121.334 81.7923 121.355 81.7396 121.356Z" fill="#FAFAFA"/>
<path d="M81.8476 123.616H71.0036C70.9509 123.615 70.9006 123.594 70.8633 123.556C70.826 123.519 70.8046 123.469 70.8036 123.416C70.8036 123.363 70.8247 123.312 70.8622 123.275C70.8997 123.237 70.9506 123.216 71.0036 123.216H81.8476C81.9007 123.216 81.9515 123.237 81.989 123.275C82.0265 123.312 82.0476 123.363 82.0476 123.416C82.0476 123.469 82.0265 123.52 81.989 123.557C81.9515 123.595 81.9007 123.616 81.8476 123.616Z" fill="#FAFAFA"/>
<path d="M81.9557 125.876H71.1157C71.0627 125.876 71.0118 125.855 70.9743 125.817C70.9368 125.78 70.9157 125.729 70.9157 125.676C70.9157 125.623 70.9368 125.572 70.9743 125.535C71.0118 125.497 71.0627 125.476 71.1157 125.476H81.9557C82.0088 125.476 82.0596 125.497 82.0971 125.535C82.1347 125.572 82.1557 125.623 82.1557 125.676C82.1557 125.729 82.1347 125.78 82.0971 125.817C82.0596 125.855 82.0088 125.876 81.9557 125.876Z" fill="#FAFAFA"/>
<path d="M82.0637 128.136H71.2237C71.1707 128.136 71.1198 128.115 71.0823 128.077C71.0448 128.04 71.0237 127.989 71.0237 127.936C71.0237 127.883 71.0448 127.832 71.0823 127.795C71.1198 127.757 71.1707 127.736 71.2237 127.736H82.0637C82.1168 127.736 82.1676 127.757 82.2051 127.795C82.2427 127.832 82.2637 127.883 82.2637 127.936C82.2637 127.989 82.2427 128.04 82.2051 128.077C82.1676 128.115 82.1168 128.136 82.0637 128.136Z" fill="#FAFAFA"/>
<path d="M79.9517 130.396H71.3317C71.2787 130.396 71.2278 130.375 71.1903 130.337C71.1528 130.3 71.1317 130.249 71.1317 130.196C71.1317 130.143 71.1528 130.092 71.1903 130.055C71.2278 130.017 71.2787 129.996 71.3317 129.996H79.9517C80.0048 129.996 80.0556 130.017 80.0932 130.055C80.1307 130.092 80.1517 130.143 80.1517 130.196C80.1507 130.249 80.1293 130.299 80.092 130.336C80.0547 130.374 80.0045 130.395 79.9517 130.396Z" fill="#FAFAFA"/>
</g>
<g opacity="0.3">
<path d="M89.9758 70.34L82.0678 71.604C81.7626 70.8514 81.3591 70.1426 80.8678 69.496C80.3944 68.9991 79.8346 68.5925 79.2158 68.296L79.5118 74.496C83.9091 75.6533 86.8678 76.8746 88.3878 78.16C89.3568 78.9675 90.1432 79.9717 90.6949 81.1061C91.2466 82.2405 91.5509 83.4791 91.5878 84.74C91.6936 86.2156 91.4225 87.694 90.7998 89.036C90.2075 90.2879 89.3552 91.3992 88.2998 92.296C87.3166 93.1381 86.1797 93.782 84.9518 94.192C83.5104 94.6253 82.0166 94.8595 80.5118 94.888L80.5638 95.98C80.5759 96.1821 80.5462 96.3845 80.4767 96.5747C80.4072 96.7649 80.2993 96.9387 80.1598 97.0854C80.0202 97.2321 79.8519 97.3485 79.6654 97.4274C79.479 97.5063 79.2782 97.546 79.0758 97.544C78.6551 97.5396 78.2518 97.3757 77.9474 97.0854C77.6429 96.795 77.4601 96.4 77.4358 95.98L77.3838 94.888C75.6282 94.7752 73.8949 94.4337 72.2278 93.872C70.9507 93.4105 69.7696 92.7176 68.7438 91.828C67.8074 91.0285 67.0146 90.0747 66.3998 89.008C65.7832 87.8607 65.3346 86.6308 65.0678 85.356L73.6718 84.352C73.9971 85.7626 74.3971 86.7826 74.8718 87.412C75.4681 88.1431 76.2345 88.7172 77.1038 89.084L76.7398 81.516C74.609 80.9855 72.5227 80.2901 70.4998 79.436C69.1911 78.7834 68.0663 77.814 67.2278 76.616C66.2476 75.2312 65.7056 73.5842 65.6718 71.888C65.5788 70.7176 65.7417 69.541 66.1493 68.44C66.5568 67.3389 67.1992 66.3398 68.0318 65.512C69.7278 63.8026 72.3278 62.856 75.8318 62.672L75.8038 62.116C75.7917 61.9139 75.8213 61.7114 75.8908 61.5212C75.9603 61.3311 76.0682 61.1572 76.2078 61.0105C76.3474 60.8638 76.5156 60.7474 76.7021 60.6685C76.8886 60.5896 77.0893 60.55 77.2918 60.552C77.7124 60.5563 78.1157 60.7203 78.4202 61.0106C78.7246 61.3009 78.9075 61.696 78.9318 62.116L78.9598 62.672C82.1598 62.872 84.6411 63.6293 86.4038 64.944C88.1768 66.281 89.4376 68.1856 89.9758 70.34ZM76.0958 68.2C75.3826 68.3828 74.7387 68.7709 74.2438 69.316C73.907 69.7679 73.7438 70.3258 73.7838 70.888C73.8049 71.491 74.0242 72.0702 74.4078 72.536C74.9418 73.0963 75.6178 73.5014 76.3638 73.708L76.0958 68.2ZM80.2438 89.288C81.4438 89.0213 82.3104 88.5733 82.8438 87.944C83.0998 87.6609 83.2973 87.33 83.425 86.9702C83.5527 86.6105 83.608 86.2291 83.5878 85.848C83.547 85.1534 83.2639 84.4952 82.7878 83.988C82.2838 83.424 81.3238 82.896 79.9158 82.412L80.2438 89.288Z" fill="#FAFAFA"/>
</g>
<path opacity="0.2" d="M110.88 37.112H71.2799L75.1399 117.156C75.3283 120.435 76.7547 123.52 79.1308 125.788C81.5069 128.056 84.6555 129.337 87.9399 129.372H127.54L123.684 49.328C123.497 46.0475 122.071 42.9605 119.694 40.6923C117.316 38.4241 114.166 37.1442 110.88 37.112Z" fill="black"/>
<path d="M120.58 37.112H71.2918C74.5765 37.1462 77.7255 38.4268 80.1019 40.6947C82.4782 42.9626 83.9044 46.0485 84.0918 49.328L87.2398 114.488C87.4282 117.767 88.8546 120.852 91.2307 123.12C93.6069 125.388 96.7554 126.669 100.04 126.704H124.892C126.474 126.72 128.043 126.411 129.501 125.796C130.958 125.18 132.274 124.271 133.365 123.125C134.456 121.979 135.3 120.621 135.844 119.135C136.389 117.65 136.621 116.068 136.528 114.488L133.384 49.328C133.197 46.0475 131.771 42.9605 129.393 40.6923C127.016 38.4241 123.865 37.1442 120.58 37.112Z" fill="#FAFAFA"/>
<path d="M111.672 114.488C111.766 116.067 111.534 117.648 110.991 119.133C110.448 120.619 109.605 121.976 108.514 123.122C107.424 124.268 106.11 125.177 104.654 125.793C103.197 126.409 101.629 126.719 100.048 126.704H149.332C150.913 126.719 152.481 126.409 153.938 125.793C155.395 125.177 156.709 124.268 157.8 123.122C158.89 121.976 159.734 120.619 160.277 119.133C160.821 117.648 161.053 116.067 160.96 114.488H111.672Z" fill="#E6E6E6"/>
<path d="M127.52 77.556H92.6879C92.4437 77.5534 92.2096 77.4582 92.0329 77.2896C91.8562 77.1211 91.7501 76.8918 91.7359 76.648C91.7293 76.5307 91.7469 76.4134 91.7874 76.3032C91.8279 76.193 91.8906 76.0922 91.9715 76.0071C92.0525 75.9221 92.15 75.8545 92.2581 75.8085C92.3661 75.7626 92.4825 75.7393 92.5999 75.74H127.432C127.679 75.7386 127.917 75.8319 128.097 76.0009C128.277 76.1698 128.386 76.4015 128.4 76.648C128.407 76.7666 128.389 76.8853 128.347 76.9966C128.306 77.1079 128.241 77.2095 128.159 77.2948C128.076 77.3801 127.977 77.4473 127.867 77.4923C127.757 77.5373 127.639 77.5589 127.52 77.556Z" fill="#FA1239"/>
<path d="M127.792 83.224H92.9598C92.7156 83.2213 92.4815 83.1261 92.3048 82.9576C92.1281 82.7891 92.022 82.5597 92.0078 82.316C92.0012 82.1987 92.0187 82.0814 92.0593 81.9712C92.0998 81.8609 92.1625 81.7602 92.2434 81.6751C92.3244 81.5901 92.4219 81.5225 92.5299 81.4765C92.638 81.4306 92.7543 81.4072 92.8718 81.408H127.708C127.951 81.4116 128.184 81.5072 128.36 81.6757C128.536 81.8441 128.642 82.0729 128.656 82.316C128.662 82.4332 128.645 82.5506 128.604 82.6608C128.564 82.771 128.501 82.8717 128.42 82.9568C128.339 83.0419 128.242 83.1095 128.134 83.1554C128.026 83.2014 127.909 83.2247 127.792 83.224Z" fill="#FA1239"/>
<path d="M128.068 88.888H93.2318C92.9877 88.8854 92.7536 88.7902 92.5769 88.6216C92.4002 88.4531 92.294 88.2238 92.2798 87.98C92.2733 87.8627 92.2908 87.7454 92.3313 87.6352C92.3719 87.525 92.4345 87.4242 92.5155 87.3391C92.5964 87.2541 92.694 87.1865 92.802 87.1405C92.9101 87.0946 93.0264 87.0712 93.1438 87.072H128C128.244 87.0746 128.478 87.1698 128.655 87.3383C128.832 87.5069 128.938 87.7362 128.952 87.98C128.959 88.0989 128.94 88.218 128.899 88.3296C128.857 88.4412 128.793 88.5429 128.709 88.6283C128.626 88.7136 128.526 88.7808 128.416 88.8255C128.305 88.8702 128.187 88.8915 128.068 88.888Z" fill="#FA1239"/>
<path d="M128.34 94.564H93.5078C93.2639 94.5604 93.0304 94.4649 92.8539 94.2966C92.6774 94.1282 92.5709 93.8994 92.5558 93.656C92.5493 93.5387 92.5668 93.4214 92.6073 93.3112C92.6479 93.201 92.7105 93.1002 92.7915 93.0151C92.8724 92.9301 92.9699 92.8625 93.078 92.8165C93.1861 92.7706 93.3024 92.7472 93.4198 92.748H128.252C128.496 92.7506 128.73 92.8458 128.907 93.0143C129.084 93.1829 129.19 93.4122 129.204 93.656C129.21 93.7732 129.193 93.8906 129.152 94.0008C129.112 94.111 129.049 94.2118 128.968 94.2968C128.887 94.3819 128.79 94.4495 128.682 94.4954C128.574 94.5414 128.457 94.5647 128.34 94.564Z" fill="#FA1239"/>
<path d="M114.764 100.232H93.7799C93.5357 100.229 93.3016 100.134 93.1249 99.9656C92.9482 99.7971 92.8421 99.5677 92.8279 99.324C92.8214 99.2067 92.8389 99.0894 92.8794 98.9792C92.9199 98.8689 92.9826 98.7682 93.0635 98.6831C93.1445 98.5981 93.242 98.5305 93.3501 98.4845C93.4581 98.4386 93.5745 98.4152 93.6919 98.416H114.676C114.92 98.4186 115.154 98.5138 115.331 98.6823C115.508 98.8509 115.614 99.0802 115.628 99.324C115.634 99.4412 115.617 99.5586 115.576 99.6688C115.536 99.779 115.473 99.8797 115.392 99.9648C115.311 100.05 115.214 100.117 115.106 100.163C114.998 100.209 114.881 100.233 114.764 100.232Z" fill="#FA1239"/>
<path d="M117.184 65.8071C121.306 61.5848 121.055 54.6554 116.624 50.3299C112.193 46.0044 105.26 45.9207 101.138 50.143C97.0162 54.3653 97.2668 61.2947 101.698 65.6202C106.129 69.9457 113.062 70.0294 117.184 65.8071Z" fill="#FA1239"/>
<path d="M118.192 57.968C118.267 59.4544 117.963 60.9356 117.308 62.272C116.597 63.7049 115.497 64.9085 114.134 65.7448C112.77 66.581 111.199 67.0161 109.6 67C107.945 66.9875 106.322 66.5451 104.89 65.7162C103.458 64.8874 102.267 63.7005 101.432 62.272C100.653 60.9653 100.206 59.4874 100.132 57.968C100.063 56.8006 100.234 55.6316 100.636 54.5334C101.038 53.4352 101.661 52.4314 102.467 51.5843C103.274 50.7372 104.245 50.065 105.322 49.6094C106.399 49.1538 107.558 48.9246 108.728 48.936C111.155 48.9661 113.48 49.9145 115.236 51.5904C116.992 53.2662 118.048 55.5449 118.192 57.968Z" fill="white"/>
<path opacity="0.4" d="M117.308 62.272C116.597 63.7049 115.497 64.9085 114.134 65.7448C112.771 66.581 111.199 67.0161 109.6 67C107.945 66.9875 106.322 66.5451 104.891 65.7163C103.459 64.8874 102.267 63.7005 101.432 62.272C103.734 60.6924 106.464 59.8549 109.256 59.872C112.115 59.8773 114.912 60.7109 117.308 62.272Z" fill="#FA1239"/>
<path opacity="0.4" d="M111.957 57.751C113.473 56.1987 113.381 53.6518 111.753 52.0623C110.125 50.4728 107.576 50.4427 106.061 51.9951C104.545 53.5474 104.637 56.0944 106.265 57.6838C107.893 59.2733 110.442 59.3034 111.957 57.751Z" fill="#FA1239"/>
<path d="M142.704 141.984H139.768L139.472 135.176H142.412L142.704 141.984Z" fill="#B55B52"/>
<path opacity="0.2" d="M139.476 135.18L139.624 138.688H142.564L142.412 135.18H139.476Z" fill="black"/>
<path d="M167.716 134.008L164.924 134.92L161.408 128.908L164.204 127.996L167.716 134.008Z" fill="#B55B52"/>
<path opacity="0.2" d="M164.204 127.996L161.408 128.908L163.224 132.008L166.016 131.096L164.204 127.996Z" fill="black"/>
<path d="M152.64 43.656C153.004 44.1 153.312 44.496 153.628 44.932C153.944 45.368 154.244 45.784 154.544 46.216C155.136 47.084 155.704 47.972 156.236 48.888C157.343 50.7464 158.246 52.7192 158.928 54.772L158.996 54.972L159.028 55.076L159.072 55.24L159.152 55.568L159.196 55.868C159.243 56.2272 159.258 56.59 159.24 56.952C159.203 57.5623 159.115 58.1684 158.976 58.764C158.723 59.831 158.387 60.8768 157.972 61.892C157.181 63.8379 156.223 65.7116 155.108 67.492L153.108 66.536C153.708 64.66 154.308 62.74 154.748 60.872C154.977 59.9715 155.151 59.0577 155.268 58.136C155.317 57.738 155.332 57.3365 155.312 56.936C155.306 56.7932 155.287 56.6514 155.256 56.512L155.236 56.44C155.229 56.427 155.222 56.4137 155.216 56.4L155.184 56.324L155.12 56.168L154.852 55.54L154.552 54.916C154.352 54.516 154.132 54.084 153.912 53.668C153.456 52.844 152.964 52.024 152.452 51.208C151.94 50.392 151.396 49.608 150.852 48.808C150.308 48.008 149.712 47.208 149.172 46.484L152.64 43.656Z" fill="#B55B52"/>
<path d="M153.292 66.04L152.144 68.58H155.428C155.428 68.58 155.952 66.652 154.76 65.872L153.292 66.04Z" fill="#B55B52"/>
<path d="M152.528 71.436L155.576 70.848L155.428 68.58H152.144L152.528 71.436Z" fill="#B55B52"/>
<path d="M138.088 30.764C138.088 31.004 137.964 31.196 137.808 31.196C137.652 31.196 137.528 31.004 137.528 30.764C137.528 30.524 137.656 30.336 137.808 30.336C137.96 30.336 138.088 30.528 138.088 30.764Z" fill="#263238"/>
<path d="M138 31.196C137.718 31.9197 137.337 32.6009 136.868 33.22C137.03 33.3359 137.215 33.4153 137.41 33.4526C137.606 33.4899 137.807 33.4842 138 33.436V31.196Z" fill="#A02724"/>
<path d="M138.928 29.452C138.899 29.4523 138.871 29.4424 138.848 29.424C138.709 29.3191 138.547 29.2483 138.375 29.217C138.204 29.1858 138.027 29.195 137.86 29.244C137.827 29.2531 137.791 29.2495 137.76 29.2338C137.729 29.2181 137.705 29.1915 137.693 29.1592C137.68 29.1268 137.68 29.0909 137.693 29.0586C137.705 29.0262 137.729 28.9996 137.76 28.984C137.971 28.917 138.194 28.9017 138.412 28.9393C138.63 28.9769 138.836 29.0663 139.012 29.2C139.041 29.2223 139.061 29.2551 139.067 29.2916C139.073 29.3281 139.065 29.3654 139.044 29.396C139.03 29.4134 139.012 29.4276 138.992 29.4373C138.972 29.447 138.95 29.452 138.928 29.452Z" fill="#263238"/>
<path d="M145.74 33.496C145.316 35.648 144.896 39.588 146.4 41.02C146.4 41.02 145.812 43.2 141.82 43.2C137.42 43.2 139.72 41.02 139.72 41.02C142.12 40.448 142.056 38.672 141.636 37L145.74 33.496Z" fill="#B55B52"/>
<path d="M146.976 41.768C147.292 41.08 147.64 40.288 146.92 40.04C146.12 39.768 141.816 39.492 140.324 40.004C140.128 40.0583 139.944 40.1512 139.784 40.2771C139.624 40.4029 139.491 40.5594 139.392 40.7373C139.293 40.9152 139.23 41.1111 139.208 41.3134C139.185 41.5157 139.203 41.7206 139.26 41.916L146.976 41.768Z" fill="#263238"/>
<path d="M164.32 135.62C164.104 135.828 163.86 135.996 163.676 135.968C163.618 135.956 163.565 135.927 163.524 135.884C163.483 135.841 163.457 135.787 163.448 135.728C163.436 135.683 163.434 135.635 163.442 135.589C163.45 135.542 163.469 135.498 163.496 135.46C163.736 135.088 164.696 134.928 164.748 134.924C164.761 134.922 164.774 134.924 164.786 134.929C164.798 134.934 164.808 134.942 164.816 134.952C164.824 134.963 164.828 134.976 164.828 134.99C164.828 135.004 164.824 135.017 164.816 135.028C164.672 135.242 164.506 135.441 164.32 135.62ZM163.668 135.468C163.647 135.487 163.628 135.509 163.612 135.532C163.596 135.555 163.585 135.581 163.58 135.609C163.575 135.637 163.577 135.665 163.584 135.692C163.616 135.816 163.676 135.828 163.696 135.828C163.9 135.86 164.336 135.428 164.604 135.092C164.268 135.147 163.949 135.275 163.668 135.468Z" fill="#FA1239"/>
<path d="M164.8 135.04L164.768 135.06C164.436 135.148 163.568 135.092 163.384 134.812C163.357 134.767 163.345 134.715 163.351 134.662C163.356 134.61 163.379 134.562 163.416 134.524C163.45 134.483 163.493 134.45 163.54 134.426C163.587 134.402 163.639 134.388 163.692 134.384C164.132 134.352 164.768 134.916 164.796 134.94C164.806 134.948 164.813 134.959 164.816 134.971C164.82 134.983 164.82 134.996 164.816 135.008C164.815 135.02 164.809 135.032 164.8 135.04ZM163.548 134.592L163.524 134.616C163.468 134.684 163.492 134.72 163.5 134.736C163.608 134.9 164.216 134.992 164.592 134.948C164.344 134.723 164.035 134.576 163.704 134.524C163.648 134.528 163.596 134.552 163.556 134.592H163.548Z" fill="#FA1239"/>
<path d="M138.584 142.132C138.208 142.132 137.844 142.08 137.724 141.912C137.692 141.868 137.674 141.815 137.674 141.76C137.674 141.705 137.692 141.652 137.724 141.608C137.748 141.567 137.779 141.532 137.817 141.503C137.855 141.475 137.898 141.455 137.944 141.444C138.432 141.312 139.46 141.896 139.504 141.924C139.517 141.931 139.527 141.941 139.532 141.954C139.538 141.968 139.539 141.982 139.536 141.996C139.534 142.009 139.528 142.022 139.519 142.032C139.509 142.042 139.497 142.049 139.484 142.052C139.187 142.104 138.886 142.131 138.584 142.132ZM138.12 141.564C138.075 141.558 138.029 141.558 137.984 141.564C137.956 141.57 137.929 141.581 137.906 141.597C137.882 141.614 137.863 141.635 137.848 141.66C137.8 141.748 137.816 141.792 137.848 141.816C137.984 142.004 138.728 142.008 139.272 141.932C138.916 141.736 138.524 141.611 138.12 141.564Z" fill="#FA1239"/>
<path d="M139.472 142.052H139.444C139.092 141.892 138.388 141.252 138.44 140.924C138.44 140.844 138.508 140.748 138.7 140.728C138.771 140.72 138.844 140.726 138.912 140.747C138.981 140.768 139.045 140.802 139.1 140.848C139.472 141.156 139.552 141.948 139.556 141.98C139.556 141.992 139.553 142.004 139.547 142.016C139.542 142.027 139.534 142.036 139.524 142.044C139.516 142.049 139.508 142.052 139.499 142.053C139.49 142.055 139.481 142.054 139.472 142.052ZM138.756 140.852H138.716C138.588 140.852 138.58 140.912 138.58 140.928C138.548 141.128 139.024 141.628 139.38 141.844C139.345 141.508 139.205 141.192 138.98 140.94C138.916 140.889 138.837 140.861 138.756 140.86V140.852Z" fill="#FA1239"/>
<path d="M164.68 134.596L167.08 132.312C167.122 132.271 167.177 132.245 167.235 132.24C167.293 132.235 167.352 132.251 167.4 132.284L169.624 133.772C169.678 133.808 169.723 133.856 169.755 133.913C169.788 133.969 169.807 134.032 169.812 134.096C169.816 134.161 169.806 134.226 169.782 134.286C169.758 134.346 169.72 134.4 169.672 134.444C168.828 135.244 168.376 135.568 167.328 136.568C166.68 137.188 164.752 139.288 163.86 140.144C162.968 141 162.008 140.224 162.296 139.796C163.592 137.872 164.4 136.028 164.472 135.056C164.485 134.883 164.559 134.72 164.68 134.596Z" fill="#263238"/>
<path d="M139.784 141.644H142.984C143.042 141.644 143.098 141.663 143.144 141.7C143.189 141.736 143.22 141.787 143.232 141.844L143.812 144.456C143.827 144.519 143.827 144.584 143.812 144.647C143.798 144.71 143.769 144.768 143.729 144.818C143.688 144.869 143.637 144.909 143.579 144.936C143.52 144.963 143.456 144.977 143.392 144.976C142.232 144.976 140.56 144.892 139.104 144.892C137.404 144.892 135.936 144.984 133.94 144.984C132.74 144.984 132.4 143.764 132.904 143.652C135.2 143.152 137.08 143.096 139.064 141.872C139.278 141.73 139.527 141.651 139.784 141.644Z" fill="#263238"/>
<path d="M135.6 47.688C134.432 49.408 133.228 51.016 131.932 52.604C130.631 54.2114 129.241 55.7444 127.768 57.196L127.2 57.748L127.056 57.884L126.952 57.98L126.8 58.088C126.612 58.2398 126.409 58.3738 126.196 58.488C125.521 58.8442 124.778 59.0528 124.016 59.1C122.854 59.1688 121.687 59.0718 120.552 58.812C118.495 58.3583 116.501 57.6572 114.612 56.724L115.348 54.644C117.221 55.0184 119.115 55.2776 121.02 55.42C121.857 55.4861 122.699 55.4512 123.528 55.316C123.766 55.2804 123.993 55.1915 124.192 55.056C124.212 55.056 124.192 55.032 124.192 55.032L124.224 55L124.34 54.868L124.816 54.348C126.064 52.924 127.276 51.404 128.452 49.852C129.628 48.3 130.808 46.708 131.932 45.156L135.6 47.688Z" fill="#B55B52"/>
<path d="M151.664 41.688C154.416 42.32 157.576 49.828 157.576 49.828L152.044 53.62C150.67 51.6456 149.452 49.5673 148.4 47.404C146.76 43.968 148.848 41.04 151.664 41.688Z" fill="#FA1239"/>
<path opacity="0.3" d="M149.688 46.488L152.304 53.452L152.044 53.632C152.044 53.632 150.912 52.032 149.688 49.9V46.488Z" fill="black"/>
<path d="M135.2 41.836C135.2 41.836 132.072 45.368 135.028 67.236H150.744C150.852 64.836 149.336 53.052 151.664 41.684C149.925 41.3496 148.167 41.1278 146.4 41.02C144.175 40.8919 141.945 40.8919 139.72 41.02C138.194 41.1737 136.683 41.4465 135.2 41.836Z" fill="#FA1239"/>
<path opacity="0.3" d="M136.944 48.16C136.535 50.6415 135.463 52.9663 133.84 54.888C133.776 53.48 133.752 52.216 133.756 51.084L136.944 48.16Z" fill="black"/>
<path d="M138.3 44.22C138.7 47 133.204 54.108 133.204 54.108L127.696 50.316C127.696 50.316 129.224 46.4 131.796 43.832C134.736 40.888 137.88 41.192 138.3 44.22Z" fill="#FA1239"/>
<path d="M115.728 54.888L113.572 52.66L111.272 55.624C111.272 55.624 113.024 57.316 115.108 56.824L115.728 54.888Z" fill="#B55B52"/>
<path d="M110.612 51.42L109.624 54.532L111.272 55.612L113.572 52.648L110.612 51.42Z" fill="#B55B52"/>
<path d="M146 30.264C145.82 33.172 145.864 34.888 144.4 36.38C142.188 38.628 138.596 37.296 137.904 34.38C137.276 31.764 137.676 27.444 140.524 26.288C141.151 26.0302 141.834 25.9372 142.508 26.0177C143.181 26.0983 143.823 26.3498 144.371 26.7482C144.92 27.1467 145.358 27.6789 145.643 28.2943C145.928 28.9096 146.051 29.5877 146 30.264Z" fill="#B55B52"/>
<path d="M148.532 24.188C149.428 25.012 149.048 25.932 148.58 26.104C150.032 26.404 150.244 27.56 149.48 30C148.752 32.336 146.988 35.468 144.784 35.66C141.472 35.948 140.504 32.496 140.48 29.072C138.608 29.188 139.416 27.528 137.116 27.912C135.116 28.244 135.868 26.684 134.168 26.004C132.196 25.204 132.592 22.184 134.432 23.052C134.432 23.052 133.58 23.612 134.572 24.14C135.564 24.668 135.468 23.448 137.432 23.3C139.396 23.152 139.624 24.832 141.92 23.82C144.8 22.548 146.692 22.488 148.532 24.188Z" fill="#263238"/>
<path d="M147.428 26.088C147.559 25.8785 147.753 25.7167 147.983 25.6267C148.213 25.5366 148.466 25.523 148.704 25.588C149.604 25.78 149.676 26.176 150.24 26.124C150.804 26.072 150.6 26.672 150.6 26.672C150.6 26.672 150.448 26.22 149.768 26.472C149.088 26.724 148.644 26.108 148.352 26.384C148.06 26.66 147.428 26.088 147.428 26.088Z" fill="#263238"/>
<path d="M142.048 31.056C141.92 31.7691 141.558 32.4193 141.02 32.904C140.308 33.536 139.692 33.028 139.668 32.164C139.668 31.384 140 30.112 140.82 29.808C141.64 29.504 142.196 30.192 142.048 31.056Z" fill="#B55B52"/>
<path d="M140.6 67.236C140.6 67.236 143.936 89.688 145.768 98.088C147.768 107.288 161.708 131.768 161.708 131.768L166.828 130.104C166.828 130.104 155.728 108.048 154.584 98.924C153.34 89.024 150.744 67.22 150.744 67.22L140.6 67.236Z" fill="#263238"/>
<path d="M160.276 130.168C160.256 130.168 161.448 131.96 161.448 131.96L167.2 130.088L166.524 128.368L160.276 130.168Z" fill="#FA1239"/>
<path opacity="0.3" d="M142.708 75.236C146.564 75.992 146.156 90.372 145.692 97.768C144.58 92.54 142.952 82.48 141.84 75.34C142.109 75.2074 142.415 75.1707 142.708 75.236Z" fill="black"/>
<path d="M135.028 67.236C135.028 67.236 134.628 89.208 134.94 98.168C135.272 107.488 138.54 138.008 138.54 138.008H143.52C143.52 138.008 143.7 108.032 143.92 98.88C144.16 88.88 145.364 67.236 145.364 67.236H135.028Z" fill="#263238"/>
<path d="M137.572 136.024C137.548 136.024 137.852 138.092 137.852 138.092H143.908L144.072 136.248L137.572 136.024Z" fill="#FA1239"/>
</svg>
