<svg width="18" height="17" viewBox="0 0 18 17" fill="none" xmlns="http://www.w3.org/2000/svg">
<path d="M8.92869 13.7L4.77869 16.2C4.59536 16.3167 4.40369 16.3667 4.20369 16.35C4.00369 16.3333 3.82869 16.2667 3.67869 16.15C3.52869 16.0333 3.41202 15.8877 3.32869 15.713C3.24536 15.5383 3.22869 15.3423 3.27869 15.125L4.37869 10.4L0.703689 7.225C0.537022 7.075 0.433022 6.904 0.391689 6.712C0.350356 6.52 0.362689 6.33267 0.428689 6.15C0.494689 5.96733 0.594689 5.81733 0.728689 5.7C0.862689 5.58267 1.04602 5.50767 1.27869 5.475L6.12869 5.05L8.00369 0.6C8.08702 0.4 8.21636 0.25 8.39169 0.15C8.56702 0.0499999 8.74602 0 8.92869 0C9.11136 0 9.29036 0.0499999 9.46569 0.15C9.64102 0.25 9.77036 0.4 9.85369 0.6L11.7287 5.05L16.5787 5.475C16.812 5.50833 16.9954 5.58333 17.1287 5.7C17.262 5.81667 17.362 5.96667 17.4287 6.15C17.4954 6.33333 17.508 6.521 17.4667 6.713C17.4254 6.905 17.321 7.07567 17.1537 7.225L13.4787 10.4L14.5787 15.125C14.6287 15.3417 14.612 15.5377 14.5287 15.713C14.4454 15.8883 14.3287 16.034 14.1787 16.15C14.0287 16.266 13.8537 16.3327 13.6537 16.35C13.4537 16.3673 13.262 16.3173 13.0787 16.2L8.92869 13.7Z" fill="#FFAB00"/>
</svg>
