<svg width="18" height="17" viewBox="0 0 18 17" fill="none" xmlns="http://www.w3.org/2000/svg">
<path d="M9.05129 13.7L4.90129 16.2C4.71796 16.3167 4.52629 16.3667 4.32629 16.35C4.12629 16.3333 3.95129 16.2667 3.80129 16.15C3.65129 16.0333 3.53463 15.8877 3.45129 15.713C3.36796 15.5383 3.35129 15.3423 3.40129 15.125L4.50129 10.4L0.826293 7.225C0.659627 7.075 0.555627 6.904 0.514293 6.712C0.47296 6.52 0.485293 6.33267 0.551293 6.15C0.617293 5.96733 0.717293 5.81733 0.851293 5.7C0.985293 5.58267 1.16863 5.50767 1.40129 5.475L6.25129 5.05L8.12629 0.6C8.20963 0.4 8.33896 0.25 8.51429 0.15C8.68963 0.0499999 8.86863 0 9.05129 0C9.23396 0 9.41296 0.0499999 9.58829 0.15C9.76363 0.25 9.89296 0.4 9.97629 0.6L11.8513 5.05L16.7013 5.475C16.9346 5.50833 17.118 5.58333 17.2513 5.7C17.3846 5.81667 17.4846 5.96667 17.5513 6.15C17.618 6.33333 17.6306 6.521 17.5893 6.713C17.548 6.905 17.4436 7.07567 17.2763 7.225L13.6013 10.4L14.7013 15.125C14.7513 15.3417 14.7346 15.5377 14.6513 15.713C14.568 15.8883 14.4513 16.034 14.3013 16.15C14.1513 16.266 13.9763 16.3327 13.7763 16.35C13.5763 16.3673 13.3846 16.3173 13.2013 16.2L9.05129 13.7Z" fill="#FFAB00"/>
</svg>
