<svg width="24" height="24" viewBox="0 0 24 24" fill="none" xmlns="http://www.w3.org/2000/svg">
<path fill-rule="evenodd" clip-rule="evenodd" d="M23.9297 1.45371C24.0036 1.26046 24.02 1.04995 23.9768 0.847605C23.9337 0.645258 23.8329 0.459732 23.6866 0.313434C23.5403 0.167136 23.3547 0.0663257 23.1524 0.0231781C22.95 -0.0199695 22.7395 -0.00360823 22.5463 0.0702857L0.689143 8.42743C0.489881 8.50332 0.317794 8.63694 0.194904 8.81119C0.0720143 8.98544 0.00391087 9.19239 -0.000691365 9.40557C-0.0052936 9.61874 0.0538147 9.82845 0.16907 10.0078C0.284325 10.1872 0.450484 10.3282 0.646286 10.4126L9.68571 14.3143L13.5874 23.3537C13.6718 23.5495 13.8128 23.7157 13.9922 23.8309C14.1716 23.9462 14.3813 24.0053 14.5944 24.0007C14.8076 23.9961 15.0146 23.928 15.1888 23.8051C15.3631 23.6822 15.4967 23.5101 15.5726 23.3109L23.9297 1.45371ZM10.044 12.1371L3.91543 9.48857L21.0737 2.928L14.5131 20.0863L11.8629 13.9543L16.1229 9.69429C16.35 9.45056 16.4736 9.12819 16.4677 8.7951C16.4619 8.46202 16.3269 8.14421 16.0914 7.90865C15.8558 7.67308 15.538 7.53815 15.2049 7.53227C14.8718 7.52639 14.5494 7.65003 14.3057 7.87714L10.044 12.1371Z" fill="white"/>
</svg>
