<svg width="18" height="17" viewBox="0 0 18 17" fill="none" xmlns="http://www.w3.org/2000/svg">
<path d="M8.80608 13.7L4.65608 16.2C4.47275 16.3167 4.28108 16.3667 4.08108 16.35C3.88108 16.3333 3.70608 16.2667 3.55608 16.15C3.40608 16.0333 3.28942 15.8877 3.20608 15.713C3.12275 15.5383 3.10608 15.3423 3.15608 15.125L4.25608 10.4L0.581085 7.225C0.414418 7.075 0.310418 6.904 0.269085 6.712C0.227751 6.52 0.240084 6.33267 0.306084 6.15C0.372084 5.96733 0.472084 5.81733 0.606084 5.7C0.740084 5.58267 0.923418 5.50767 1.15608 5.475L6.00608 5.05L7.88108 0.6C7.96442 0.4 8.09375 0.25 8.26908 0.15C8.44442 0.0499999 8.62342 0 8.80608 0C8.98875 0 9.16775 0.0499999 9.34308 0.15C9.51842 0.25 9.64775 0.4 9.73108 0.6L11.6061 5.05L16.4561 5.475C16.6894 5.50833 16.8728 5.58333 17.0061 5.7C17.1394 5.81667 17.2394 5.96667 17.3061 6.15C17.3728 6.33333 17.3854 6.521 17.3441 6.713C17.3028 6.905 17.1984 7.07567 17.0311 7.225L13.3561 10.4L14.4561 15.125C14.5061 15.3417 14.4894 15.5377 14.4061 15.713C14.3228 15.8883 14.2061 16.034 14.0561 16.15C13.9061 16.266 13.7311 16.3327 13.5311 16.35C13.3311 16.3673 13.1394 16.3173 12.9561 16.2L8.80608 13.7Z" fill="#FFAB00"/>
</svg>
