<svg width="18" height="17" viewBox="0 0 18 17" fill="none" xmlns="http://www.w3.org/2000/svg">
<path d="M8.68348 13.7L4.53348 16.2C4.35015 16.3167 4.15848 16.3667 3.95848 16.35C3.75848 16.3333 3.58348 16.2667 3.43348 16.15C3.28348 16.0333 3.16681 15.8877 3.08348 15.713C3.00015 15.5383 2.98348 15.3423 3.03348 15.125L4.13348 10.4L0.45848 7.225C0.291814 7.075 0.187813 6.904 0.14648 6.712C0.105147 6.52 0.11748 6.33267 0.18348 6.15C0.24948 5.96733 0.34948 5.81733 0.48348 5.7C0.61748 5.58267 0.800813 5.50767 1.03348 5.475L5.88348 5.05L7.75848 0.6C7.84181 0.4 7.97115 0.25 8.14648 0.15C8.32181 0.0499999 8.50081 0 8.68348 0C8.86615 0 9.04515 0.0499999 9.22048 0.15C9.39581 0.25 9.52515 0.4 9.60848 0.6L11.4835 5.05L16.3335 5.475C16.5668 5.50833 16.7501 5.58333 16.8835 5.7C17.0168 5.81667 17.1168 5.96667 17.1835 6.15C17.2501 6.33333 17.2628 6.521 17.2215 6.713C17.1801 6.905 17.0758 7.07567 16.9085 7.225L13.2335 10.4L14.3335 15.125C14.3835 15.3417 14.3668 15.5377 14.2835 15.713C14.2001 15.8883 14.0835 16.034 13.9335 16.15C13.7835 16.266 13.6085 16.3327 13.4085 16.35C13.2085 16.3673 13.0168 16.3173 12.8335 16.2L8.68348 13.7Z" fill="#FFAB00"/>
</svg>
